<svg height="90" width="90" xmlns="http://www.w3.org/2000/svg" xmlns:xlink="http://www.w3.org/1999/xlink"><path d=" M 46.68 8.35106658787417 C 45.7395,8.355707205692191 44.60549999999999,8.382361620340378 44.16,8.410298620425698 C 43.7145,8.438235620511016 42.945,8.5020456924704 42.449999999999996,8.552098780335438 C 41.955,8.602151868200474 41.307,8.671275398640143 41.01,8.705706625756923 C 40.712999999999994,8.7401378528737 40.227000000000004,8.809078312783276 39.93,8.858907647778203 C 39.632999999999996,8.90873698277313 39.025499999999994,9.01584055573413 38.58,9.096915587691537 C 38.1345,9.177990619648943 37.419,9.325034677608338 36.99,9.423680160934635 C 36.561,9.522325644260935 36.10439162889591,9.631742199188855 35.975314730879795,9.666828060774462 C 35.84623783286368,9.701913922360067 35.68423783286368,9.741412856446429 35.615314730879795,9.754603469855265 C 35.546391628895904,9.767794083264103 35.355,9.818721466700238 35.19,9.867775433046676 C 35.025,9.916829399393112 34.647,10.027340212621686 34.35,10.11335501799906 C 34.053,10.199369823376436 33.54,10.35987836995547 33.21,10.470040677063581 C 32.879999999999995,10.580202984171692 32.394,10.750786644773836 32.129999999999995,10.849115478401675 C 31.866,10.947444312029518 31.326,11.173197267407007 30.93,11.350788712573875 C 30.534,11.528380157740743 29.9805,11.813989142273222 29.7,11.985475344868274 C 29.4195,12.156961547463327 29.04766413197838,12.435356803235738 28.873698071063068,12.604131468806965 C 28.69973201014775,12.772906134378195 28.51188708117481,12.996270735266675 28.45626489556763,13.100497248559146 C 28.39201794980456,13.22088509512574 28.354197484071616,13.433856638732681 28.352566824504567,13.684433427962787 C 28.350373949924016,14.021403499878922 28.376499743612747,14.121768777308754 28.531896523844264,14.373349341487652 C 28.631939611958604,14.535314708546794 28.84793961195861,14.77099113083947 29.011896523844264,14.897074724360264 C 29.175853435729916,15.023158317881059 29.58823699006605,15.263613433791384 29.928304422369003,15.431419426383208 C 30.26837185467195,15.59922541897503 30.781371854671953,15.811467793731806 31.068304422369003,15.903069148064931 C 31.59,16.06961706503425 31.59,16.06961706503425 31.32,16.176223281297855 C 31.171499999999998,16.23485670024284 30.671999999999997,16.473410829314652 30.209999999999997,16.70634356812411 C 29.487140944283478,17.070797117087892 29.306030401096763,17.19262164237354 28.911283678329553,17.57992881934338 C 28.55171182919222,17.93272404163414 28.436842868523524,18.088356344257512 28.37981413932472,18.3 C 28.339735280760255,18.448739701265257 28.322663964846,18.70216567795042 28.341802891249767,18.864282080936267 C 28.362950162128776,19.043410179114126 28.441786154273103,19.25297066062618 28.543272430254607,19.399824952351807 C 28.634972593614574,19.532518387115402 28.8585,19.759400664813423 29.04,19.904007791680733 C 29.2215,20.048614918548047 29.613,20.28284575659901 29.91,20.424520765127326 C 30.206999999999997,20.566195773655643 30.612,20.73846723263052 30.81,20.807346229515947 C 31.007999999999996,20.87622522640137 31.37004374642408,20.9933646818242 31.61454165872017,21.067656130455564 C 31.95562797875763,21.171296266217688 32.032426769367234,21.213557593641035 31.944541658720173,21.249250631345536 C 31.88154374642408,21.27483615820366 31.546499999999998,21.41530629876966 31.2,21.561406499269985 C 30.8535,21.707506699770313 30.381,21.926734259287898 30.15,22.048578853753508 C 29.918999999999997,22.170423448219115 29.622,22.340985021188175 29.49,22.427604571462524 C 29.358,22.51422412173687 29.110643867876014,22.700990942625786 28.94031970639114,22.84264195121567 C 28.75407707526229,22.997531641039135 28.56872943048867,23.224426386561518 28.47531970639114,23.41187527919656 C 28.38465434448687,23.593816954471883 28.32013928935862,23.824805310321487 28.320334616064184,23.96678065941611 C 28.320518654899487,24.100551296737247 28.350320648368374,24.31680165784583 28.38656126821727,24.447337017435174 C 28.430849990105454,24.60686089593204 28.565571582411135,24.795360244888986 28.79747414666183,25.02227685253656 C 29.02907688775822,25.248900083294185 29.33767821716964,25.45988121664194 29.736247494508746,25.66408700048103 C 30.062811372528934,25.831401032134075 30.63818450987311,26.07120052367644 31.01485446638469,26.196974759464055 C 31.699708932769372,26.425655188168815 31.699708932769372,26.425655188168815 31.40485446638469,26.561311885956773 C 31.242684509873108,26.635923069740144 30.9345,26.777802266423254 30.72,26.876598989697012 C 30.505499999999998,26.975395712970773 30.138066836110188,27.161432901702625 29.903481858022648,27.290014964656688 C 29.668896879935104,27.41859702761075 29.331396879935102,27.63789892297052 29.153481858022648,27.777352509900624 C 28.97556683611019,27.91680609683073 28.742587827612528,28.139823792199486 28.63575072802784,28.272947388497865 C 28.528913628443156,28.406070984796244 28.414314205672024,28.612867475415378 28.381085344091993,28.73249514542928 C 28.347856482511965,28.852122815443174 28.3206692321283,29.031 28.320669232128303,29.13 C 28.320669232128303,29.229 28.347427890865692,29.40632495352938 28.380132918211395,29.524055452287516 C 28.412837945557094,29.64178595104565 28.554608404566384,29.858143866199264 28.695178382676485,30.00485081929554 C 28.83574836078658,30.151557772391822 29.045089124820326,30.342473748377788 29.16038008052924,30.429108543708804 C 29.27567103623816,30.515743339039815 29.528572967358155,30.670380465282527 29.722384371907008,30.772746602025936 C 29.91619577645586,30.875112738769346 30.402195776455862,31.07761434547205 30.802384371907007,31.222750172476392 C 31.20257296735815,31.367885999480734 31.661466497576292,31.521050470235114 31.822147772391766,31.56311566304168 C 32.11429554478353,31.639597831780893 32.11429554478353,31.639597831780893 31.612147772391765,31.84299928625195 C 31.335966497576294,31.954870086211027 30.83494479107319,32.17804675607919 30.498766202384868,32.33894744151453 C 30.162587613696545,32.49984812694987 29.734812703349693,32.729187754643135 29.54815529050297,32.84859105861069 C 29.361497877656245,32.96799436257823 29.072332705602456,33.19265818055937 28.905566019272328,33.34784398745766 C 28.7387993329422,33.503029794355946 28.539088004013067,33.765 28.461763066096466,33.93 C 28.384438128179873,34.095 28.32209361541001,34.337999999999994 28.323219704385657,34.47 C 28.324345793361303,34.602000000000004 28.360885326609225,34.80975173662006 28.404418667158808,34.931670525822355 C 28.44795200770839,35.05358931502465 28.588516901458853,35.26543306162837 28.716785097715388,35.402434407163945 C 28.845053293971922,35.539435752699525 29.0985,35.74789638077468 29.279999999999998,35.86568024733094 C 29.461499999999997,35.983464113887216 29.798999999999996,36.16694599011248 30.029999999999998,36.27341775005377 C 30.261,36.37988950999505 30.672749999999997,36.54031709820042 30.945,36.62992350162124 C 31.21725,36.71952990504207 31.439999999999998,36.81695428221309 31.439999999999998,36.846422117556834 C 31.439999999999998,36.87588995290057 31.411874077723347,36.9 31.377497950496334,36.9 C 31.34312182326932,36.9 31.133871823269317,36.98370566832019 30.912497950496334,37.08601259626708 C 30.69112407772335,37.18831952421397 30.36041969148407,37.347028037676544 30.177599314409047,37.438698181739454 C 29.994778937334022,37.530368325802364 29.692294636103977,37.70318267299793 29.505411978342277,37.82273006439628 C 29.318529320580584,37.94227745579463 29.029418640149437,38.17629564556485 28.862943799606406,38.34277048610788 C 28.69646895906337,38.509245326650905 28.5136657530586,38.73197531113515 28.456714452929138,38.83772600718397 C 28.38704479680675,38.96709293316592 28.352648614144325,39.16939225015845 28.35158331725597,39.456049184208005 C 28.35009716469492,39.855952667768435 28.363423193283687,39.89932762699082 28.568733497528676,40.16285242657861 C 28.689036921169453,40.31726715856805 28.90503692116945,40.53233004898995 29.048733497528676,40.640769960849504 C 29.192430073887905,40.749209872709045 29.4585,40.92085390027152 29.64,41.022201133210544 C 29.821499999999997,41.12354836614957 30.226499999999998,41.30823468804287 30.54,41.43261518186233 C 30.8535,41.55699567568179 31.191,41.67987679943489 31.29,41.70568434575812 C 31.388999999999996,41.73149189208136 31.605,41.791346077037716 31.77,41.838693645661145 C 32.0152134473356,41.90905886096484 32.04808537893424,41.93323366367262 31.95,41.97106993983609 C 31.883999999999997,41.99652933300888 31.5195,42.15033293966657 31.14,42.312855732408735 C 30.760499999999997,42.47537852515089 30.301499999999997,42.69205442821474 30.119999999999997,42.79435773921728 C 29.9385,42.89666105021983 29.736,43.009596329937665 29.669999999999998,43.045325027479144 C 29.604,43.081053725020624 29.398489594729142,43.22306096982301 29.213310210509203,43.36089668259556 C 29.028130826289264,43.498732395368094 28.778273369959642,43.726403479812134 28.658071418665596,43.86683242580451 C 28.537869467371554,44.00726137179688 28.412780449871228,44.218422281169566 28.38009582422043,44.336078891077136 C 28.34741119856963,44.45373550098471 28.320518654899253,44.652117203034344 28.320334616064027,44.7769271178541 C 28.320150577228805,44.90173703267385 28.361778052237494,45.10423703267385 28.412840116083334,45.226927117854096 C 28.463902179929175,45.34961720303435 28.619152179929177,45.56728233306495 28.75784011608334,45.710627406811014 C 28.8965280522375,45.85397248055707 29.14855789766786,46.06084514609988 29.31790643926192,46.170344441350586 C 29.487254980855976,46.27984373660129 29.821362114877534,46.45526117085938 30.06036673708761,46.56016096192411 C 30.29937135929768,46.66506075298884 30.808813461629818,46.852801574606254 31.19246029782569,46.97736278774057 C 31.57610713402156,47.10192400087489 31.97530775923343,47.21981078539853 32.07957279829652,47.239333420015335 C 32.21658531004312,47.264987706713875 32.278687565020796,47.24996314818894 32.30356127000056,47.18514331205165 C 32.32248989037469,47.13581611805482 32.30468213114126,47.08381761038227 32.26398847170404,47.0695910727793 C 32.223294812266815,47.055364535176345 31.921743674787002,46.94774027399791 31.59387483286001,46.830426047938325 C 31.26600599093302,46.71311182187875 30.700206012200404,46.46252377770462 30.336541546787537,46.27356372755136 C 29.84669207723975,46.01903795135762 29.572124469388662,45.82892762755556 29.277089151715003,45.54 C 29.020303146032504,45.28852986416569 28.866609774361024,45.08606313961584 28.84439967127067,44.97 C 28.825454808903313,44.871 28.824327073482152,44.71593424957119 28.84189359255698,44.62540944349155 C 28.861175912340464,44.526042673573706 29.020923063847746,44.323940366692554 29.245011441759075,44.115409443491544 C 29.4875315373974,43.88972643436081 29.812691753994237,43.67302005007684 30.18309508268529,43.49021391339657 C 30.49489278720838,43.3363315657647 31.072446958327898,43.084884808366766 31.466548796284215,42.93144334140118 C 31.860650634240532,42.77800187443559 32.31965063424054,42.615775767129946 32.48654879628422,42.57094088072199 C 32.65344695832789,42.52610599431404 32.871,42.46250173302823 32.97,42.429598077864654 C 33.068999999999996,42.396694422701074 33.2985,42.328887357344286 33.48,42.27891571040514 C 33.6615,42.22894406346598 34.0935,42.117008540901125 34.44,42.03017010470546 C 34.7865,41.943331668509806 35.2185,41.83636467783542 35.4,41.7924656809846 C 35.5815,41.748566684133785 35.905499999999996,41.680839851663286 36.12,41.641961608827934 C 36.3345,41.60308336599258 36.699,41.533037570929395 36.93,41.486304286465305 C 37.161,41.43957100200121 37.458,41.38640773913326 37.589999999999996,41.368163702314305 C 37.722,41.34991966549535 37.97092957821779,41.30737544103138 38.14317684048397,41.27362098128325 C 38.31542410275016,41.23986652153513 38.57192410275015,41.20124004643475 38.71317684048397,41.18778436994909 C 38.85442957821779,41.17432869346342 39.1455,41.13634777990345 39.36,41.10338233981582 C 39.5745,41.0704168997282 40.1145,41.00321754742339 40.559999999999995,40.95405044580513 C 41.0055,40.90488334418688 41.8425,40.829858179582345 42.42,40.78732785779506 C 42.997499999999995,40.74479753600778 44.172000000000004,40.71 45.03,40.71 C 45.888,40.71 47.0085,40.74518349418434 47.519999999999996,40.788185542631865 C 48.031499999999994,40.8311875910794 48.773999999999994,40.906760105621984 49.17,40.956124463837604 C 49.566,41.00548882205323 50.322,41.114910247899545 50.85,41.199283187940516 C 51.37799999999999,41.28365612798149 51.864804003132676,41.35896804999956 51.931786673628174,41.36664301464734 C 51.998769344123666,41.37431797929511 52.24176934412366,41.42312013228169 52.47178667362817,41.47509224350639 C 52.70180400313268,41.52706435473109 53.052,41.603316944534974 53.25,41.64454244307058 C 53.44799999999999,41.68576794160618 53.799,41.766723112229215 54.03,41.82444282223288 C 54.261,41.882162532236556 54.666,41.9875564528806 54.93,42.05865153477521 C 55.193999999999996,42.12974661666982 55.788,42.312036293846894 56.25,42.46373970627982 C 56.712,42.61544311871275 57.4545,42.885997241390996 57.9,43.06497109000927 C 58.345499999999994,43.243944938627536 59.087999999999994,43.57343904063627 59.55,43.79718020558425 C 60.213217468437335,44.11836862333753 60.44495709196369,44.26360918311642 60.65113415642053,44.48730535050575 C 60.912268312841064,44.770628377340024 60.912268312841064,44.770628377340024 60.74113415642053,44.95090901308684 C 60.64701037038924,45.05006336274759 60.44816837809083,45.193374378097715 60.29926306242406,45.26937793608713 C 60.150357746757294,45.345381494076534 59.6778577467573,45.520012080292624 59.24926306242406,45.65744590545622 C 58.82066837809083,45.79487973061981 58.402762314609724,45.92648528140604 58.32058292135495,45.94990268498117 C 58.23840352810018,45.97332008855631 58.16134554861716,46.04347246869665 58.14934296694825,46.10579686307082 C 58.128553489332816,46.21374793872091 58.16406394297715,46.217264399787105 58.899238078476436,46.18005603728 C 59.32368297148585,46.15857418872088 59.825605819676596,46.100716987048294 60.01462218556697,46.051484478007595 C 60.203638551457345,46.002251968966895 60.54092343665993,45.879206652596686 60.764144152683826,45.778050441629354 C 60.987364868707715,45.676894230662015 61.25496941308961,45.51184934277799 61.358820917976914,45.41128402410931 C 61.463989207979715,45.309443587522 61.58077921296051,45.110082898852404 61.62243960498129,44.96128658643465 C 61.68223154233672,44.74773075176171 61.68216921826101,44.6438421612082 61.62212894563754,44.443445591637236 C 61.58081931003338,44.30556631655104 61.46965507210027,44.08030918051402 61.375097305786184,43.94287417822164 C 61.28053953947211,43.805439175929266 61.07420992308718,43.57876691664767 60.91658704715302,43.439158046484785 C 60.75896417121886,43.2995491763219 60.441,43.063132944321566 60.21,42.91378864203963 C 59.979,42.764444339757674 59.695499999999996,42.58232820888317 59.58,42.509086128985174 C 59.4645,42.43584404908717 59.127,42.23917545709253 58.83,42.07204481344151 C 58.532999999999994,41.90491416979049 57.9990458018206,41.63231269060875 57.64343511515688,41.4662637485932 C 57.287824428493174,41.30021480657766 56.69382442849317,41.05233831417744 56.32343511515688,40.91542709881496 C 55.9530458018206,40.77851588345248 55.434,40.60091383605042 55.169999999999995,40.52075588236595 C 54.906,40.44059792868147 54.339,40.285592385803724 53.91,40.17629912041541 C 53.481,40.06700585502709 52.913999999999994,39.93392649618133 52.65,39.88056721186926 C 52.386,39.82720792755721 51.9135,39.74102732686312 51.6,39.689054765882396 C 51.2865,39.637082204901674 50.9625,39.59212602335965 50.879999999999995,39.58915214023345 C 50.7975,39.58617825710724 50.392665447383514,39.54690243700309 49.98036766085226,39.50187254000198 C 49.4790921670191,39.447124771292415 48.46633765973534,39.419999999999995 46.9235019267271,39.42 C 45.65452355948952,39.42000000000001 44.236858112106006,39.44753354863565 43.77313426587484,39.48118566363476 C 43.309410419643676,39.51483777863388 42.552,39.58433700986835 42.089999999999996,39.63562839971136 C 41.62799999999999,39.686919789554366 40.966499999999996,39.768718468026115 40.62,39.817403240759695 C 40.2735,39.866088013493275 39.827999999999996,39.93329801483507 39.629999999999995,39.96675879929701 C 39.432,40.000219583758955 39.2025,40.036198616086345 39.12,40.04671220446898 C 39.0375,40.05722579285162 38.686499999999995,40.12562000677183 38.339999999999996,40.198699346513905 C 37.9935,40.27177868625597 37.413,40.394095901734026 37.05,40.47051538090958 C 36.687000000000005,40.54693486008514 36.1875,40.66352651110169 35.94,40.72960793872414 C 35.692499999999995,40.79568936634659 35.2335,40.921253189300614 34.92,41.00863865639976 C 34.6065,41.09602412349891 34.2555,41.19241289839894 34.14,41.22283593395541 C 34.0245,41.253258969511876 33.57974999041891,41.39765731005375 33.15166664537535,41.54372113515959 C 32.45110459256214,41.782755833291766 32.35788753928972,41.801304417759845 32.218752574351306,41.72935493112694 C 32.13373318033164,41.685389693803145 31.89011774842672,41.59078354850188 31.677384947895924,41.519119052679685 C 31.464652147365136,41.44745455685749 31.020463479325958,41.26089629394467 30.690299018919973,41.10454513509565 C 30.360134558513987,40.94819397624662 29.9324473204771,40.71890680361625 29.739882934393556,40.59501808480594 C 29.547318548310013,40.47112936599563 29.28561599579602,40.26561599579608 29.158321706584687,40.13832170658472 C 29.031027417373355,40.01102741737336 28.894769393109843,39.79971008678907 28.855526097110218,39.66872763861963 C 28.79228003383598,39.457631093497156 28.799430060133155,39.399064260377294 28.918467559781785,39.15316559907009 C 28.997640462602376,38.9896162060397 29.166316822072325,38.78904674219603 29.329426126992345,38.66450352605404 C 29.481592238489164,38.54831605947802 29.890471132800947,38.31588593326518 30.23804589212964,38.14799213446996 C 30.58562065145834,37.98009833567474 30.923999999999996,37.82082653892007 30.99,37.794054808348484 C 31.056,37.76728307777689 31.217999999999996,37.70184835173474 31.349999999999998,37.64864430603259 C 31.482000000000003,37.59544026033043 31.778999999999996,37.48487313245945 32.01,37.40293957743041 C 32.241,37.32100602240136 32.7135,37.17252421565711 33.06,37.072980006887626 C 33.406499999999994,36.973435798118146 33.8925,36.84152299347547 34.14,36.77984044101502 C 34.387499999999996,36.71815788855456 34.8735,36.6000957892726 35.22,36.51748022038843 C 35.5665,36.434864651504256 35.9175,36.35492628458611 36,36.33983940501477 C 36.082499999999996,36.32475252544343 36.5145,36.245245992900514 36.96,36.16315822158607 C 37.405499999999996,36.08107045027163 38.04,35.97101684886616 38.37,35.91859466290724 C 38.699999999999996,35.86617247694832 39.267,35.78297809228939 39.629999999999995,35.733718252554056 C 39.992999999999995,35.68445841281872 40.6275,35.61594797329022 41.04,35.5814728313796 C 41.4525,35.54699768946898 42.185454864166,35.49206283526332 42.66878858703556,35.45939537758924 C 43.15212230990511,35.42672791991516 44.20512230990511,35.399920947760044 45.00878858703556,35.399824328355635 C 45.812454864166,35.399727708951225 46.8345,35.42688810896645 47.28,35.4601807728339 C 47.7255,35.49347343670135 48.387,35.548947847069556 48.75,35.5834572403188 C 49.11299999999999,35.61796663356803 49.68,35.685983667542246 50.01,35.73460620470594 C 50.339999999999996,35.783228741869635 50.866499999999995,35.86612861267252 51.18,35.91882813982347 C 51.4935,35.97152766697442 52.0875,36.0816911219905 52.5,36.16363581763699 C 52.9125,36.24558051328347 53.317499999999995,36.324256933758804 53.4,36.33847230758215 C 53.482499999999995,36.352687681405506 53.63373325628333,36.39111505366612 53.73607390285185,36.423866468161286 C 53.83841454942037,36.45661788265645 54.18941454942036,36.55155824444611 54.51607390285185,36.63484504991609 C 54.84273325628333,36.71813185538606 55.2045,36.80971789414772 55.32,36.83836958049754 C 55.4355,36.867021266847374 55.854,36.99826363941468 56.25,37.13001929731377 C 56.646,37.26177495521287 57.226499999999994,37.468403723190455 57.54,37.589194337263955 C 57.8535,37.70998495133745 58.217999999999996,37.85935683025912 58.349999999999994,37.92113184597878 C 58.482,37.98290686169843 58.887,38.160013184767635 59.25,38.31470145279922 C 59.61299999999999,38.46938972083081 60.0585,38.69752842442782 60.239999999999995,38.821676349681454 C 60.421499999999995,38.945824274935084 60.646669952935014,39.12848817970047 60.74037767318891,39.22759613804896 C 60.88336867204382,39.37882749785928 60.90010186298572,39.42769864176089 60.84447801421377,39.53163275390416 C 60.80802548152355,39.599744934276025 60.660851581020296,39.73621138495795 60.517424901984334,39.834891533197315 C 60.373998222948366,39.93357168143669 60.138153069487174,40.05860143120474 59.993324560959465,40.11273542157076 C 59.84849605243176,40.16686941193679 59.676,40.23556782379671 59.61,40.265398559037244 C 59.544,40.29522929427778 59.193,40.39439530509888 58.83,40.485767471973006 C 58.361083710435956,40.60380024734501 58.169999999999995,40.67768069977802 58.169999999999995,40.7409493422357 C 58.169999999999995,40.790042466619674 58.23730584767733,40.8399179270492 58.32,40.8521034146173 C 58.402499999999996,40.864260292656816 58.780499999999996,40.841941192653685 59.16,40.802505414610344 C 59.55669777913735,40.76128252773724 60.099153148589274,40.655352133214386 60.4361383252434,40.55330180474409 C 60.92251345870221,40.406011224718945 61.06697880903654,40.33275500614299 61.28491508334375,40.122899804751036 C 61.45023526097039,39.9637096961733 61.575874689711014,39.77463214777865 61.62398551356662,39.61262523312739 C 61.689614507765825,39.39162816823015 61.68588006315882,39.30913237446932 61.597564058721154,39.028961765282524 C 61.51897692199246,38.779654676361126 61.40614423068026,38.61278900251763 61.11931956247528,38.321696971720165 C 60.912854488256315,38.112160120795615 60.58246386028491,37.83107232321166 60.38511816698328,37.69705742153359 C 60.18777247368165,37.563042519855536 59.77063855703247,37.298030259598484 59.45815390776288,37.10814128762903 C 59.1456692584933,36.91825231565958 58.566,36.59554809891322 58.169999999999995,36.39102080597045 C 57.773999999999994,36.18649351302768 57.1395,35.89644359245842 56.76,35.74646542692765 C 56.3805,35.59648726139688 56.0025,35.455613560977824 55.919999999999995,35.43341275932975 C 55.8375,35.411211957681665 55.67549999999999,35.357603965359566 55.559999999999995,35.31428388750286 C 55.4445,35.270963809646155 55.214999999999996,35.191623581249544 55.05,35.13797226884372 C 54.885,35.0843209564379 54.263999999999996,34.922058385367954 53.669999999999995,34.777388777577166 C 53.076,34.632719169786384 52.387499999999996,34.484159376851416 52.14,34.447255904388335 C 51.8925,34.41035243192527 51.406499999999994,34.34124272234844 51.059999999999995,34.29367877199539 C 50.713499999999996,34.24611482164233 49.957499999999996,34.1720689895675 49.379999999999995,34.12913247849576 C 48.802499999999995,34.08619596742402 47.682,34.05082622341494 46.89,34.050533047364475 C 46.098,34.05023987131401 44.9235,34.084790235230074 44.28,34.12731163384461 C 43.6365,34.16983303245916 42.74549999999999,34.24467513982333 42.3,34.29362742798723 C 41.8545,34.34257971615113 41.247,34.410490484496364 40.949999999999996,34.44454024653221 C 40.653,34.478590008568055 40.167,34.54763238647428 39.87,34.59796775299048 C 39.57299999999999,34.648303119506686 39.114,34.72830539895561 38.85,34.77575059621032 C 38.586,34.82319579346503 38.208,34.89146259508003 38.01,34.92745459979921 C 37.812000000000005,34.9634466045184 37.3125,35.073755989185216 36.9,35.172586565725474 C 36.4875,35.27141714226573 36.096,35.36270549174713 36.03,35.37544956457303 C 35.964,35.388193637398935 35.6535,35.468421709587204 35.339999999999996,35.553734169435856 C 35.0265,35.6390466292845 34.662,35.74385915760373 34.53,35.78665089903414 C 34.397999999999996,35.82944264046455 34.1685,35.899041397644865 34.019999999999996,35.941314803879294 C 33.8715,35.983588210113716 33.33966116326491,36.16161730292298 32.83813591836647,36.33693501012209 C 31.926271836732944,36.65569447775684 31.926271836732944,36.65569447775684 31.57813591836647,36.537584065596974 C 31.386661163264915,36.472623338909045 30.906,36.25885978593252 30.509999999999998,36.06255394787136 C 30.113999999999997,35.8662481098102 29.62955713816569,35.57611653778685 29.433460307034874,35.41781712115281 C 29.223912631158782,35.24865949297025 29.019347199891843,35.01804318972278 28.93727216362695,34.858440717039635 C 28.83099210194115,34.6517693415044 28.8075624339812,34.537075432960656 28.83921777901692,34.37844071703964 C 28.86779378002897,34.23523754558188 28.983721024126524,34.07106410516939 29.209617334496752,33.85388956580889 C 29.448256716084526,33.624463960385505 29.737450925279113,33.44106405215596 30.2642114120719,33.18509174449232 C 30.663395135432356,32.99111368157331 31.300499999999996,32.71869738313254 31.68,32.57972219240172 C 32.0595,32.44074700167089 32.504999999999995,32.288920615419485 32.67,32.24233022295414 C 32.835,32.1957398304888 33.212999999999994,32.09206501708124 33.51,32.01194174871512 C 33.807,31.93181848034899 34.1985,31.82427966218991 34.379999999999995,31.772966597250498 C 34.561499999999995,31.721653532311088 35.04602334463263,31.610578692176187 35.456718543628064,31.526133619172942 C 35.8674137426235,31.441688546169694 36.223082559222895,31.360455553402907 36.24709369162672,31.345615857468967 C 36.27110482403056,31.330776161535027 36.42019621073514,31.3034106644511 36.57840788430358,31.284803641726906 C 36.73661955787202,31.266196619002713 36.880646816140164,31.241960925415896 36.898468458232806,31.23094654486731 C 36.91629010032545,31.219932164318728 37.26817536898823,31.155623232334264 37.68043572192789,31.088037807124064 C 38.092696074867554,31.02045238191387 38.699999999999996,30.925067336314434 39.03,30.876071039125335 C 39.36,30.827074741936226 39.9945,30.745704912491345 40.44,30.69524919591449 C 40.88549999999999,30.644793479337636 41.601,30.575587723877973 42.03,30.541458628226344 C 42.458999999999996,30.507329532574715 43.7685,30.479230409173443 44.94,30.479016131779073 C 46.1115,30.478801854384702 47.4075,30.506736700685106 47.82,30.541093568002196 C 48.2325,30.57545043531929 48.894,30.64545016312796 49.29,30.696648518688136 C 49.686,30.747846874248314 50.26649999999999,30.829165121268023 50.58,30.877355734287498 C 50.893499999999996,30.925546347306977 51.312,30.994437390597447 51.51,31.03044694159967 C 51.708,31.066456492601883 51.933174486239615,31.103725735500635 52.01038774719914,31.113267481374674 C 52.087601008158664,31.122809227248712 52.276601008158664,31.159371636407908 52.430387747199134,31.194517279506222 C 52.58417448623961,31.229662922604533 52.777499999999996,31.270565344253765 52.86,31.285411549837843 C 52.942499999999995,31.300257755421924 53.3475,31.392516889185217 53.76,31.490431847089592 C 54.1725,31.588346804993975 54.66792074686746,31.7107738577959 54.860934993038796,31.762491964427202 C 55.05394923921014,31.8142100710585 55.296949239210136,31.883733050653266 55.400934993038796,31.916987474637796 C 55.50492074686746,31.950241898622323 56.0085,32.116296431589 56.519999999999996,32.28599754789707 C 57.031499999999994,32.45569866420515 57.827999999999996,32.755958777335486 58.29,32.95324224374227 C 58.752,33.15052571014905 59.25670841570411,33.360361716370974 59.411574257120236,33.41954447979098 C 59.566440098536376,33.47872724321099 59.85337145236019,33.62447979338427 60.04919948783984,33.74343903573159 C 60.245027523319486,33.862398278078906 60.517204904861515,34.06837666087499 60.6540381134888,34.20116877527844 C 60.86250483267204,34.40347884825564 60.892742008060466,34.461450656482015 60.840607107178286,34.55886560986077 C 60.80638684508022,34.6228067544776 60.69100104783407,34.74074302367627 60.58419422440908,34.82094620808005 C 60.477387400984085,34.90114939248382 60.227999999999994,35.047286416410756 60.03,35.145695150139886 C 59.832,35.24410388386902 59.373,35.398827826063524 59.01,35.48952613279432 C 58.647,35.58022443952512 58.31305524206427,35.68909395605001 58.2679005379206,35.73145839173852 C 58.22274583377694,35.773822827427026 58.20408929262506,35.8380755947948 58.2264415575831,35.874242319222446 C 58.24879382254114,35.9104090436501 58.38023858047686,35.93951570700168 58.51854101966249,35.93892379333707 C 58.65684345884812,35.93833187967246 59.013,35.89823914427195 59.309999999999995,35.84982882578037 C 59.607,35.801418507288794 59.97641187926708,35.73556169698509 60.13091528726019,35.703480358438796 C 60.28541869525329,35.6713990198925 60.56613192976087,35.58008168443952 60.75472247505482,35.50055294632106 C 60.94331302034876,35.421024208202596 61.18350753456456,35.28741947261962 61.288488062201026,35.20365353391445 C 61.394738527190086,35.11887428829578 61.52798881686813,34.924023666950085 61.58904355447869,34.76415411848608 C 61.68384657443423,34.51591595407052 61.68882708966103,34.43985797234245 61.6257583720624,34.20347820489721 C 61.58562652861721,34.05306519220374 61.47092576853952,33.80225970470207 61.370867794111994,33.646132677115695 C 61.27080981968445,33.49000564952933 61.0226817582889,33.232173140612865 60.81947210212187,33.07317154619022 C 60.616262445954845,32.914169951767576 60.3015,32.68722225613759 60.12,32.56884333367913 C 59.9385,32.45046441122068 59.43899999999999,32.15123617416153 59.01,31.9038916957699 C 58.580999999999996,31.65654721737827 58.0545,31.37263192670864 57.839999999999996,31.27296882761515 C 57.625499999999995,31.173305728521665 57.220499999999994,30.997279853885313 56.94,30.881800217312136 C 56.6595,30.76632058073897 56.187,30.586509376734245 55.89,30.48221976396831 C 55.592999999999996,30.377930151202378 55.039500000000004,30.20291759894833 54.66,30.093302981181537 C 54.280499999999996,29.983688363414746 53.7675,29.848639361773838 53.519999999999996,29.79319408864618 C 53.2725,29.73774881551853 52.907999999999994,29.655025372031623 52.71,29.609364214230833 C 52.512,29.563703056430043 52.0665,29.48574772100933 51.72,29.43613013551813 C 51.3735,29.38651255002693 50.847,29.31630420160112 50.55,29.280111583460776 C 50.25299999999999,29.24391896532043 49.375499999999995,29.188328294580348 48.6,29.156576759593925 C 47.8245,29.124825224607505 46.555499999999995,29.113941733123706 45.78,29.132391222963253 C 45.0045,29.150840712802808 43.9245,29.204767670721356 43.379999999999995,29.252228907226694 C 42.835499999999996,29.299690143732036 42.092999999999996,29.367617381729154 41.73,29.40317832499807 C 41.367000000000004,29.438739268266986 40.8,29.508139006809444 40.47,29.55739996620353 C 40.14,29.606660925597613 39.640499999999996,29.687200692990867 39.36,29.736377227077426 C 39.0795,29.785553761163982 38.687999999999995,29.854133305734567 38.49,29.888776215012054 C 38.292,29.923419124289545 37.82442696784804,30.017810223267087 37.450948817440086,30.098534212739928 C 37.07747066703214,30.179258202212765 36.34847066703214,30.352854051773893 35.83094881744008,30.484302767320205 C 35.31342696784804,30.615751482866518 34.8225,30.746426478598586 34.74,30.774691646724797 C 34.6575,30.802956814851008 34.4685,30.860078842593683 34.32,30.901629486152963 C 34.171499999999995,30.94318012971224 33.6855,31.098498412712082 33.24,31.246781226152613 C 32.7945,31.395064039593144 32.3918207873125,31.530787760757587 32.34515730513889,31.548389495406933 C 32.294253369285,31.567590753645103 32.27642424253681,31.55432671677347 32.300586696059895,31.51523104572151 C 32.325708899877796,31.47458246607186 32.18834104410892,31.39964076656408 31.935429390921016,31.316017708062443 C 31.712443225914456,31.242289254326288 31.232999999999997,31.046099951371513 30.869999999999997,30.88004147927406 C 30.506999999999998,30.713983007176605 30.1155,30.523562610539095 30,30.45688504230182 C 29.8845,30.390207474064542 29.650849511139167,30.234199832780973 29.480776691420374,30.110201395005006 C 29.310703871701584,29.986202957229036 29.1139656182966,29.803875132305606 29.043580572742634,29.705028450730715 C 28.973195527188672,29.606181769155828 28.887235913479834,29.443919671724107 28.852559208945216,29.344446011993558 C 28.807562140247267,29.215367336248473 28.808995806795625,29.104544223377744 28.857566586585016,28.95737331506976 C 28.894997348821523,28.84395699149222 29.052968058278893,28.632044974214498 29.208612607601392,28.48645772111927 C 29.364257156923895,28.340870468024036 29.666983489019287,28.1236750995347 29.881337790035605,28.003801346698523 C 30.095692091051923,27.88392759386235 30.689229530688152,27.619405804318212 31.200309878116112,27.41597514771156 C 31.711390225544076,27.212544491104904 32.480648826915754,26.942825419609427 32.90977343671984,26.816599433277176 C 33.33889804652393,26.69037344694492 33.9735,26.51575896251165 34.32,26.428567245647695 C 34.6665,26.341375528783736 35.125499999999995,26.231197629966694 35.339999999999996,26.183727470498713 C 35.554500000000004,26.13625731103073 35.9325,26.0576809932362 36.18,26.009113430955313 C 36.4275,25.960545868674423 36.832499999999996,25.88057602259395 37.08,25.83140266188759 C 37.3275,25.78222930118123 37.7865,25.702435483040922 38.1,25.654083066020238 C 38.4135,25.605730648999554 38.967,25.525134435507002 39.33,25.474980369370122 C 39.693,25.424826303233246 40.3545,25.343917628668308 40.8,25.29518331478137 C 41.24549999999999,25.246449000894433 42.177,25.1743147005257 42.87,25.134884869517514 C 43.64007426413919,25.091069720745857 44.73657472058957,25.07748091676046 45.69,25.09993693400743 C 46.547999999999995,25.120145400485068 47.5875,25.162576458078806 48,25.19422817310463 C 48.4125,25.225879888130454 49.006499999999996,25.29216389038572 49.32,25.341525955894113 C 49.6335,25.3908880214025 50.132999999999996,25.462453680054562 50.43,25.500560752898693 C 50.727000000000004,25.53866782574282 51.09475565957855,25.596485634546532 51.247234799063456,25.62904477246251 C 51.39971393854835,25.66160391037848 51.669713938548355,25.710495329318185 51.84723479906345,25.737692370106306 C 52.02475565957855,25.76488941089442 52.509221985873516,25.85605426908891 52.92382663527448,25.940280943871837 C 53.33843128467544,26.024507618654766 53.89193128467544,26.152156003394772 54.15382663527448,26.22394402107185 C 54.41572198587351,26.29573203874893 54.859500000000004,26.416849615737682 55.14,26.49309419215797 C 55.4205,26.569338768578255 55.974,26.74068224652209 56.37,26.873857476477603 C 56.766,27.007032706433115 57.265499999999996,27.182011147456503 57.48,27.262698456529574 C 57.6945,27.34338576560264 58.12649999999999,27.522525983578994 58.44,27.660787829810356 C 58.7535,27.79904967604171 59.172,27.97982835775779 59.37,28.062518233623855 C 59.568,28.14520810948992 59.851499999999994,28.282925747035787 60,28.368557428170227 C 60.1485,28.454189109304668 60.370944984173484,28.6040685555658 60.494322187052184,28.701622864306074 C 60.61769938993089,28.79917717304635 60.75903620818138,28.94064006542297 60.80840400538661,29.015984847365228 C 60.89107015892646,29.14214934456921 60.88662573651157,29.166687375243264 60.75216505860877,29.326484811654446 C 60.67186584067572,29.421915010071253 60.44952902242523,29.582936430332644 60.25808324027434,29.684310190013086 C 60.06663745812345,29.78568394969353 59.62649999999999,29.95181108394787 59.28,30.053481599467172 C 58.9335,30.15515211498648 58.542,30.260169799887738 58.41,30.28685423258109 C 58.22837407012247,30.323570784862785 58.169999999999995,30.36390518990228 58.169999999999995,30.452685691466318 C 58.169999999999995,30.540391282491594 58.21770018204743,30.574632246442917 58.35899548324701,30.588353675340866 C 58.462942999032855,30.598448196778342 58.8362491634342,30.563905127348537 59.18856473747222,30.511591298830183 C 59.540880311510236,30.459277470311825 59.982332344049084,30.380116833410213 60.169569254225216,30.335678772382153 C 60.35680616440134,30.291240711354092 60.6585,30.18741504326895 60.839999999999996,30.104955065526276 C 61.021499999999996,30.022495087783604 61.254645294582424,29.863896570781826 61.358100654627606,29.752513916633436 C 61.46155601467279,29.641131262485047 61.58110096743954,29.45048956604575 61.623756105220394,29.328865702323892 C 61.68666520087529,29.149491125781527 61.68695514242456,29.05884636214763 61.6252914608005,28.84886570232389 C 61.583480768588714,28.70648956604575 61.468893478204286,28.463343105579526 61.370653037723976,28.30854023462117 C 61.27241259724367,28.15373736366281 61.0115763926502,27.882022523382975 60.791017027516254,27.704729478443756 C 60.57045766238232,27.527436433504537 60.201,27.260860810564168 59.97,27.112339205242947 C 59.739,26.963817599921722 59.4015,26.760448412515405 59.22,26.660407677673362 C 59.0385,26.56036694283132 58.6335,26.33558662136894 58.32,26.160895852201413 C 58.006499999999996,25.986205083033884 57.3585,25.687980291626193 56.879999999999995,25.498174093517658 C 56.4015,25.308367895409123 55.659,25.043266002537205 55.23,24.90905877602451 C 54.801,24.774851549511816 54.126,24.585507929754325 53.73,24.488295176563415 C 53.333999999999996,24.391082423372506 52.8615,24.281574006345238 52.68,24.24494313872504 C 52.4985,24.20831227110484 52.08,24.13679116605548 51.75,24.086007349726458 C 51.419999999999995,24.035223533397435 50.772,23.95261014572927 50.309999999999995,23.902422043797202 C 49.84443735588246,23.85184692379994 48.600770423844274,23.796162501114043 47.519999999999996,23.777501508168704 C 46.29917326954585,23.756422249797218 45.11005993767108,23.77079513615004 44.339999999999996,23.81593836475488 C 43.6635,23.855596828540882 42.7725,23.927205798989284 42.36,23.97506941019577 C 41.9475,24.022933021402256 41.47764915604514,24.074678496028945 41.315887013433645,24.09005935381063 C 41.154124870822145,24.10544021159232 40.87062487082215,24.14452647169921 40.68588701343364,24.17691770960372 C 40.50114915604514,24.20930894750823 40.237126692360675,24.248525494802493 40.09917042746815,24.264065592479856 C 39.961214162575644,24.279605690157222 39.67771416257565,24.322056029011776 39.46917042746816,24.35839967882331 C 39.26062669236067,24.39474332863485 38.873999999999995,24.46555164632005 38.61,24.515751495901537 C 38.346,24.565951345483025 37.941,24.646290751409097 37.71,24.69428350907058 C 37.479,24.742276266732063 36.790499999999994,24.901653371159554 36.18,25.04845485224278 C 35.5695,25.195256333326007 34.665,25.44051602246767 34.17,25.593476383668705 C 33.675,25.746436744869737 33.1755,25.898488376227714 33.06,25.931368897797544 C 32.944500000000005,25.96424941936737 32.824349999999995,26.015642539823308 32.793,26.04557583214407 C 32.76165,26.075509124464833 32.69823048630842,26.099999999999998 32.65206774735204,26.099999999999998 C 32.60590500839567,26.099999999999994 32.47570890496474,26.14385928855659 32.3627430730611,26.197465085681316 C 32.16348251720718,26.292020410526586 32.14171664316886,26.289125166490972 31.633675325709053,26.10048625343403 C 31.345653896569072,25.9935420985733 30.815076421752785,25.760105640332483 30.45461427056175,25.581738568454444 C 30.094152119370708,25.4033714965764 29.675652119370707,25.159651856254737 29.524614270561745,25.04013936773963 C 29.373576421752787,24.920626879224518 29.186954236487296,24.75245404890874 29.10989830330511,24.6664219670379 C 29.032842370122918,24.580389885167055 28.931931567024893,24.42392901549011 28.885652074198386,24.31873114553358 C 28.83370863658501,24.2006585682123 28.81666178763174,24.051691061841257 28.841107031762846,23.929464841185755 C 28.86618996904887,23.80405015475563 28.992385243943644,23.620334321601852 29.185353260869565,23.428309129586232 C 29.3529089673913,23.261572085641273 29.665499999999998,23.027974594535 29.88,22.90920359379452 C 30.094499999999996,22.79043259305404 30.5265,22.58479300196651 30.84,22.452226724711124 C 31.1535,22.31966044745574 31.6935,22.112623724831668 32.04,21.992145118879847 C 32.3865,21.871666512928027 32.858999999999995,21.721132507266375 33.089999999999996,21.657625106298397 C 33.321,21.594117705330426 33.833999999999996,21.45979715929866 34.23,21.35913500400559 C 34.626,21.258472848712522 35.0445,21.15121268879606 35.16,21.120779093080117 C 35.275499999999994,21.090345497364176 35.775,20.986157923402626 36.269999999999996,20.88925115094334 C 36.765,20.792344378484056 37.413,20.671375219984697 37.71,20.620430798722545 C 38.007,20.569486377460393 38.5335,20.486381107981416 38.879999999999995,20.435752422102592 C 39.226499999999994,20.38512373622377 39.861,20.302930640468958 40.29,20.25310109820301 C 40.718999999999994,20.203271555937064 41.5695,20.121083987513718 42.18,20.07046205726224 C 42.82986565998511,20.016575973539727 43.98641954164416,19.978251107249562 44.97,19.978009488778213 C 46.00235528648917,19.97775588867454 47.05477794594426,20.013541341113427 47.699999999999996,20.07083748357713 C 48.277499999999996,20.12211986313127 49.0335,20.206460074744964 49.379999999999995,20.258260176052 C 49.726499999999994,20.310060277359042 50.117999999999995,20.363187439054354 50.25,20.376320535374923 C 50.382,20.38945363169549 50.6385,20.425914636332813 50.82,20.45734499012453 C 51.0015,20.488775343916245 51.406499999999994,20.557965269198146 51.72,20.611100379639865 C 52.0335,20.664235490081584 52.479,20.747788291832812 52.71,20.796773272420374 C 52.941,20.845758253007933 53.427,20.954144112061886 53.79,21.037630736984717 C 54.153,21.12111736190755 54.57149999999999,21.224843625547265 54.72,21.268133545072974 C 54.8685,21.311423464598683 55.152,21.393351046176985 55.35,21.450194837469198 C 55.547999999999995,21.507038628761407 55.9935,21.648051921517464 56.339999999999996,21.763557710260436 C 56.686499999999995,21.879063499003404 57.3075,22.10394353161497 57.72,22.263291116063915 C 58.1325,22.422638700512856 58.577999999999996,22.60499796479089 58.71,22.66853392557065 C 58.842,22.73206988635041 59.2065,22.89684431119114 59.519999999999996,23.034699314105595 C 59.8335,23.17255431702005 60.235649459887206,23.398892199811296 60.413665466416006,23.53767238697503 C 60.591681472944806,23.676452574138764 60.77500339587532,23.847404509364775 60.821047517372705,23.91756557636617 C 60.89605441869737,24.031859520050293 60.88926163415548,24.0635547888793 60.755755966892295,24.22221725963072 C 60.673801492630695,24.31961461842484 60.40947956970018,24.49747450219933 60.168373915935604,24.617461445796266 C 59.92726826217101,24.737448389393204 59.3925,24.92711082888429 58.98,25.038933533554243 C 58.32662517559348,25.216053873017003 58.22746069401758,25.259378985716676 58.21029002819279,25.37522098995649 C 58.19103675288396,25.505113332088914 58.200768503451506,25.50729901902587 58.63029002819278,25.469550217483256 C 58.87213051268675,25.44829589627169 59.312999999999995,25.38948076011683 59.61,25.338849914916896 C 59.907000000000004,25.28821906971696 60.3151753947967,25.194578666776795 60.51705643288155,25.13076013060542 C 60.71893747096641,25.06694159443404 60.99004002350147,24.946041984540255 61.11950654962613,24.862094330841447 C 61.24897307575079,24.778146677142637 61.413253487048664,24.624083230735618 61.48457413028809,24.519731116603623 C 61.55589477352749,24.41537900247163 61.632112114862885,24.217632193569415 61.65394599992226,24.080293763487596 C 61.68514384063865,23.88405464002062 61.66197802253481,23.761419980633516 61.545755208892906,23.507555915541367 C 61.464416388767376,23.32988852925276 61.30961800894288,23.084014888095165 61.20175880928289,22.961170046302268 C 61.09389960962291,22.83832520450937 60.786129659491536,22.580383078389147 60.51782558676873,22.387965321590663 C 60.249521514045924,22.195547564792175 59.719500000000004,21.854606033475147 59.339999999999996,21.630317474219485 C 58.960499999999996,21.40602891496382 58.392572732051434,21.093732530164488 58.077939404558755,20.936325507998745 C 57.76330607706607,20.778918485833 57.27730607706607,20.556173507677975 56.99793940455876,20.441336667654237 C 56.718572732051435,20.326499827630503 56.112,20.105595978781277 55.65,19.950439225767067 C 55.187999999999995,19.795282472752856 54.6615,19.627760221265266 54.48,19.578167555794646 C 54.2985,19.528574890324023 53.98799999999999,19.44813695963968 53.79,19.39941659871833 C 53.592,19.350696237796974 53.376,19.300143245269265 53.309999999999995,19.287076615323418 C 53.244,19.274009985377567 53.0145,19.22436861322179 52.8,19.176762454977247 C 52.585499999999996,19.1291562967327 52.14,19.047997668802072 51.809999999999995,18.99640994846474 C 51.48,18.944822228127414 50.845499999999994,18.856439130896064 50.4,18.800003065728404 C 49.748219275900475,18.717435300475202 49.07432236002808,18.69693001973031 46.949999999999996,18.695026745309573 C 45.29674361863004,18.693545519747584 43.97361013001249,18.72130661364962 43.41,18.769300636234874 C 42.915,18.81145218730649 42.186,18.8889571676811 41.79,18.94153392595623 C 41.394,18.994110684231355 41.0295,19.03590944496546 40.98,19.034420060920894 C 40.930499999999995,19.03293067687633 40.647,19.070115797621444 40.35,19.117053662576698 C 40.053,19.163991527531955 39.6345,19.233220505674684 39.42,19.270895836227204 C 39.205499999999994,19.30857116677973 38.9698440631839,19.34608951076032 38.896320140408676,19.354269933961852 C 38.822796217633446,19.362450357163382 38.55279621763345,19.4142962854161 38.296320140408675,19.46948310785678 C 38.0398440631839,19.524669930297456 37.668,19.607008476497754 37.47,19.652457654968547 C 37.272,19.697906833439344 36.94799999999999,19.764941145157557 36.75,19.801422792120135 C 36.552,19.837904439082717 36.2685,19.90328684488751 36.12,19.946717027241906 C 35.9715,19.9901472095963 35.6745,20.071548064470306 35.46,20.127607815850805 C 35.24549999999999,20.183667567231307 34.962,20.258282795058456 34.83,20.29341943324447 C 34.69799999999999,20.328556071430487 34.428,20.40721562146453 34.23,20.468218433320125 C 34.032000000000004,20.529221245175723 33.627,20.657685653288148 33.33,20.753694895792183 C 33.032999999999994,20.84970413829622 32.71853561762125,20.960963988262048 32.63119026138055,21.000939006827352 C 32.49787796737302,21.061951539803346 32.411179127552984,21.052695164175677 32.091190261380554,20.943286068802838 C 31.881535617621253,20.871601934324048 31.547999999999995,20.748603525603198 31.349999999999998,20.669956271645397 C 31.152,20.591309017687593 30.76416822783362,20.416308238237974 30.48815161740805,20.28106565064624 C 30.21213500698248,20.145823063054507 29.832124693298383,19.93046938826732 29.643684253665615,19.80250192889693 C 29.455243814032844,19.67453446952654 29.21818377506691,19.475437010352458 29.116884167074637,19.3600631307323 C 29.01558455908237,19.24468925111214 28.90075096652892,19.05347664139822 28.861698405844756,18.935146220256915 C 28.8092218522642,18.77614070111951 28.807808726764573,18.66814111120129 28.85628293001473,18.521262832681483 C 28.89235697899238,18.411957390656294 29.022700885229924,18.22573681940606 29.145936054987047,18.10743934101429 C 29.26917122474417,17.98914186262252 29.52084896846197,17.797059220532887 29.705219929915486,17.68058902525955 C 29.889590891369007,17.56411882998621 30.335090891369006,17.34244509151376 30.69521992991549,17.187980717542988 C 31.05534896846197,17.033516343572217 31.647000000000002,16.804720036920944 32.01,16.679544480540162 C 32.373,16.554368924159377 32.94,16.379246322852193 33.269999999999996,16.290383144301973 C 33.6,16.20151996575176 33.991499999999995,16.093566250688344 34.14,16.050485999716606 C 34.2885,16.007405748744873 34.707,15.90350750864195 35.07,15.81960102171011 C 35.43299999999999,15.73569453477827 35.9325,15.62598664205569 36.18,15.575805704548813 C 36.4275,15.52562476704194 36.846,15.44505866112961 37.11,15.396769913632518 C 37.373999999999995,15.34848116613543 37.8465,15.267350765334378 38.16,15.216480134074622 C 38.4735,15.165609502814867 39.027,15.083525323401155 39.39,15.034070846488595 C 39.75299999999999,14.984616369576033 40.347,14.916849174890727 40.71,14.883477080521244 C 41.07299999999999,14.850104986151761 41.775,14.788420422610605 42.269999999999996,14.746400272652002 C 42.765,14.7043801226934 43.9935,14.67 45,14.67 C 46.010158664234616,14.67 47.19288059124041,14.704039048820043 47.64,14.745979895893544 C 48.085499999999996,14.787768838634996 48.7335,14.849947631579292 49.08,14.884154991325317 C 49.4265,14.918362351071343 49.952999999999996,14.98586722489206 50.25,15.03416582203802 C 50.547000000000004,15.08246441918398 51.032999999999994,15.16416419078864 51.33,15.215720870048376 C 51.627,15.267277549308112 52.086,15.34947094778872 52.35,15.398372866671954 C 52.614,15.447274785555184 53.0055,15.527473374774516 53.22,15.576591953826027 C 53.4345,15.625710532877536 53.772,15.706820802868243 53.97,15.75683699824983 C 54.16799999999999,15.806853193631415 54.41291694505438,15.873026039863126 54.51425987789861,15.903887767653629 C 54.61560281074284,15.93474949544413 54.736513445295984,15.959999999999999 54.78295017690558,15.959999999999999 C 54.82938690851517,15.959999999999999 55.259469963460795,16.082907863340502 55.73869029900696,16.233128585201115 C 56.217910634553135,16.383349307061728 56.71125,16.545349307061727 56.835,16.593128585201114 C 56.958749999999995,16.6409078633405 57.161249999999995,16.71714488242106 57.285,16.762544183157914 C 57.40875,16.807943483894768 57.820499999999996,16.97530772969485 58.199999999999996,17.134464729380323 C 58.5795,17.293621729065794 59.196717707872814,17.566785539412006 59.571594906384036,17.741495419038564 C 59.946472104895264,17.916205298665123 60.351472104895265,18.145377493697424 60.471594906384034,18.25076696355478 C 60.59171770787282,18.356156433412142 60.737420639497174,18.502573364512187 60.79537919888261,18.576137921554878 C 60.89713190246906,18.705288691460225 60.89568938882702,18.715915836477528 60.753462439156806,18.884942962476995 C 60.67244966192217,18.981221177941467 60.44493167904261,19.14593151752465 60.247866921646676,19.25096593932852 C 60.05080216425073,19.35600036113238 59.73216470612735,19.4913141543736 59.53978368137248,19.551663257642343 C 59.34740265661761,19.612012360911077 58.9875,19.710947152766067 58.739999999999995,19.77151835065343 C 58.4925,19.832089548540793 58.253055242064235,19.914686089702283 58.20790053792053,19.955066219901187 C 58.16274583377682,19.995446350100092 58.14408929262494,20.058075594794605 58.16644155758302,20.094242319222328 C 58.1887938225411,20.130409043650047 58.33373858047687,20.159465168846847 58.48854101966249,20.158811486326325 C 58.64334345884812,20.1581578038058 58.958999999999996,20.130514198811984 59.19,20.09738125300673 C 59.421,20.064248307201474 59.78549999999999,19.995766277723995 60,19.945198965278994 C 60.2145,19.894631652833993 60.56185940501124,19.782915744160174 60.77190978891387,19.696941390448277 C 60.98196017281649,19.610967036736383 61.22765572865566,19.478495358872337 61.3178999130009,19.402559884083733 C 61.408144097346145,19.32662440929513 61.53004482122902,19.138640096375536 61.588790410518385,18.984816966484633 C 61.68242741096819,18.73963198056453 61.686268104383835,18.666236454786798 61.61993138415282,18.389713977055184 C 61.574604482350956,18.200770249501232 61.45719566048937,17.965348556604447 61.32713109772147,17.802606994637838 C 61.20770899397466,17.653181668603597 60.961499999999994,17.41169729233171 60.78,17.265975047366975 C 60.5985,17.120252802402245 60.260999999999996,16.878641978260493 60.03,16.729062104829755 C 59.799,16.579482231399012 59.528999999999996,16.411869694389793 59.43,16.356589800364816 C 59.330999999999996,16.301309906339842 59.114999999999995,16.175375737078262 58.949999999999996,16.076736090894634 C 58.785,15.97809644471101 58.4205,15.779756339566372 58.14,15.635980301684336 C 57.8595,15.492204263802298 57.387,15.273679444747897 57.089999999999996,15.150369592674556 C 56.79299999999999,15.027059740601215 56.22047992553308,14.808843724239782 55.817733167851294,14.665445111871371 C 55.41498641016951,14.522046499502956 54.61325516140477,14.282187293779327 54.03610817059633,14.132424654707746 C 53.458961179787885,13.98266201563617 52.8974812542548,13.848237857088654 52.78837500274503,13.833704302379937 C 52.679268751235256,13.819170747671217 52.455,13.780481817341789 52.29,13.747728901647873 C 52.125,13.714975985953954 51.7065,13.647277608005751 51.36,13.597288061762976 C 51.0135,13.547298515520199 50.338499999999996,13.47120843270603 49.86,13.4281989888426 C 49.34595479510328,13.38199460350661 48.13079877044035,13.35 46.89,13.35 C 45.725369212741455,13.35 44.335677810954145,13.384843129494751 43.769999999999996,13.428226406153058 C 43.208999999999996,13.471250929537241 42.4125,13.545590243614692 42,13.593424881880726 C 41.5875,13.64125952014676 41.007,13.70877550815182 40.71,13.743460410780859 C 40.413,13.778145313409896 39.94049999999999,13.846953232754077 39.66,13.89636689821237 C 39.3795,13.945780563670663 38.934,14.026956355601849 38.67,14.076757546948341 C 38.406,14.126558738294834 38.0415,14.19457812911133 37.86,14.227911748762777 C 37.6785,14.261245368414224 37.33658053031185,14.340601705709101 37.100178956248556,14.404259164973613 C 36.86377738218526,14.467916624238125 36.623150468085235,14.52 36.565452480470725,14.52 C 36.50775449285621,14.52 36.30967396254435,14.563002122209904 36.125273524222166,14.615560271577566 C 35.94087308589997,14.668118420945227 35.695499999999996,14.735724091595953 35.58,14.765795095245844 C 35.4645,14.795866098895736 35.127,14.890623638301747 34.83,14.97636740503698 C 34.532999999999994,15.062111171772214 34.195499999999996,15.155544005860179 34.08,15.183995925232459 C 33.9645,15.212447844604739 33.5325,15.35538145653532 33.12,15.501626173967082 C 32.707499999999996,15.647870891398846 32.29387625342414,15.797376510967826 32.20083611872031,15.83386088412038 C 32.10779598401649,15.870345257272932 31.959295984016485,15.88259219408487 31.870836118720312,15.861076299258018 C 31.782376253424143,15.839560404431168 31.406465286757616,15.693945099787811 31.035478415016925,15.537486733383885 C 30.664491543276235,15.381028366979962 30.16499154327623,15.13087575021314 29.925478415016922,14.981592029457612 C 29.685965286757618,14.832308308702085 29.351746094394652,14.575498023971418 29.18276909865478,14.41090250783391 C 28.970840125932977,14.204468735610044 28.863162932705652,14.045672101441488 28.83564326807188,13.898979677405414 C 28.810644802698896,13.765726400828578 28.827201645622438,13.611043062559004 28.87998493753343,13.484714863247808 C 28.926315066818006,13.373831256059287 29.10811233750418,13.157236129763362 29.283978872391597,13.003392360367972 C 29.45984540727901,12.849548590972582 29.80764556162666,12.62405888701569 30.056868104275267,12.502304129352657 C 30.30609064692387,12.380549371689623 30.655122320318025,12.216571247194501 30.832494045151165,12.137908297141275 C 31.009865769984305,12.05924534708805 31.387865769984312,11.91342819899187 31.67249404515117,11.813870190260875 C 31.95712232031802,11.714312181529884 32.3385,11.583870781940988 32.519999999999996,11.52400041339666 C 32.701499999999996,11.464130044852334 32.9715,11.381573927551937 33.12,11.34054237495133 C 33.2685,11.299510822350724 33.5115,11.230746154277702 33.66,11.187732001455725 C 33.8085,11.144717848633745 34.0785,11.068521813478647 34.26,11.018407478888838 C 34.4415,10.968293144299027 34.7925,10.88558505238244 35.04,10.834611719074202 C 35.2875,10.783638385765961 35.5845,10.715683273444052 35.699999999999996,10.68360035835885 C 35.81549999999999,10.651517443273647 35.9775,10.613374494593579 36.059999999999995,10.598838250180922 C 36.1425,10.584302005768263 36.5745,10.504814464297633 37.019999999999996,10.422199269135078 C 37.4655,10.33958407397252 38.127,10.22758566730419 38.49,10.173313920983231 C 38.852999999999994,10.119042174662273 39.3255,10.048231627372255 39.54,10.015957149227635 C 39.7545,9.983682671083015 40.2135,9.929689517625036 40.559999999999995,9.895972363765459 C 40.906499999999994,9.86225520990588 41.568,9.808858662753261 42.03,9.777313370092969 C 42.492000000000004,9.745768077432674 43.49590828796916,9.702391477227954 44.26090730659813,9.680920925193588 C 45.109267300673736,9.657110754261183 46.12734268137409,9.669502733393722 46.87090730659813,9.712689757000199 C 47.541408287969155,9.751633166528203 48.36,9.811060799772205 48.69,9.844751164209097 C 49.019999999999996,9.878441528645988 49.5735,9.946910968619362 49.92,9.996905475261038 C 50.26649999999999,10.046899981902714 50.79299999999999,10.128487855836115 51.089999999999996,10.178211861779705 C 51.387,10.227935867723296 51.846,10.309136263004707 52.11,10.358657184627289 C 52.373999999999995,10.408178106249867 52.711499999999994,10.4770391823125 52.86,10.51168179809981 C 53.0085,10.546324413887117 53.184,10.582686087762417 53.25,10.5924855178227 C 53.316,10.602284947882985 53.5995,10.668833805634877 53.879999999999995,10.74037186838246 C 54.16049999999999,10.811909931130048 54.457499999999996,10.88392185786934 54.54,10.900398372247562 C 54.622499999999995,10.916874886625786 54.824999999999996,10.969858597120977 54.989999999999995,11.01813995112577 C 55.155,11.06642130513056 55.5195,11.175574370356276 55.8,11.260702318294022 C 56.080499999999994,11.345830266231772 56.5665,11.509143449514733 56.879999999999995,11.62362050336727 C 57.1935,11.738097557219808 57.882,12.00778929375407 58.41,12.222935473443409 C 58.937999999999995,12.438081653132746 59.49914856167317,12.679345692073257 59.65699680371815,12.759077782200096 C 59.814845045763136,12.838809872326934 60.08790893492478,12.996106741193193 60.26380544629959,13.108626379680667 C 60.43970195767441,13.221146018168142 60.65587531893174,13.39908133457466 60.74419069353811,13.504038193917374 C 60.88867410657497,13.675746974263424 60.8963724266592,13.707651346872366 60.82101765766656,13.82243442363388 C 60.77495711333083,13.892595490635246 60.63213519040033,14.022372170014677 60.50363560670989,14.11082704447706 C 60.37513602301945,14.199281918939445 60.080999999999996,14.347692172130472 59.849999999999994,14.44062760712379 C 59.619,14.533563042117109 59.16021191370791,14.677190872102432 58.83047091935093,14.75980056264673 C 58.38086178345703,14.872440702082573 58.22597299775583,14.936256598232482 58.21107146955834,15.014999999999999 C 58.19415587000856,15.104386258498756 58.2386965332215,15.119925887622491 58.510600550207414,15.119501605708171 C 58.686270247593335,15.119227488847665 59.1135,15.079904787884203 59.46,15.032117825789369 C 59.8065,14.984330863694534 60.271546999857314,14.888990405672725 60.4934377774607,14.82025014129646 C 60.71532855506409,14.751509876920196 61.012328555064094,14.608194366819724 61.1534377774607,14.501771229962078 C 61.29454699985731,14.395348093104431 61.47243495635411,14.187162828557565 61.54874434745357,14.039137308746815 C 61.64478156368472,13.852843608207875 61.679210253241116,13.70335960985486 61.660594193824814,13.55350272706017 C 61.64580221822954,13.434429226943262 61.58418607353519,13.232663247039781 61.52366942783739,13.105133882830213 C 61.46315278213959,12.977604518620643 61.257884284313974,12.719906914735692 61.067517210447136,12.532472540863655 C 60.877150136580305,12.345038166991618 60.47733993546132,12.027054146895098 60.1790500968494,11.82584138509361 C 59.88076025823747,11.624628623292125 59.624351938639556,11.459999999999999 59.609253831076245,11.459999999999999 C 59.594155723512934,11.459999999999999 59.45314711297214,11.382611762424823 59.29590136320784,11.288026138721825 C 59.138655613443525,11.19344051501883 58.829689254750804,11.020329468379506 58.6093094550018,10.903334923967773 C 58.38892965525279,10.786340379556037 57.98392965525279,10.590246363943155 57.709309455001794,10.467570444828034 C 57.4346892547508,10.344894525712911 57.102000000000004,10.197092486040463 56.97,10.139121467778146 C 56.837999999999994,10.081150449515832 56.44649999999999,9.934083453279499 56.1,9.812305920586295 C 55.7535,9.690528387893094 55.362,9.553527372168064 55.23,9.507859218975115 C 55.09799999999999,9.462191065782166 54.801,9.371010753307488 54.57,9.305236302364717 C 54.339,9.239461851421945 53.88369281077679,9.116849624273371 53.55820624617066,9.032764686478998 C 53.232719681564525,8.948679748684626 52.90871968156453,8.869744617439066 52.83820624617066,8.857353283711088 C 52.76769281077679,8.844961949983112 52.5075,8.802502193846166 52.26,8.762998270073432 C 52.012499999999996,8.723494346300697 51.5681070962555,8.650269799320984 51.27246021390113,8.60027705456296 C 50.97681333154675,8.550284309804935 50.20731333154675,8.47186194283703 49.56246021390113,8.426005127967613 C 48.90887544833177,8.37952738788068 47.63323486108318,8.34636313366779 46.68,8.35106658787417" stroke="#aa7a22" stroke-width="0.3" style="fill: rgb(255,255,255);" /><path d=" M 24.06765331707347 53.64701417289629 C 23.947943992683058,53.65087196798926 23.708468633412593,53.677618420371736 23.535485852027982,53.70645073374624 C 23.362503070643374,53.735283047120745 23.030240042662626,53.82551078955581 22.79712356762633,53.90695682804637 C 22.564007092590025,53.98840286653693 22.226431217035096,54.13905628306354 22.04695495528204,54.2417421981055 C 21.86747869352898,54.34442811314745 21.570072224570524,54.55109102034769 21.386051690929907,54.700993102994914 C 21.202031157289287,54.85089518564214 20.905494262395276,55.150514204855405 20.727080813387655,55.36681314569107 C 20.548667364380034,55.58311208652673 20.294909482535406,55.978315059088104 20.163174409288477,56.245041973605225 C 20.03143933604155,56.511768888122354 19.865894401863237,56.97299999999999 19.795296777781108,57.269999999999996 C 19.687105516207424,57.72515419399956 19.671133568361167,57.937268709000655 19.693643528863507,58.62 C 19.716817510721327,59.322871182281304 19.74408856871369,59.498212383693165 19.899839746129885,59.945753202248106 C 19.99855932844895,60.22941746348457 20.182494235949207,60.64598148347795 20.308583985019347,60.87145102445561 C 20.43467373408949,61.09692056543328 20.754504561081244,61.507080503599774 21.01931915611213,61.782917553714505 C 21.291175372424174,62.06608932056564 21.685660446049717,62.398442250425404 21.925400118993235,62.54628905453216 C 22.158930053546957,62.69030632986716 22.54156900438275,62.876218838852395 22.77570889862834,62.95942796338824 C 23.009848792873928,63.04263708792408 23.425912512632372,63.143542749241014 23.700294942535994,63.18366276631476 C 23.992525560209593,63.22639253357665 24.412668547442404,63.241176917589684 24.71458604390765,63.21935458933542 C 24.99806371975844,63.19886507492302 25.432499999999997,63.126113052335604 25.68,63.05768342803004 C 25.9275,62.98925380372449 26.319,62.840328543536145 26.55,62.72673840538929 C 26.781,62.613148267242444 27.124370458404012,62.39895894720434 27.31304546312003,62.250762138637974 C 27.501720467836044,62.1025653300716 27.81879135963888,61.785267881737255 28.01764744490411,61.545656697895 C 28.216503530169337,61.30604551405275 28.486817743748748,60.894 28.6183456973028,60.629999999999995 C 28.74987365085685,60.366 28.91525588200314,59.934 28.985861766516784,59.669999999999995 C 29.081851897408473,59.31108664978896 29.115015076139727,59.00837002531656 29.11732403604646,58.47 C 29.11938146062924,57.990279359773076 29.086892832816364,57.61326289433652 29.01997147090162,57.340265613448096 C 28.964729196344283,57.11491170084456 28.836103165512842,56.730128641253586 28.73413584683176,56.4851921476904 C 28.632168528150675,56.2402556541272 28.48013287483808,55.985886128075556 28.396278839470444,55.9199265342423 C 28.31242480410281,55.85396694040903 28.210974445936184,55.8 28.170833599100167,55.8 C 28.130692752264146,55.8 27.86411866731085,55.95140725435159 27.578446743648403,56.136460565225754 C 27.228288199400847,56.36328718897354 27.04721366502496,56.52005393557128 27.02273890935201,56.61756912939682 C 27.002771524151445,56.69712552881674 27.00021034960049,56.822468274465145 27.017047410349885,56.896108564171065 C 27.033884471099277,56.96974885387698 27.108412090715905,57.192 27.182664342831284,57.39 C 27.264018400934212,57.606937574894694 27.32880740847585,57.941714122767316 27.345698365900738,58.23242635440739 C 27.361114826473557,58.497760849331456 27.342762196393704,58.86401560315399 27.30491474350105,59.04632580734635 C 27.267067290608402,59.22863601153871 27.15924206165651,59.54031747811948 27.065303123607958,59.73895128863696 C 26.971364185559406,59.93758509915443 26.73008554213294,60.2758686481443 26.529128360438037,60.490692508614444 C 26.316736315800814,60.717740273602445 26.01646707026629,60.959783218034254 25.81198853821328,61.06876914057718 C 25.618518817684574,61.171887427686535 25.301502026193756,61.29759912487413 25.1075067793448,61.348128467660736 C 24.913511532495846,61.39865781044733 24.59063348179069,61.44 24.390000000000008,61.44 C 24.18936651820933,61.44 23.86631050273917,61.398611456514644 23.67209774339966,61.34802545892142 C 23.477884984060147,61.297439461328196 23.183046520245515,61.1826894613282 23.01690115714493,61.09302545892142 C 22.85075579404434,61.00336145651463 22.545583995045583,60.772215109469784 22.338741603814352,60.579366909932865 C 22.08149311618657,60.339522904178956 21.89728374538653,60.09804532994881 21.75574282461759,59.81512169065794 C 21.6419358872906,59.58763501959365 21.51648557410424,59.24591991012386 21.47696435087012,59.055754780725074 C 21.43616216007401,58.85942599184796 21.418584637712993,58.502556805905584 21.43629195971205,58.23 C 21.453853192034753,57.9596918534662 21.523098858771057,57.60307724464101 21.594800358984617,57.41368305965839 C 21.664828570487348,57.228708742470495 21.80888527868209,56.94520874247049 21.914926377195155,56.78368305965839 C 22.02096747570822,56.622157376846275 22.236616253090926,56.36337947637786 22.394145882490054,56.20862105861747 C 22.551675511889187,56.053862640857076 22.859026617136145,55.83938495968212 23.07714833859441,55.73200398933978 C 23.29527006005267,55.62462301899745 23.679893297192763,55.494494703845284 23.93186664335017,55.4428299556683 C 24.39,55.34889404989196 24.39,55.34889404989196 24.406842140129037,54.57781445662996 C 24.418141298993305,54.06050782252574 24.400913281620724,53.77929748852273 24.354495457202503,53.72336743168397 C 24.316196215364865,53.677219668411816 24.1881345835443,53.643131500924405 24.06765331707347,53.64701417289629" stroke="#aa7a22" stroke-width="0.3" style="fill: rgb(255,255,255);" /><path d=" M 35.339999999999996 53.719161765866126 C 34.62686411853489,53.703655482321615 34.3942724945004,53.72096760841473 34.05,53.81517830452193 C 33.818999999999996,53.87839180879082 33.53163526663966,53.97199355938842 33.411411703643694,54.02318219473884 C 33.29118814064774,54.074370830089244 33.025654198836904,54.21422762894989 32.821336277397414,54.33397508109584 C 32.617018355957924,54.45372253324179 32.26286296785089,54.72809100862363 32.034324303826246,54.94368280416659 C 31.805785639801602,55.15927459970957 31.494007635898488,55.52338158981576 31.341484295152675,55.752809448847046 C 31.18896095440686,55.98223730787832 30.988897674467808,56.34996203330962 30.896899228621454,56.56997550536104 C 30.804900782775107,56.78998897741247 30.686962728489043,57.17811172503373 30.63481466354132,57.432470500074956 C 30.582666598593594,57.686829275116196 30.54,58.136704133471255 30.54,58.43219240753066 C 30.54,58.727680681590044 30.57790944533547,59.167568956556316 30.624243211856605,59.40972190745569 C 30.67057697837774,59.65187485835506 30.782414904054846,60.03466486972222 30.87277193558352,60.2603663771605 C 30.963128967112194,60.48606788459878 31.16377539949016,60.86406788459878 31.31865289642346,61.100366377160505 C 31.473530393356757,61.33666486972223 31.79160713372492,61.709805369281675 32.025490097241594,61.929567487292616 C 32.25937306075828,62.14932960530356 32.63506718304484,62.438019913639366 32.86036592454506,62.57110150581664 C 33.085664666045275,62.7041830979939 33.486,62.888704758354706 33.75,62.98114963995175 C 34.20073727635019,63.13898431473802 34.29035436752773,63.14925467611369 35.22,63.149615621427756 C 36.178135049809654,63.1499876280767 36.22691973736868,63.143946170799005 36.73567287552423,62.961915886477655 C 37.02479295706255,62.85846962404037 37.414125690904676,62.68296962404037 37.60085672850673,62.571915886477655 C 37.78758776610877,62.460862148914934 38.11128497212287,62.211654288867635 38.320183852982495,62.018120641928085 C 38.576077089042705,61.78104923686309 38.699999999999996,61.62088284576195 38.699999999999996,61.52722044373392 C 38.699999999999996,61.43891173965993 38.59603746631768,61.29062889642715 38.415,61.120721979099734 C 38.258250000000004,60.97360928561817 38.048107624994245,60.78529311294993 37.94801694443165,60.70224159539252 C 37.84792626386906,60.619190077835114 37.726426263869065,60.54551106735598 37.67801694443165,60.53851046099444 C 37.62960762499424,60.53150985463289 37.544392127671664,60.52898111648851 37.48864917260371,60.53289104289581 C 37.432906217535745,60.536800969303115 37.25740621753574,60.652513019046154 37.09864917260371,60.790028931213676 C 36.93989212767167,60.9275448433812 36.63921603228726,61.120041573490326 36.43048007174948,61.21779944256729 C 36.219625157900424,61.31654968669955 35.85264539199749,61.42411114587453 35.60472415005397,61.459827805197605 C 35.28247973869519,61.50625179762778 35.05007692517909,61.50554453194212 34.768324624990456,61.457282411384895 C 34.55373468260026,61.42052471441818 34.202844608687926,61.308409751235345 33.98856890518527,61.208138048756354 C 33.77429320168262,61.10786634627737 33.446715808432145,60.882765043383976 33.260619142406455,60.70791293121547 C 33.074522476380764,60.53306081904695 32.83578114982932,60.254999999999995 32.73008286118103,60.089999999999996 C 32.62438457253274,59.925 32.4751330486622,59.62799999999999 32.39841280813539,59.43 C 32.28413808253236,59.13507918752558 32.258921461723,58.95611142183022 32.258921461723,58.44 C 32.258921461723,57.92388857816977 32.28413808253236,57.74492081247442 32.39841280813539,57.449999999999996 C 32.4751330486622,57.252 32.62438457253274,56.955 32.73008286118104,56.79 C 32.83578114982933,56.625 33.070234907723446,56.35099418479948 33.25109121205686,56.18109818844329 C 33.43194751639028,56.011202192087104 33.71898503060964,55.8017272267662 33.88895235476656,55.71559826550794 C 34.05891967892348,55.629469304249696 34.35261015279628,55.51872511945021 34.54159785226169,55.469500077064644 C 34.73058555172709,55.42027503467909 35.021289184749506,55.38039908934079 35.187605925644846,55.38088686520175 C 35.35392266654018,55.38137464106272 35.65926723379237,55.42168190469099 35.866149408427496,55.47045856215346 C 36.07303158306262,55.51923521961593 36.380366843044854,55.62910775756975 36.54911665283246,55.71461975760639 C 36.717866462620066,55.80013175764303 36.98339926296883,55.98932449401476 37.13918954249638,56.13504806065469 C 37.29550194195374,56.281260009359364 37.48127055334758,56.4 37.55370661962203,56.4 C 37.630817245793594,56.4 37.9067176629203,56.20941301300464 38.2224843215306,55.9380205347138 C 38.51811794468877,55.683931828806394 38.76,55.43052753993876 38.76,55.37489989278573 C 38.76,55.31927224563269 38.58532518009454,55.11035899208878 38.371833733543426,54.910648218243715 C 38.1583422869923,54.710937444398645 37.800592286992305,54.43940142493047 37.576833733543424,54.30723484164777 C 37.35307518009454,54.17506825836507 36.954,53.99294001733828 36.69,53.90250541714377 C 36.26975071877912,53.75854679695726 36.101701822212846,53.73572405748345 35.339999999999996,53.719161765866126" stroke="#aa7a22" stroke-width="0.3" style="fill: rgb(255,255,255);" /><path d=" M 5.724467499215489 53.772777252320665 C 4.1037816114253305,53.75200553875525 3.9087517254491777,53.75981970312225 3.8194674992154893,53.84910392935594 C 3.737689532886245,53.93088189568518 3.7199999999999998,54.07905689456401 3.7199999999999998,54.68228571428571 C 3.7199999999999998,55.17295238095236 3.74385046728972,55.43985046728971 3.7919999999999985,55.48799999999999 C 3.84452711408264,55.54052711408264 4.3125695500684476,55.559999999999995 5.522562975308192,55.559999999999995 C 7.1430026048051625,55.559999999999995 7.1872042390429955,55.56320896011372 7.445562975308194,55.69960638345363 C 7.5910033388886875,55.77638989435312 7.78722303615243,55.948841759875826 7.8816067470054,56.08283275128187 C 7.986168589191177,56.231273035851096 8.065432602563968,56.43486034598437 8.084489270682516,56.60393060528799 C 8.105240574732909,56.78803563009417 8.081238796954167,56.971814171145915 8.013162728389917,57.15006881228404 C 7.953306805333747,57.30679930964375 7.809762713529437,57.50500822585358 7.668620074445556,57.62582107187178 C 7.516256291142586,57.756238799713714 7.316979480505772,57.856439488246686 7.130386603558725,57.896456497047495 C 6.967036126841473,57.93148890327523 6.167773401845002,57.96 5.3490467338259755,57.96 C 4.274010385294763,57.96 3.844121334185118,57.97987866581489 3.792000000000005,58.03199999999999 C 3.7383893937627612,58.085610606237225 3.7199999999999998,58.71970073712732 3.7199999999999998,60.51465331707347 C 3.7199999999999998,62.50206987584433 3.734675455238209,62.93748618022658 3.803587812626277,62.994678357139726 C 3.8589159398883868,63.04059662437922 4.117550047234219,63.05829418988407 4.568587812626277,63.04702504006626 C 5.25,63.03 5.25,63.03 5.266015886034746,61.444923720829564 C 5.275851485607,60.471504233479635 5.3058419206316225,59.831157967753136 5.343734514839708,59.78550018489948 C 5.387590253531246,59.732657252503 5.73004779046307,59.70520135740419 6.527718628804961,59.69057646406992 C 7.6499999999999995,59.669999999999995 7.6499999999999995,59.669999999999995 8.115933172125454,59.44751426510854 C 8.391323102741959,59.31601400979205 8.715741386412748,59.0984150916234 8.90922942765875,58.91542216154986 C 9.08927912353306,58.745138658782885 9.321206079912743,58.47395697725285 9.424622664058043,58.312796202594214 C 9.528039248203344,58.15163542793559 9.665459605972947,57.85107687453699 9.730001236879383,57.64488830615289 C 9.808619130206674,57.393730864872445 9.84755127794778,57.096757201130714 9.847960542640347,56.745097022167855 C 9.84830494977499,56.44916561932748 9.808505361630214,56.082743382998316 9.756722482481848,55.90509702216785 C 9.706205562132578,55.73179365997553 9.567532485518031,55.428 9.44856009000508,55.23 C 9.329587694492128,55.032000000000004 9.146241148803867,54.78054106927746 9.041123321808946,54.67120237617215 C 8.936005494814026,54.56186368306682 8.715,54.38344814359688 8.549999999999999,54.27472339957227 C 8.385,54.165998655547654 8.088000000000001,54.01378915303289 7.89,53.93648006065056 C 7.546646248576953,53.802417601617314 7.446512936606036,53.79484805261674 5.724467499215489,53.772777252320665" stroke="#aa7a22" stroke-width="0.3" style="fill: rgb(255,255,255);" /><path d=" M 13.494299253726723 53.761041817426474 C 12.08196702992319,53.7600836930482 11.950621431031275,53.76881457022852 11.859299253726723,53.86972444029504 C 11.774254248713463,53.963698113054456 11.76,54.14265266862282 11.76,55.116374065690714 C 11.76,56.04827211927331 11.776843670287061,56.27734695872348 11.853402238118942,56.38664962539568 C 11.939629931178535,56.509756902076994 11.994221283918469,56.519999999999996 12.564102984392218,56.519999999999996 C 13.085932239830594,56.519999999999996 13.196758771761248,56.503030397479876 13.280700746273276,56.41027555970496 C 13.342244847782371,56.34227009301604 13.379999999999999,56.197521627287706 13.379999999999999,56.02957481343167 C 13.379999999999999,55.843256876541155 13.414280090028189,55.72757545234985 13.489724440295044,55.65929925372672 C 13.579105144276356,55.57841082833082 13.732066347939798,55.560244315202176 14.314724440295043,55.56131772002946 C 14.882520829633037,55.56236374580894 15.080783696310796,55.58569813397042 15.27630147235171,55.6744897531447 C 15.41176728214515,55.736009625341886 15.583765280760428,55.85016665132863 15.65851924705233,55.928172033115246 C 15.733273213344232,56.006177414901856 15.844594576772707,56.178 15.905900054671163,56.309999999999995 C 15.96720553256962,56.442 16.017957533954345,56.6386172030342 16.018682279970545,56.746927117853794 C 16.019407025986744,56.85523703267337 15.978211348690875,57.04386855615637 15.927136330424165,57.16610828114933 C 15.876061312157455,57.288348006142286 15.774811312157457,57.45210838799851 15.702136330424166,57.53002024082981 C 15.629461348690874,57.60793209366111 15.461999999999998,57.72980057017812 15.33,57.80083907753427 C 15.104666979026682,57.92210666441303 14.992872391907907,57.931194361461515 13.500672988643652,57.949543680415914 C 12.51121444715167,57.96171088161589 11.882784303331363,57.99279144485592 11.835672988643653,58.031890363342455 C 11.777065238366069,58.080530475934765 11.76,58.64026579625015 11.76,60.51394444480758 C 11.76,62.9331955237621 11.76,62.9331955237621 11.893350374604326,63.02659776188105 C 11.990208149588302,63.094439588269374 12.175379761862292,63.12 12.57,63.12 C 12.964620238137709,63.12 13.149791850411697,63.094439588269374 13.246649625395674,63.02659776188105 C 13.378615334324897,62.93416538135332 13.379999999999999,62.91705425357337 13.379999999999999,61.37870878739034 C 13.379999999999999,59.90324066617197 13.385899404404178,59.82106478559669 13.496055512754639,59.762111025509284 C 13.559886044769693,59.727949961479176 13.917636044769694,59.70041344491196 14.291055512754639,59.70091876647102 C 14.664474980739588,59.70142408803008 15.001004987480446,59.721674088030085 15.03889997217877,59.74591876647102 C 15.076794956877093,59.77016344491196 15.431279284193598,60.519 15.826642921771004,61.41 C 16.494036192407666,62.91405183385346 16.557814843073718,63.03271269414311 16.717742949592232,63.067901112694436 C 16.812484327316504,63.088746724676376 17.1195,63.10862804822749 17.4,63.11208183169691 C 17.6805,63.11553561516634 17.97075,63.10208106762687 18.044999999999998,63.08218283716477 C 18.11925,63.06228460670268 18.18,63.000879650778685 18.18,62.945727379555905 C 18.180000000000003,62.890575108333124 17.81383629180131,62.02722709590335 17.366302870669575,61.027176240823074 C 16.55260574133915,59.208901958858945 16.55260574133915,59.208901958858945 16.901302870669575,58.86819949009901 C 17.093086291801306,58.68081313228105 17.336907810447336,58.36386090878312 17.443128467660745,58.16386121565915 C 17.549349124874155,57.9638615225352 17.677599124874156,57.641502026193706 17.728128467660746,57.44750677934475 C 17.778657810447335,57.2535115324958 17.82,56.955646037637756 17.82,56.785583457438 C 17.82,56.615520877238254 17.792857428049544,56.33094354377843 17.759683173443435,56.153189383082854 C 17.72650891883732,55.97543522238729 17.613899411347486,55.6545 17.50943982346602,55.44 C 17.386429277245348,55.18740698580703 17.1804304246429,54.91220870034705 16.924756650022587,54.65890920829807 C 16.690773773593932,54.42709918462414 16.387625502427515,54.199396056228224 16.180420099908105,54.09981724848461 C 15.988151154857567,54.00741660602327 15.650651154857567,53.89362628013105 15.430420099908105,53.84694985761302 C 15.145821933802297,53.786631278781975 14.585796948715059,53.76178228806984 13.494299253726723,53.761041817426474" stroke="#aa7a22" stroke-width="0.3" style="fill: rgb(255,255,255);" /><path d=" M 42.87835296226141 53.76190820231222 C 41.7261478159419,53.76336584556906 41.34544036664071,53.78246631076216 41.265985335101455,53.842802263611986 C 41.1970889027847,53.89512030831293 41.018546527885,54.45248595409829 40.73717098625469,55.493631380291596 C 40.503531160083156,56.35814517202224 40.3208377592875,57.12437961451713 40.33118565115322,57.19637458583579 C 40.34749263081159,57.30982963040257 40.437957530596805,57.348921167212865 41.01,57.48970267405901 C 41.373,57.57903815126312 41.72980003852082,57.65390138118334 41.80288897449071,57.65606540721505 C 41.87597791046061,57.65822943324677 41.96104279518805,57.61275 41.9919220516628,57.555 C 42.02280130813754,57.49725 42.158608901651554,57.044999999999995 42.29371670391617,56.55 C 42.44368959094173,56.00053817889615 42.579010843553746,55.620788485091985 42.64115140485039,55.574999999999996 C 42.6971326880996,55.53375 42.814590391887734,55.5 42.90216852437957,55.5 C 42.98974665687141,55.5 43.1016966219618,55.54725 43.15094622458044,55.605 C 43.20019582719908,55.662749999999996 43.41114109147819,56.33659978605955 43.619713478534024,57.10244396902122 C 43.93448673762034,58.258240634274976 43.985881264994035,58.510617931971 43.92212131730032,58.58744396902122 C 43.859212481653785,58.66324447879242 43.684090772849174,58.68 42.95476434258275,58.68 C 42.13571863258646,58.68 42.059235509622766,58.68931743782711 42.002111025509286,58.796055512754634 C 41.96794996147918,58.85988604476969 41.94,59.154957473341106 41.94,59.45176979846891 C 41.94,59.8623686829776 41.962548514687334,60.01397708611588 42.034285714285694,60.08571428571426 C 42.11315175097274,60.16458032240134 42.308701298701166,60.18 43.23,60.18 C 44.14330632656133,60.18 44.34726160811247,60.19583303668387 44.4241287142979,60.272700142869326 C 44.47511379287601,60.32368522144745 44.547759107004886,60.47893522144744 44.58556274569541,60.617700142869325 C 44.62336638438593,60.75646506429119 44.78153577271883,61.3425 44.93705027532408,61.919999999999995 C 45.180467307892286,62.823924289716985 45.239989915962454,62.980310926777015 45.364901958212265,63.04411549185617 C 45.45277905079657,63.0890027546995 45.75844717098867,63.11825670672818 46.14,63.11829621085866 C 46.4865,63.11833208578911 46.83075,63.10208106762687 46.905,63.08218283716477 C 46.97924999999999,63.06228460670268 47.04012892138074,63.00190328315157 47.0402864919572,62.94800211816231 C 47.04044406253366,62.89410095317304 46.49641299749023,60.852000000000004 45.83132856963847,58.41 C 44.937016750849004,55.1263425122763 44.59143349603998,53.94265406220968 44.50439503994268,53.864999999999995 C 44.39879983540049,53.77078995825251 44.231705300781336,53.76019608974558 42.87835296226141,53.76190820231222" stroke="#aa7a22" stroke-width="0.3" style="fill: rgb(255,255,255);" /><path d=" M 73.43429925372673 53.761041817426474 C 72.02196702992318,53.7600836930482 71.89062143103126,53.76881457022852 71.79929925372673,53.86972444029504 C 71.71425424871346,53.963698113054456 71.7,54.14265266862283 71.7,55.116374065690714 C 71.7,56.04827211927329 71.71684367028705,56.27734695872348 71.79340223811893,56.38664962539568 C 71.87962993117854,56.509756902076994 71.93422128391846,56.519999999999996 72.50410298439222,56.519999999999996 C 73.02593223983058,56.519999999999996 73.13675877176125,56.503030397479876 73.22070074627327,56.41027555970496 C 73.28224484778238,56.34227009301604 73.32,56.1975216272877 73.32,56.02957481343167 C 73.32,55.84325687654115 73.35428009002818,55.72757545234985 73.42972444029503,55.65929925372672 C 73.51910514427637,55.57841082833082 73.6720663479398,55.560244315202176 74.25472444029504,55.56131772002946 C 74.82252082963304,55.56236374580894 75.02078369631079,55.58569813397042 75.21630147235172,55.6744897531447 C 75.35176728214513,55.736009625341886 75.52376528076041,55.85016665132863 75.59851924705232,55.928172033115246 C 75.67327321334423,56.006177414901856 75.78459457677269,56.178 75.84590005467115,56.309999999999995 C 75.90720553256962,56.442 75.95795753395434,56.6386172030342 75.95868227997055,56.746927117853794 C 75.95940702598675,56.85523703267337 75.91821134869087,57.04386855615637 75.86713633042417,57.16610828114933 C 75.81606131215744,57.288348006142286 75.71481131215745,57.45210838799851 75.64213633042417,57.53002024082981 C 75.56946134869088,57.60793209366111 75.402,57.72980057017812 75.27,57.80083907753427 C 75.04466697902669,57.92210666441303 74.9328723919079,57.931194361461515 73.44067298864364,57.949543680415914 C 72.45121444715167,57.96171088161589 71.82278430333136,57.99279144485592 71.77567298864365,58.031890363342455 C 71.71707340426848,58.080523698837695 71.7,58.6385870242278 71.7,60.5053466829265 C 71.7,62.30029926287204 71.71838939376278,62.93438939376273 71.77199999999998,62.98799999999998 C 71.81935135135133,63.03535135135135 72.0719999999998,63.059999999999995 72.50999999999999,63.059999999999995 C 72.94800000000019,63.059999999999995 73.20064864864867,63.03535135135135 73.24800000000002,62.98799999999998 C 73.30027398856252,62.93572601143743 73.32,62.492469116779475 73.32,61.37011102550925 C 73.32,59.903143259447454 73.32592490241058,59.8210511394778 73.43605551275465,59.762111025509284 C 73.4998860447697,59.727949961479176 73.85763604476969,59.70041344491196 74.23105551275465,59.70091876647102 C 74.60447498073958,59.70142408803008 74.94100498748044,59.721674088030085 74.97889997217878,59.74591876647102 C 75.01679495687709,59.77016344491196 75.37130751826953,60.519 75.76670566416195,61.41 C 76.48561138396636,63.03 76.48561138396636,63.03 77.30280569198318,63.046693173255825 C 78.05854971333245,63.06213107555357 78.11999999999999,63.055192322941245 78.11999999999999,62.95441843464942 C 78.11999999999999,62.8944860831252 77.7538362918013,62.02722709590335 77.30630287066957,61.027176240823074 C 76.49260574133915,59.208901958858945 76.49260574133915,59.208901958858945 76.84130287066957,58.86819949009901 C 77.03308629180131,58.68081313228105 77.27690781044734,58.36386090878312 77.38312846766074,58.16386121565915 C 77.48934912487415,57.9638615225352 77.61759912487416,57.641502026193706 77.66812846766075,57.44750677934475 C 77.71865781044734,57.2535115324958 77.75999999999999,56.955646037637756 77.75999999999999,56.785583457438 C 77.75999999999999,56.615520877238254 77.73285742804954,56.33094354377843 77.69968317344342,56.153189383082854 C 77.66650891883732,55.97543522238729 77.55389941134749,55.6545 77.44943982346602,55.44 C 77.32642927724535,55.18740698580702 77.12043042464292,54.912208700347065 76.86475665002258,54.65890920829807 C 76.63077377359393,54.42709918462414 76.32762550242751,54.19939605622822 76.1204200999081,54.09981724848461 C 75.92815115485756,54.00741660602327 75.59065115485755,53.89362628013105 75.3704200999081,53.84694985761302 C 75.0858219338023,53.786631278781975 74.52579694871505,53.76178228806984 73.43429925372673,53.761041817426474" stroke="#aa7a22" stroke-width="0.3" style="fill: rgb(255,255,255);" /><path d=" M 59.92332826691003 53.834449218505746 C 57.44723711479296,53.821810786853185 56.87097596959634,53.83370175008692 56.84632459644682,53.897942198763914 C 56.82964203089152,53.941416267727746 56.82364431078201,54.29941411940016 56.832996329536776,54.69349298025817 C 56.85,55.41 56.85,55.41 57.37226504631257,55.44 C 57.68336246782285,55.45787008859046 57.925960696013576,55.50152641195429 57.97226504631257,55.54797190982656 C 58.03356086653707,55.609454575481806 58.05634430176508,56.408836597882015 58.08,59.32797190982656 C 58.11,63.03 58.11,63.03 59.03545831457963,63.046619111207626 C 59.73563013055276,63.05919259300663 59.97275302091192,63.044586651600675 60.009539548108606,62.986619111207624 C 60.03628215353075,62.944478600043425 60.05857591196991,61.27305600731694 60.05908123352898,59.272346682926525 C 60.059916550930936,55.96509155999372 60.06899654665707,55.627214039770855 60.159051140017354,55.552346682926526 C 60.23398336942608,55.49005138238766 60.588275252683665,55.46269501271634 61.61405114001736,55.44 C 62.97,55.41 62.97,55.41 62.97,54.629999999999995 C 62.97,53.85 62.97,53.85 59.92332826691003,53.834449218505746" stroke="#aa7a22" stroke-width="0.3" style="fill: rgb(255,255,255);" /><path d=" M 83.21550735604526 53.83449264395473 C 81.41453640187017,53.825963598129825 79.92278640187017,53.83721359812982 79.90050735604527,53.85949264395473 C 79.87822831022036,53.88177168977963 79.86,54.232050038520825 79.86,54.63788897449072 C 79.86,55.30601082442902 79.87097300500923,55.381650523044186 79.97605551275464,55.43788897449071 C 80.05178700461109,55.47841923893836 81.17605079338563,55.5 83.21176979846891,55.5 C 85.99258822566064,55.5 86.341864650735,55.489563920693534 86.42751218948158,55.40391638194699 C 86.5071179330925,55.32431063833608 86.52071504851682,55.18282714000214 86.5067979037673,54.578916381946996 C 86.49,53.85 86.49,53.85 83.21550735604526,53.83449264395473" stroke="#aa7a22" stroke-width="0.3" style="fill: rgb(255,255,255);" /><path d=" M 52.35 53.906448701527985 C 51.75721507138425,53.8832631588454 51.55262899380331,53.89929238402885 51.19210279288878,53.99716941572088 C 50.9512593289776,54.06255452029929 50.58780461298477,54.204689853635074 50.38442564623802,54.31302571202262 C 50.181046679491274,54.421361570410184 49.858419653265905,54.65459416908719 49.66747669907054,54.831320375749314 C 49.42832586037775,55.052665126176706 49.25479298378449,55.286020134605884 49.10974426246657,55.581320375749314 C 48.970342744047045,55.865123649787286 48.88625811175138,56.13705713641696 48.86094334689382,56.38595373860277 C 48.83337235862402,56.657033692845665 48.8519373893673,56.86989747109366 48.92749565791999,57.14903226898956 C 48.98513004661258,57.36195090447076 49.11984381556552,57.659309769604285 49.22685958892651,57.80982974706406 C 49.3338753622875,57.96034972452384 49.51336113479035,58.153425984027 49.62571686115507,58.23888810151554 C 49.73807258751978,58.32435021900409 50.046,58.49531723747648 50.309999999999995,58.618814809231964 C 50.574,58.74231238098746 51.195,58.98521686938016 51.69,59.15860256121574 C 52.184999999999995,59.33198825305132 52.74616372210563,59.55258310243292 52.93703049356806,59.64881333761928 C 53.15059388608389,59.756486639428346 53.329364651590836,59.89804754719472 53.40185595617503,60.016888700797246 C 53.46664318914643,60.12309991535876 53.53590417316814,60.29599015904834 53.55576925400107,60.40108924232964 C 53.57563433483399,60.50618832561095 53.56158876707472,60.68398479801364 53.52455688120268,60.796192514335615 C 53.48752499533064,60.90840023065759 53.383600289203294,61.06907771070486 53.293613089808574,61.153253581107315 C 53.20362589041385,61.23742945150977 53.03549999999999,61.354785172147935 52.919999999999995,61.41404407141436 C 52.771989382984096,61.48998299993476 52.51218268090649,61.531855260959965 52.03985884017767,61.55589376231301 C 51.671281202275395,61.574652193040855 51.35238367370605,61.60739752856932 51.331197665579126,61.62866117459849 C 51.3100116574522,61.64992482062766 51.26786806427477,61.83892482062767 51.23754523629593,62.04866117459849 C 51.20722240831709,62.25839752856932 51.181869936886436,62.54160095317305 51.181206410894475,62.678002118162325 C 51.18019952128427,62.88498860778111 51.202326865167144,62.93198760479053 51.315,62.96218283716478 C 51.38925,62.98208106762686 51.72,62.99833102511302 52.05,62.998293853800696 C 52.379999999999995,62.99825668248838 52.82311859774254,62.95741963307196 53.034707994983435,62.90754485509754 C 53.24629739222432,62.8576700771231 53.58759300632656,62.73659995124749 53.79314269298839,62.63850013092949 C 53.99869237965024,62.540400310611496 54.30399828521407,62.33684615899535 54.47160026090803,62.18615757178251 C 54.6669431883661,62.01052748365974 54.84698794325193,61.768653947316125 54.97316556290307,61.5123508098042 C 55.16108551042051,61.13063119674631 55.169999999999995,61.08121655619439 55.169999999999995,60.42126164865189 C 55.169999999999995,59.78498090667323 55.156585526027385,59.702682620489334 55.00134306152468,59.38654519104934 C 54.90858174536326,59.19764504612648 54.71958174536326,58.94436869393505 54.58134306152468,58.82370885284617 C 54.44310437768611,58.70304901175729 54.114,58.503718255485396 53.85,58.380751616686425 C 53.586,58.25778497788745 53.1,58.057073565681854 52.769999999999996,57.93472625622955 C 52.44,57.81237894677725 51.9,57.583764129975165 51.57,57.426693330002706 C 51.16262613248279,57.23279472618815 50.90527431148569,57.06721497365715 50.768389696101835,56.910938534751985 C 50.592526942000774,56.71016210074661 50.570857250776804,56.65036430630079 50.5987101317366,56.44270557256083 C 50.62117368748287,56.275227258619175 50.6968283316462,56.13686202269285 50.85387669358544,55.976029905505975 C 50.97665639585918,55.85029208041549 51.21434510152831,55.68837980670094 51.38207381729462,55.616224852806965 C 51.57477951098359,55.5333250918465 51.864267783055034,55.47401429381001 52.168517559343954,55.45509706128028 C 52.505299899023115,55.43415706287067 52.767206848299786,55.4549204961278 53.04,55.52418636013738 C 53.2545,55.578650805954474 53.62631304842473,55.715926333121615 53.86625121872161,55.82924308717546 C 54.106189389018496,55.942559841229304 54.342411032680026,56.01995918418102 54.391188204636116,56.001241627068154 C 54.43996537659221,55.982524069955296 54.616101253276064,55.7635330113213 54.78260126393356,55.51459483010372 C 54.94910127459105,55.26565664888614 55.07720221070145,55.01978323736229 55.067270010845554,54.96820947116183 C 55.05733781098966,54.91663570496136 54.917117530587554,54.77460225794715 54.755669387729775,54.65257958890802 C 54.594221244871996,54.530556919868886 54.31967244422377,54.360966864561 54.14556094184483,54.275712799334926 C 53.971449439465886,54.19045873410885 53.658220794759416,54.078833940234844 53.44949728694156,54.02765770183713 C 53.2407737791237,53.97648146343941 52.746,53.9219374133003 52.35,53.906448701527985" stroke="#aa7a22" stroke-width="0.3" style="fill: rgb(255,255,255);" /><path d=" M 80.70883173375034 56.46 C 80.17911474936722,56.46 79.97716469692958,56.48112075396651 79.9268167737904,56.541786290065666 C 79.8777475898904,56.60091103964097 79.86324324602394,57.511126681542365 79.87447009086387,59.82678629006566 C 79.89,63.03 79.89,63.03 83.19,63.03 C 86.49,63.03 86.49,63.03 86.49,62.25 C 86.49,61.47 86.49,61.47 84.09,61.44 C 82.77,61.4235 81.65625,61.38815654115187 81.615,61.3614589803375 C 81.56074582901441,61.32634494326305 81.53999999999999,61.07502148643772 81.53999999999999,60.452878308588566 C 81.53999999999999,59.72398406963011 81.5544721818697,59.58728515924449 81.63490724809414,59.55641932825106 C 81.68710623454591,59.53638869771297 82.5173562345459,59.51958655508804 83.47990724809414,59.51908123352897 C 84.44245826164236,59.51857591196991 85.26461811092858,59.49619593106192 85.30692913539687,59.469347942622306 C 85.36431236483928,59.432936054702836 85.37955697081615,59.23117846272312 85.36692913539687,58.675266709093336 C 85.35,57.93 85.35,57.93 83.5250698694232,57.91410540652495 C 82.30077538826416,57.9034421692066 81.67378650087086,57.8763395680997 81.6200698694232,57.83175872359842 C 81.56506124080619,57.786105616683244 81.53999999999999,57.609202631303674 81.53999999999999,57.266559296743935 C 81.53999999999999,56.99224826117229 81.51366827287072,56.69855426848923 81.48148505082382,56.61390597967048 C 81.42319671305711,56.46059603317563 81.4202044510851,56.46 80.70883173375034,56.46" stroke="#aa7a22" stroke-width="0.3" style="fill: rgb(255,255,255);" /><path d=" M 65.97 59.04 C 64.32,59.04 64.32,59.04 64.32,59.489999999999995 C 64.32,59.94 64.32,59.94 65.97,59.94 C 67.62,59.94 67.62,59.94 67.62,59.489999999999995 C 67.62,59.04 67.62,59.04 65.97,59.04" stroke="#aa7a22" stroke-width="0.3" style="fill: rgb(255,255,255);" /><path d=" M 49.08200763759795 60.9 C 49.05598478813826,60.9 49.00866966318843,60.933749999999996 48.97686291548721,60.974999999999994 C 48.94505616778599,61.01625 48.83375016046906,61.20178661760017 48.729516232560684,61.38730359466705 C 48.6252823046523,61.57282057173393 48.54,61.780932418068716 48.54,61.84977436429989 C 48.54,61.93474386967507 48.62701500601513,62.02593572921166 48.810946614404976,62.133726831055306 C 48.95996725232771,62.22105874153961 49.16783401920634,62.29644689520483 49.27287276302417,62.301256061422464 C 49.455673237359335,62.3096255242872 49.47094862412426,62.29201270537525 49.6295502164775,61.89 C 49.720684072059,61.659000000000006 49.79631730518036,61.39949712763308 49.797624067858294,61.313326950295746 C 49.79968059090311,61.17771628551139 49.75491860237156,61.139402231412745 49.46466095467142,61.02832695029575 C 49.280224479740696,60.95774712763309 49.10803048705764,60.9 49.08200763759795,60.9" stroke="#aa7a22" stroke-width="0.3" style="fill: rgb(255,255,255);" /></svg>