<svg height="121.64572565622356" width="112.35219136325149" xmlns="http://www.w3.org/2000/svg" xmlns:xlink="http://www.w3.org/1999/xlink"><path d=" M 61.13017030974147 8.653623153656204 C 58.49670504751237,8.666775159970673 55.44588941574938,8.737989259258113 54.350580016934806,8.811876707628294 C 53.25527061812024,8.885764155998475 51.42560605419137,9.036680830365594 50.28465876375953,9.147247095110783 C 49.14371147332769,9.257813359855971 47.874148306519906,9.368279292837267 47.46340728196444,9.392726946180328 C 47.05266625740898,9.417174599523388 46.11916392887384,9.518844083708201 45.38895766299746,9.618659133257689 C 44.658751397121094,9.718474182807176 43.3518481371719,9.914088648584231 42.4847281964437,10.053357946095588 C 41.6176082557155,10.192627243606944 40.31070499576631,10.415134704169487 39.58049872988993,10.547818969567905 C 38.85029246401355,10.680503234966322 37.655409483488576,10.905002027416524 36.9252032176122,11.046705175012802 C 36.194996951735824,11.188408322609076 34.81341350550382,11.488768252603824 33.85501778154107,11.714171686112238 C 32.89662205757833,11.939575119620654 31.82037444134667,12.2032135016739 31.463356412137387,12.300034757341674 C 31.106338382928104,12.39685601300945 30.658257265231235,12.50592423633025 30.46762059503324,12.542408586943452 C 30.27698392483524,12.578892937556654 29.747607535986457,12.719754659108753 29.291228619813722,12.855434634837001 C 28.834849703640987,12.991114610565253 27.789327095681628,13.296944367476085 26.967845046570705,13.535056316861077 C 26.146362997459786,13.773168266246069 24.503398899237936,14.293787141327632 23.316813717188825,14.691987150375665 C 22.130228535139715,15.090187159423696 20.7113049957663,15.596481703063446 20.16365029635902,15.817086136241775 C 19.615995596951738,16.037690569420107 18.383772523285355,16.5645678543629 17.42537679932261,16.98792454722576 C 16.466981075359865,17.411281240088623 15.035228517479196,18.149650535430972 14.243704448476675,18.628745203542096 C 13.452180379474155,19.107839871653216 12.38746212556319,19.896622405990886 11.877663884230081,20.38159527984803 C 11.367865642896975,20.866568153705174 10.833000205695273,21.491082587806027 10.689074023781853,21.769405133405485 C 10.545147841868433,22.04772767900494 10.386158495107894,22.674941516326786 10.33576436431399,23.163213660787363 C 10.258786862164543,23.909053889750588 10.316934302935854,24.1997701067013 10.699481618481684,24.98166865672078 C 11.016304977538626,25.629232278244206 11.439673897939075,26.13895417020939 12.091184086057275,26.657231459380608 C 12.606181822637714,27.066912897540707 13.797128431146001,27.781430809365983 14.73773210496458,28.245049041214553 C 15.678335778783161,28.708667273063124 17.094208361960696,29.289456014082262 17.884115623136882,29.535690687923747 C 19.32031064345722,29.98339009490827 19.32031064345722,29.98339009490827 18.58028868328661,30.295025278951478 C 18.17327660519278,30.466424630175243 16.869424301439462,31.097281128411055 15.68283911939035,31.69692860836439 C 14.496253937341237,32.29657608831773 13.343466847453481,32.93410625213715 13.121090030750889,33.11366230574088 C 12.898713214048296,33.29321835934462 12.327589521689731,33.79845871927419 11.851926269954077,34.23641866113993 C 11.317526627642604,34.728459270595856 10.846855774143782,35.358678756636024 10.620075380339376,35.885844005326945 C 10.350840995849088,36.511696218011544 10.273481875128649,36.95144263186925 10.32969760006547,37.53649083727412 C 10.376154057266222,38.01997240662705 10.596588279396912,38.64174120371815 10.889512259384365,39.115534617111116 C 11.155263363607972,39.54537693588764 11.782376870806983,40.21588079642902 12.283097830937724,40.60554319609197 C 12.783818791068462,40.99520559575492 13.865621253175277,41.64160940898157 14.6871033022862,42.041996114373426 C 15.508585351397123,42.44238281976528 16.62878814563929,42.92521541229135 17.176442845046573,43.11495743109802 C 17.724097544453855,43.30469944990469 18.72548622687893,43.62806713871652 19.401751028213415,43.83355229512431 C 20.345164209450616,44.12021131496557 20.55759093963442,44.237106073307594 20.314508860558885,44.33582715547023 C 20.140260867014412,44.406593172252705 19.25089246401355,44.77613407181459 18.33813463166808,45.15702915449663 C 17.42537679932261,45.53792423717867 16.118473539373415,46.14834663320309 15.433905165114313,46.51352336788424 C 14.74933679085521,46.87870010256539 13.890514648602881,47.37022107422533 13.525411515664693,47.60579219379521 C 13.160308382726503,47.84136331336511 12.512787709073246,48.31842615316235 12.086476685324119,48.66593183778908 C 11.660165661574991,49.013437522415806 11.115121921218325,49.63262510136019 10.875268373420417,50.041904235443255 C 10.635414825622506,50.45118336952632 10.397390870818644,51.139986675699035 10.346326251634052,51.5725782491604 C 10.29526163244946,52.00516982262176 10.336476137272626,52.66678239612122 10.437914040129979,53.042828412492526 C 10.569453972897065,53.53046731587535 10.918008409128287,54.01587215224728 11.653296947760607,54.73539829565515 C 12.349283264382443,55.41646473957802 13.198340783887211,56.011830594245275 14.266521196824607,56.56781182800178 C 15.136771837470311,57.020771851424286 16.701212741011435,57.67533501540021 17.743056538027105,58.022396636837165 C 19.6373179871465,58.65341776672255 19.6373179871465,58.65341776672255 18.82177033988993,59.02863508010461 C 18.37321913389882,59.23500460246473 17.520801481795093,59.62743292979622 16.927508890770536,59.90069802973013 C 16.33421629974598,60.173963129664045 15.317920850643253,60.688529496702024 14.669074559431145,61.04417884537008 C 14.020228268219038,61.39982819403814 13.104318066752507,61.995167439123 12.633718556172193,62.36715494555866 C 12.163119045591879,62.73914245199432 11.592206178490734,63.264398015547016 11.36502329594743,63.53438953123133 C 11.137840413404128,63.80438104691563 10.804497620921289,64.35026122127123 10.624261534874462,64.74745658535484 C 10.444025448827635,65.14465194943847 10.296559560243866,65.76835071972906 10.296559560243866,66.13345385266724 C 10.296559560243866,66.49855698560543 10.435650638804502,67.10355001517858 10.605650845934168,67.47788280727424 C 10.775651053063836,67.8522155993699 11.17922546078281,68.42297121297013 11.502482863087444,68.74622861527473 C 11.82574026539208,69.06948601757935 12.338460690518318,69.52036275570916 12.641861585590197,69.74817692222986 C 12.945262480662077,69.97599108875058 13.632101752249422,70.3940427450266 14.168171078006523,70.67718060284325 C 14.704240403763624,70.96031846065989 16.048483756854225,71.52042430181272 17.15537852931897,71.92186024984953 C 18.262273301783715,72.32329619788635 19.53154198032696,72.74693883521395 19.9759755927484,72.86328833279977 C 20.784036706241935,73.07483287386488 20.784036706241935,73.07483287386488 19.39512969943765,73.63742763349796 C 18.631230845695292,73.94685475129617 17.245438461495894,74.56414642832327 16.31559106788343,75.00918691578042 C 15.38574367427097,75.45422740323757 14.202547007907416,76.08856540761401 13.686265142631088,76.41882692550584 C 13.16998327735476,76.74908844339768 12.370171836040761,77.37049347220653 11.908906384155536,77.7997269895255 C 11.447640932270309,78.22896050684449 10.89525281200306,78.95355249788317 10.681377228006093,79.40993141405589 C 10.467501644009127,79.86631033022863 10.291782985385234,80.49242755132416 10.290891319953,80.80130301649041 C 10.289999654520763,81.11017848165665 10.375341763460769,81.65017634621931 10.48054045093079,82.00129827107412 C 10.58994851908086,82.36646985645581 11.033872965654494,83.01678485592782 11.517765260414278,83.52075244089475 C 11.983040218160175,84.00533030944129 12.73931762088888,84.63875970789319 13.198381710922504,84.92837332634342 C 13.65744580095613,85.21798694479365 14.51626794320846,85.6730358988653 15.106875360372124,85.93959322428042 C 15.69748277753579,86.20615054969555 16.796818564775617,86.62767066078196 17.54984377646063,86.8763045822502 C 18.302868988145647,87.12493850371847 18.91898052497884,87.39505302833861 18.918980524978835,87.47655908140608 C 18.918980524978835,87.55806513447355 18.831739003151487,87.62475190516513 18.725110476473617,87.62475190516513 C 18.618481949795747,87.62475190516513 17.479609108982874,88.14392022120661 16.1942819413339,88.77845927414623 C 14.90895477368493,89.41299832708584 13.409242337002542,90.27091741073924 12.86158763759526,90.68494612670935 C 12.313932938187978,91.09897484267945 11.586562477466822,91.78255190182466 11.245208835992692,92.20400625814314 C 10.903855194518561,92.6254606144616 10.5414284681625,93.2790355766607 10.439816110757,93.65639506302999 C 10.338203753351502,94.0337545493993 10.291426291916185,94.66508749267165 10.335866196456296,95.05935715919074 C 10.385275364688994,95.4977140027458 10.6320102203095,96.09178204439272 10.970963854508284,96.58849345014829 C 11.275827661896766,97.03524874365586 11.86327511834621,97.65114363138555 12.27640264661816,97.95714875621431 C 12.689530174890113,98.26315388104307 13.438284631668079,98.74361429097166 13.940301439458088,99.02483855605566 C 14.442318247248098,99.30606282113966 15.562521041490266,99.81763293040186 16.429640982218462,100.1616610210828 C 17.296760922946657,100.50568911176373 18.230263251481798,100.84557004556086 18.50409060118544,100.91695198507647 C 18.77791795088908,100.98833392459208 19.37535944115157,101.15388657949381 19.831738357324305,101.28484677374699 C 20.509982280512194,101.47947223251403 20.600903835151534,101.54633811286836 20.32960626587638,101.65099071109563 C 20.147054699407285,101.72140968238419 19.138872184589335,102.14710430462162 18.089200677392043,102.59697876051212 C 17.03952917019475,103.04685321640262 15.730353409972128,103.66531613497565 15.179921210230654,103.97134080178554 C 14.62948901048918,104.2773654685954 13.770666868236852,104.80387889040769 13.271427560781035,105.14137062803508 C 12.772188253325218,105.47886236566245 12.045614756222118,106.06072877828304 11.656819789440814,106.43440710052528 C 11.222966697635428,106.85139165355999 10.822328716472775,107.45484009359079 10.619594979957325,107.996694558713 C 10.43791630152271,108.482274338474 10.289879553289454,109.1568161356248 10.290624428327869,109.49567633015918 C 10.291440393694632,109.86687709358469 10.472854847664692,110.41885610973708 10.747003344500603,110.8842734326993 C 10.997266873357194,111.30914164456199 11.59286673635407,111.98675515539816 12.070558595604773,112.39008123455748 C 12.548250454855474,112.7934073137168 13.556432969673425,113.43208458213232 14.310964184089109,113.80936405325865 C 15.06549539850479,114.18664352438498 15.944219771380189,114.60326027563727 16.263685012701103,114.7351790560415 C 16.583150254022016,114.86709783644577 17.798448855554827,115.29972466133418 18.964348571662903,115.69657200023799 C 20.786706077898494,116.3168635372281 21.10655283511619,116.3831813414767 21.2437019061856,116.16917866215074 C 21.331446524065004,116.0322649872989 21.40438113591069,115.88128835459678 21.40577882139823,115.83367503392374 C 21.40717650688577,115.78606171325072 20.61787852771622,115.49749609936869 19.65178331213256,115.19241811418587 C 18.6856880965489,114.88734012900306 17.098734138039166,114.2413981926236 16.1252189598887,113.75699158889817 C 15.15170378173823,113.27258498517274 13.985118458167433,112.5896900703971 13.53280712973137,112.23944733384123 C 13.080495801295307,111.88920459728533 12.464384264462112,111.28006408592067 12.163670381213155,110.88580175303086 C 11.7686197702301,110.36785567813425 11.616917866215058,109.99526492102817 11.616917866215065,109.54293836027746 C 11.61691786621507,109.11055669915744 11.771104898321907,108.70406655921781 12.11538943287357,108.22879556812266 C 12.389548794535743,107.85032956556209 12.930980145086124,107.30918793057855 13.318570211874416,107.02625860149256 C 13.70616027866271,106.74332927240657 14.66786588301777,106.18665912108636 15.455693777107884,105.789213820781 C 16.243521671197996,105.39176852047565 17.550424931147194,104.80552302037414 18.35992324366165,104.48644604277763 C 19.16942155617611,104.16736906518113 20.503860033869604,103.68279136486011 21.325342082980526,103.40960670873089 C 22.14682413209145,103.13642205260166 23.41638729889924,102.75183682951032 24.146593564775618,102.55497287963902 C 24.876799830651994,102.35810892976771 25.884982345469943,102.0862541969979 26.386999153259953,101.95085125126168 C 26.889015961049964,101.81544830552545 27.41177726502964,101.67997013579192 27.54869093988146,101.64978865185385 C 27.68560461473328,101.61960716791577 28.320386198137175,101.47227981834932 28.959316680779004,101.32239454170617 C 29.598247163420833,101.17250926506301 30.407762770101087,100.97408410135718 30.758240251179565,100.88144973347097 C 31.108717732258043,100.78881536558478 31.78083940880335,100.64762768964964 32.25184397683579,100.567699342504 C 32.72284854486823,100.48777099535836 33.74299750211685,100.30265056572645 34.5188416596105,100.15632060998865 C 35.29468581710415,100.00999065425084 36.37754851820491,99.82542018704393 36.9252032176122,99.7461640161955 C 37.47285791701948,99.66690784534704 38.59306071126165,99.49057930625368 39.41454276037257,99.35432281821024 C 40.23602480948349,99.21806633016676 41.654948348856905,99.02419654114013 42.567706181202375,98.92350106481771 C 43.480464013547845,98.82280558849529 45.38480876375954,98.6166608034793 46.799583403895014,98.46540154255995 C 48.76323195933268,98.2554599583848 51.00156301795453,98.19000238102922 56.259073666384424,98.18876895364227 C 61.662738402206955,98.18750123807864 63.68245411189015,98.24792360825406 65.63558594411516,98.4692792715465 C 67.00472269263336,98.62444860937917 68.75970707027943,98.82903409119149 69.53555122777308,98.92391367557387 C 70.31139538526674,99.01879325995624 71.61829864521593,99.20918377459523 72.43978069432686,99.34700370810495 C 73.26126274343777,99.48482364161468 74.97890702794243,99.78798134388421 76.25676799322609,100.02068749092614 C 77.53462895850974,100.25339363796805 79.99907510584252,100.80304014459446 81.73331498729891,101.24212417231819 C 83.4675548687553,101.68120820004191 85.82098758887169,102.33747705688425 86.96316547644645,102.70049940974565 C 88.1053433640212,103.06352176260705 89.561606996536,103.5604104930229 90.19930688203493,103.80469658844757 C 90.83700676753385,104.04898268387223 91.65748196443693,104.36767117877577 92.02258509737511,104.51289324378875 C 92.38768823031332,104.65811530880173 93.0224698137172,104.92040278602838 93.43321083827266,105.09575430429241 C 93.84395186282813,105.27110582255645 95.18026632715983,105.90154341545852 96.40279853678757,106.49672673296368 C 98.09090903037206,107.31857436689461 98.84729895260959,107.7936257254748 99.54731011795586,108.47164000823085 C 100.46903586343736,109.36440179712498 100.46903586343736,109.36440179712498 99.89684180978811,109.95658268165639 C 99.58213508028103,110.28228216814867 98.80188645215921,110.79601946086441 98.16295596951737,111.09822110991355 C 97.52402548687554,111.4004227589627 96.36648259949196,111.84040072803164 95.59063844199832,112.0759499300667 C 94.81479428450467,112.31149913210176 93.92371174347973,112.56679568808237 93.61045501749844,112.6432756100236 C 93.29719829151715,112.71975553196481 93.0109242440997,112.87224928294224 92.97429046768191,112.98215061219567 C 92.92533330239607,113.12902210805319 93.34010979201088,113.18128221859364 94.5395839683884,113.17937107532057 C 95.50814479614775,113.17782785034166 96.78944414590316,113.04631665477247 97.69174474813738,112.85583666249953 C 98.52788797519297,112.67932280998266 99.68543086257652,112.31722415074398 100.26406227565644,112.05117297530244 C 100.84269368873635,111.78512179986087 101.51248157381205,111.35194084193857 101.75247979804689,111.08854862436397 C 101.99247802228173,110.82515640678936 102.27883134544035,110.32805457712402 102.38882051617719,109.98387789177433 C 102.50582426865363,109.61775126829818 102.5419852717678,109.08100322268224 102.47597149961823,108.69027107761134 C 102.41391536977397,108.3229640151714 102.17851324515887,107.6921029738164 101.95285566714024,107.28835765237801 C 101.7271980891216,106.88461233093962 101.15555712483561,106.20386095230572 100.68254241317138,105.77557681096931 C 100.20952770150714,105.34729266963292 99.11305389500426,104.5314228941331 98.24593395427605,103.96253286541419 C 97.37881401354785,103.39364283669525 96.3706314987299,102.75745861575815 96.00552836579172,102.5487901522206 C 95.64042523285352,102.3401216886831 94.55756253175277,101.7682723500048 93.59916680779003,101.27801384404667 C 92.64077108382727,100.7877553380885 91.14716735817106,100.08620946326673 90.28004741744286,99.71902301110937 C 89.41292747671466,99.35183655895202 87.91932375105843,98.76624319042203 86.96092802709569,98.41770441437608 C 86.00253230313295,98.0691656383301 84.58360876375954,97.59606221702907 83.80776460626589,97.36636347815157 C 83.03192044877224,97.13666473927404 81.83703746824726,96.79712856794123 81.15246909398816,96.61183865296755 C 80.46790071972906,96.42654873799385 79.4597182049111,96.1893158741411 78.91206350550382,96.08465451107256 C 78.36440880609653,95.97999314800404 77.4309064775614,95.79490432789633 76.83761388653684,95.67334602194435 C 76.2443212955123,95.55178771599238 74.86273784928028,95.33565482481062 73.76742845046572,95.19305070820714 C 72.67211905165115,95.05044659160366 70.91275858311428,94.85752522515683 69.85773852038378,94.7643365605475 C 68.80271845765328,94.67114789593818 65.10604923665413,94.59468397170876 61.64291802927455,94.59441672892655 C 58.17978682189497,94.59414948614436 54.33813331922101,94.66884939069693 53.105910245554625,94.7604165168212 C 51.873687171888236,94.85198364294547 49.74530186282812,95.0432288252773 48.37616511430991,95.1854058108919 C 47.00702836579171,95.32758279650653 45.214703895004234,95.54572360415617 44.393221845893315,95.67016316122442 C 43.571739796782396,95.79460271829267 42.36117748285387,95.98322487411528 41.70308337049659,96.08932350749689 C 41.04498925813931,96.19542214087846 40.335527488452605,96.30450261103104 40.126501660081686,96.33172455228035 C 39.91747583171077,96.35894649352967 38.96231274343777,96.54660016380525 38.003917019475026,96.7487327084483 C 37.04552129551228,96.95086525309137 35.439897290431844,97.28918645448012 34.435863674851824,97.50055760042328 C 33.4318300592718,97.71192874636647 32.0502466130398,98.03482765955053 31.3656782387807,98.21811074083229 C 30.681109864521595,98.40139382211403 29.411546697713806,98.74635411985629 28.544426756985608,98.9846891802595 C 27.677306816257413,99.22302424066271 26.70646439458087,99.48921487866545 26.386999153259953,99.57622393137672 C 26.067533911939037,99.663232984088 24.835643122713194,100.06555923157572 23.649464066091404,100.47028225912723 C 22.46328500946962,100.87500528667874 21.417762401510263,101.14665388342792 21.32608049284839,101.07394580745871 C 21.23439858418652,101.00123773148952 20.56194462320068,100.73805458074136 19.831738357324305,100.48909436135168 C 19.101532091447925,100.24013414196199 17.757288738357328,99.68486510453981 16.844530906011858,99.25516316708017 C 15.931773073666387,98.82546122962053 14.635084131019884,98.11155731750839 13.962999922352964,97.66871002905314 C 13.290915713686042,97.22586274059793 12.53042762140442,96.57280689021064 12.273026383949361,96.21747480597028 C 12.015625146494301,95.8621427217299 11.756539212099769,95.35066606739007 11.697279863072621,95.08086001854842 C 11.622406750628363,94.7399649705146 11.700840780442473,94.36037772855983 11.95436898747954,93.836658338468 C 12.182155383222476,93.36611443471902 12.639264428441919,92.84169003210674 13.171240903530839,92.44058592575846 C 13.6398620899081,92.08725097397075 14.471360541913635,91.5625155869906 15.019015241320917,91.27450728802475 C 15.566669940728199,90.9864989890589 16.686872734970365,90.46573538368055 17.508354784081288,90.11725483162844 C 18.329836833192214,89.7687742795763 20.010141024555466,89.14790462014773 21.24236409822185,88.73754447734271 C 22.474587171888235,88.32718433453768 23.78149043183743,87.90931197754843 24.146593564775618,87.8089392395888 C 24.511696697713802,87.70856650162916 25.50842807332105,87.43619541979805 26.361552177236163,87.20367016885301 C 27.214676281151274,86.97114491790796 28.782960193090304,86.59610270700368 29.846627537100684,86.37024303351019 C 30.91029488111106,86.14438336001669 32.67673039796783,85.7820813988981 33.772039796782394,85.5651275643578 C 34.86734919559696,85.34817372981749 36.28627273497037,85.08877207329388 36.9252032176122,84.9886794387498 C 37.564133700254025,84.88858680420572 38.83369686706182,84.69881983134901 39.74645469940729,84.56697505462378 C 40.65921253175276,84.43513027789855 42.376856816257416,84.21249074398021 43.56344199830652,84.07222053480521 C 44.75002718035563,83.93195032563021 46.91575258255716,83.72171424146559 48.37616511430991,83.60502923666158 C 49.836577646062665,83.48834423185758 53.49590677392042,83.3940663596677 56.508007620660464,83.39552285401741 C 59.52010846740051,83.39697934836711 63.10475740897545,83.48732001322607 64.47389415749366,83.5962798870373 C 65.84303090601186,83.70523976084854 67.63535537679934,83.90200561999373 68.45683742591025,84.03353735180438 C 69.27831947502118,84.16506908361504 70.8092632938188,84.40053593326606 71.85893480101609,84.55679701769554 C 72.90860630821338,84.71305810212503 74.37539385235158,84.94138516544493 75.11846267687876,85.06419049173975 C 75.86153150140593,85.18699581803456 76.79503382994108,85.36076767384871 77.19291229584574,85.45035017132675 C 77.5907907617504,85.53993266880478 78.51376917866216,85.74106380476655 79.24397544453853,85.89730825124178 C 79.97418171041491,86.05355269771701 81.09438450465707,86.31186514822478 81.73331498729891,86.47133591903685 C 82.37224546994074,86.6308066898489 83.94129960282297,87.06567342193753 85.22010194925942,87.43770643478936 C 86.49890429569587,87.80973944764119 88.37159845364836,88.40892395826418 89.38164452248716,88.76922756950714 C 90.39169059132598,89.12953118075008 92.01923908436672,89.76651572922545 92.99841895146656,90.1847487883413 C 93.97759881856638,90.60298184745716 95.49113754536607,91.29173073704375 96.36183834435475,91.71530187631149 C 97.23253914334344,92.13887301557924 98.39287912201446,92.82216010378508 98.94037163029036,93.23371762788001 C 99.48786413856627,93.64527515197496 100.01552004708479,94.15694292575263 100.11294031588706,94.37075712516375 C 100.25532509373389,94.68325767210261 100.23009695682921,94.82577755725885 99.98432144234367,95.09735644383703 C 99.81616079309252,95.28317186969625 99.30022047568974,95.64713389451482 98.83778740367079,95.90616094343389 C 98.37535433165186,96.16518799235297 97.47423869602034,96.5640578030056 96.83530821337851,96.79253830043974 C 96.19637773073667,97.0210187978739 95.33755558848435,97.30120815578198 94.92681456392889,97.41518131801328 C 94.51607353937342,97.5291544802446 93.88129195596953,97.71291241709768 93.51618882303134,97.82353228879792 C 93.04258012500232,97.96702745135782 92.8523649449619,98.11580410202228 92.8523649449619,98.34274160316119 C 92.8523649449619,98.6323998665214 92.97100429751032,98.65793638867059 94.18001270110078,98.628511085232 C 94.91021896697714,98.61073904917143 95.9930816680779,98.5148362304309 96.58637425910247,98.41539371025303 C 97.17966685012703,98.31595119007517 98.22518945808638,98.07431108193704 98.90975783234548,97.8784156921683 C 99.59432620660459,97.68252030239958 100.55178281198933,97.27187919688652 101.03743917764488,96.96587990213932 C 101.70634117792024,96.54442235558174 102.00290329980008,96.22311988675104 102.26049418424414,95.64079296708115 C 102.52213407160863,95.04931260472063 102.57752371586315,94.6777520036296 102.50072419796903,94.02930025032772 C 102.43022191676168,93.4340188069764 102.21726398839611,92.92040554365718 101.77553709992186,92.2802894724542 C 101.43158157642124,91.78185601930339 100.73942239627435,91.05299124306217 100.23740558848435,90.66058996969593 C 99.73538878069435,90.26818869632972 98.68986617273498,89.5246784791255 97.91402201524133,89.00834504257544 C 97.13817785774769,88.49201160602539 95.233833107536,87.4168411279378 93.6821447925487,86.61907731349191 C 92.1304564775614,85.82131349904603 89.98694293230919,84.82738186952167 88.9187813586549,84.41034035899337 C 87.85061978500059,83.99329884846505 86.76775708389982,83.60213376517271 86.5124198006532,83.54108461834372 C 86.25708251740656,83.48003547151473 85.97349000846741,83.3763853830256 85.88221422523287,83.31075108836791 C 85.79093844199832,83.24511679371021 85.11881676545302,83.00413767450137 84.38861049957664,82.77524193457047 C 83.65840423370027,82.5463461946396 82.27682078746825,82.16684562828048 81.31842506350552,81.93190734266136 C 80.36002933954278,81.69696905704222 79.09046617273498,81.39517783380764 78.49717358171043,81.26126017991784 C 77.90388099068588,81.12734252602803 76.89569847586792,80.93831838386546 76.25676799322609,80.84120653066768 C 75.61783751058425,80.74409467746989 74.27359415749366,80.55303235361814 73.26956054191365,80.41662358877491 C 72.26552692633362,80.28021482393167 70.1371416172735,80.0732491532263 68.53981541066894,79.9566998760963 C 66.94248920406436,79.8401505989663 63.84326147332769,79.74412863155501 61.652642675698566,79.74331772629345 C 59.462023878069445,79.7425068210319 56.213435774767156,79.83807080671302 54.433558001693484,79.95568213891819 C 52.65368022861982,80.07329347112335 50.189234081287054,80.28030171259576 48.957011007620665,80.4157004533013 C 47.72478793395428,80.55109919400685 46.04448374259103,80.73893581736357 45.22300169348011,80.8331151718718 C 44.40151964436919,80.92729452638002 43.05727629127858,81.11826110576686 42.23579424216766,81.257485348287 C 41.41431219305674,81.39670959080716 40.144749026248945,81.61799052163292 39.41454276037257,81.74922075012202 C 38.68433649449619,81.88045097861115 37.63881388653684,82.06886118008812 37.091159187129556,82.16791008673754 C 36.543504487722274,82.26695899338694 35.16192104149027,82.57101243442007 34.02097375105843,82.8435844001445 C 32.88002646062659,83.11615636586892 31.79716375952583,83.36906499425348 31.614612193056736,83.4056035743324 C 31.432060626587642,83.44214215441133 30.573238484335313,83.66613235280654 29.706118543607115,83.9033595707662 C 28.83899860287892,84.14058678872586 27.79347599491956,84.4380689903485 27.3827349703641,84.56443112992761 C 26.97199394580864,84.69079326950673 25.926471337849282,85.01550165966276 25.059351397121088,85.28600533027435 C 24.192231456392893,85.55650900088594 22.74438277590414,86.04115397463804 21.841909884923858,86.36299416083456 C 20.201050083141528,86.94815813573732 20.201050083141528,86.94815813573732 18.695700676928933,86.36679163943764 C 17.867758503512004,86.04704006647282 16.52954277015351,85.43700958377232 15.721887936132275,85.01116834454766 C 14.91423310211104,84.58532710532297 13.832547944800586,83.89764287910761 13.318143142109042,83.48298117518019 C 12.768776690943367,83.04013688692902 12.218259885427821,82.40897476752987 11.983942216335583,81.95333289636537 C 11.68674649236271,81.37542165178148 11.614301415611756,81.04431009697466 11.699841860949926,80.65484700040447 C 11.762992371971674,80.36732460704673 12.046595262249609,79.8679204493325 12.330070506012003,79.54505998326174 C 12.6135457497744,79.222199517191 13.35472340870921,78.6225498724173 13.977131970311586,78.21250521709797 C 14.59954053191396,77.80246056177862 15.499326976738402,77.31875215872027 15.976657403254789,77.13759765474607 C 16.453987829771176,76.95644315077188 16.919211092294667,76.75024470671414 17.010486875529214,76.67937889017333 C 17.10176265876376,76.60851307363251 17.800711451755937,76.31232987172785 18.56370641551183,76.02119399705187 C 19.32670137926772,75.73005812237587 20.745360145331514,75.23163312447495 21.71628145120914,74.91358289060538 C 22.687202757086773,74.5955326567358 24.191319459437523,74.14448340191899 25.058763011988592,73.91125121323466 C 25.92620656453966,73.67801902455035 27.49475524978832,73.26906011450852 28.544426756985608,73.00245363536392 C 29.594098264182897,72.73584715621931 30.826321337849283,72.45280602088023 31.282700254022018,72.37347333461041 C 31.739079170194753,72.2941406483406 33.23268289585098,72.00622903340569 34.601819644369186,71.73366974586618 C 35.97095639288739,71.46111045832667 37.76328086367486,71.15107673269021 38.58476291278578,71.0447059111185 C 39.406244961896704,70.93833508954678 40.86250859441152,70.7440956997381 41.82090431837427,70.61306282265473 C 42.779300042337006,70.48202994557138 44.68364479254869,70.24759167688437 46.0527815410669,70.09208889223918 C 47.85865015806922,69.88698330366216 50.40565989519787,69.79094070115565 55.32950687857528,69.74228228130849 C 60.928081554945365,69.68695607030556 62.555844766086345,69.724246757404 64.62304117154734,69.95518934112276 C 66.00142284557057,70.10917907538729 67.42791041490264,70.25941030888366 67.79301354784081,70.28903652667024 C 68.158116680779,70.31866274445682 69.05427891617275,70.42778141914467 69.78448518204912,70.531522470421 C 70.51469144792549,70.63526352169733 71.8215947078747,70.83135702621996 72.68871464860288,70.96728581380461 C 73.55583458933108,71.10321460138925 74.82539775613887,71.32403844798917 75.50996613039798,71.4580054729155 C 76.19453450465708,71.59197249784185 77.31473729889925,71.81602426672728 77.99930567315835,71.9558982926609 C 78.68387404741745,72.09577231859453 79.61737637595259,72.28990456749467 80.07375529212533,72.38730329021678 C 80.53013420829807,72.48470201293888 81.4262964436918,72.70821836395307 82.06522692633362,72.8840062924705 C 82.70415740897546,73.05979422098797 83.6376597375106,73.3160057215409 84.1396765453006,73.45336518258819 C 84.6416933530906,73.59072464363545 85.9859367061812,74.0078777290664 87.12688399661305,74.3803720391014 C 88.26783128704488,74.75286634913641 90.36046441273334,75.5242519773121 91.77717983147627,76.09456232393626 C 93.19389525021921,76.66487267056043 95.20116696629617,77.54909583453806 96.23778364498062,78.059502688331 C 97.27440032366508,78.56990954212392 98.52750877188217,79.29994532029167 99.02246908546304,79.68180441759266 C 99.5174293990439,80.06366351489363 99.99996730412904,80.52103525839837 100.09477554120774,80.69818606982538 C 100.23482937159046,80.95987904567058 100.17878381103124,81.11341437965453 99.7959009551085,81.51694511047354 C 99.53671169567522,81.79011177140302 98.90612199781063,82.22617583633952 98.39459051540943,82.485976365888 C 97.88305903300825,82.74577689543649 96.46731335136941,83.26452705488371 95.24848900065649,83.63875449799296 C 94.02966464994357,84.0129819411022 93.00137093687128,84.35024182067922 92.96339186049588,84.38822089705302 C 92.92541278412045,84.42619997342682 92.93856115051965,84.57251485486974 92.99261045249412,84.7133650780373 C 93.06013908182842,84.88934186523858 93.31315841990863,84.96902514089491 93.8014032753825,84.9680778677556 C 94.19219002599664,84.96731967893311 95.31841038497365,84.86020883251614 96.30411518422028,84.73005376460675 C 97.28981998346691,84.59989869669737 98.70048448156616,84.29219820361917 99.43892517999636,84.04627489109964 C 100.32699916846741,83.75051912158219 101.00208771448773,83.3998941697486 101.43297657164263,83.01061197358865 C 101.79126413861782,82.68692068147715 102.19958626931161,82.19935312817526 102.34035908429547,81.92712852180671 C 102.51840566975515,81.58282439144187 102.57223254807559,81.14647350430518 102.51720523583482,80.49351435879441 C 102.4659819442977,79.88569407264283 102.29243019531467,79.32458949123921 102.02480371442027,78.90154682648878 C 101.79749030927948,78.54222786700888 101.29611880473757,77.93341966135227 100.91064481543823,77.54863970280746 C 100.52517082613892,77.16385974426265 99.33850590653789,76.26864830437636 98.27361166076932,75.55928094750455 C 97.20871741500073,74.84991359063277 95.06787713801864,73.62855655740698 93.51618882303134,72.84515420700282 C 91.96450050804404,72.06175185659865 89.7240949195597,71.04201202506792 88.53750973751059,70.57906569249006 C 87.35092455546149,70.11611935991222 85.40923971210839,69.43435386302858 84.22265453005929,69.06403125497087 C 83.03606934801017,68.69370864691317 81.2810849703641,68.20920513743492 80.32268924640137,67.98735678946367 C 79.36429352243863,67.76550844149243 78.18849349220861,67.50174516104381 77.70980029033464,67.40121616624452 C 77.23110708846069,67.30068717144523 76.07356420107712,67.10635675235037 75.1374827628156,66.96937079047817 C 74.20140132455407,66.83238482860597 73.02477548687554,66.68729269721823 72.52275867908553,66.64694383183875 C 72.02074187129553,66.60659496645928 70.93787917019476,66.48476480954189 70.11639712108384,66.37621014980009 C 69.17228831100482,66.25145098951378 66.08901128471051,66.1775206764487 61.73562066045725,66.17525726033256 C 57.68250150873939,66.1731499614475 54.063107775910886,66.25100926813933 52.93995427603726,66.36446698359974 C 51.890282768839974,66.47050176086205 50.50869932260797,66.58883047410146 49.869768839966135,66.62741967968732 C 49.2308383573243,66.66600888527319 48.03595537679933,66.77909616980463 47.2144733276884,66.87872475642389 C 46.39299127857748,66.97835334304314 44.936727646062664,67.17265377916742 43.97833192209992,67.31050350336675 C 43.01993619813718,67.44835322756607 41.601012658763764,67.6729239596647 40.82516850127011,67.80954957469703 C 40.04932434377646,67.94617518972936 38.966461642675704,68.13444884474109 38.41880694326842,68.2279354747231 C 37.87115224386114,68.3214221047051 36.937649915326,68.50301693022466 36.34435732430144,68.6314795314332 C 35.75106473327689,68.75994213264175 34.444161473327696,69.05958331994353 33.440127857747676,69.29734883654828 C 32.436094242167655,69.53511435315302 31.502591913632518,69.75424230219767 31.3656782387807,69.78429983442527 C 31.22876456392888,69.81435736665287 30.519302794242172,69.99912356170452 29.789096528365796,70.19489137898445 C 29.05889026248942,70.39065919626441 28.274748306519903,70.61245412091719 28.046558848433534,70.68776898932397 C 27.81836939034717,70.76308385773075 27.295608086367487,70.91970151689182 26.884867061812027,71.03580823190414 C 26.474126037256568,71.15191494691645 25.133737743391773,71.57597846789184 23.90622640877915,71.97817161184945 C 21.75800292360183,72.68203538325787 21.652305413439016,72.70011873667427 21.08497492698406,72.46084795439737 C 20.760797946609383,72.3241267988411 20.196841490262493,72.12172268684223 19.831738357324305,72.0110610388443 C 19.466635224386117,71.90039939084636 18.34643243014395,71.43666694296559 17.342398814563932,70.98054448799813 C 16.338365198983915,70.52442203303069 14.903958032003342,69.7550744285453 14.154827332384878,69.2708831446973 C 13.381780268585906,68.77123381716821 12.57920029178907,68.0957088484768 12.298897824463616,67.70876253494116 C 12.027267294725384,67.3337874834233 11.7565392120993,66.80623931040245 11.69727986307232,66.53643326156151 C 11.62254310803336,66.19615904472741 11.700440300419887,65.81677825290761 11.951554562929202,65.29804540680065 C 12.205432319412466,64.77360394390713 12.618506491797833,64.33305459901524 13.334382448497857,63.82324025118524 C 13.895827351612352,63.42340468687429 14.952632853513972,62.80597598943487 15.68283911939035,62.45117647909764 C 16.413045385266727,62.09637696876041 17.607928365791704,61.56910202778343 18.33813463166808,61.2794543880377 C 19.068340897544456,60.98980674829196 20.001843226079597,60.631995868332766 20.412584250635057,60.484319099239485 C 20.82332527519052,60.33664233014621 21.90618797629128,59.99901048748861 22.81894580863675,59.73402611555595 C 23.73170364098222,59.46904174362327 24.85190643522439,59.142366129732686 25.308285351397124,59.0080803069102 C 25.76466426756986,58.87379448408772 26.959547248094836,58.57120114360989 27.963580863674856,58.33565066140393 C 28.967614479254873,58.10010017919797 30.386538018628283,57.76414986889492 31.116744284504662,57.58909441628605 C 31.846950550381038,57.41403896367718 33.52725474174429,57.08577478110079 34.85075359864522,56.8596184550052 C 36.17425245554615,56.633462128909606 38.003917019475026,56.3304467900762 38.916674851820495,56.18625103537543 C 39.829432684165965,56.04205528067465 40.83761519898392,55.89524138212848 41.15708044030483,55.859997927495044 C 41.47654568162575,55.8247544728616 42.447388103302295,55.71294981810291 43.31450804403049,55.611543139142384 C 44.18162798475869,55.51013646018186 46.08597273497037,55.31510750470113 47.54638526672312,55.17814546029632 C 49.34892207633817,55.009097933524195 52.160090191005956,54.92949326562117 56.2997196575986,54.93027473581203 C 60.51808829896278,54.931071070211964 63.152548146525234,55.00825083441247 64.84645208774255,55.18066184808994 C 66.19323354109295,55.317741613904346 67.96726731583405,55.506804484598014 68.78874936494498,55.600801560742546 C 69.61023141405589,55.694798636887064 71.02915495342931,55.88798792684535 71.94191278577478,56.03011109398315 C 72.85467061812025,56.172234261120956 74.90837574089755,56.54740935977845 76.50570194750213,56.86383353544424 C 78.1030281541067,57.18025771111002 79.85801253175276,57.54039914980041 80.40566723116004,57.66414784364508 C 80.95332193056733,57.78789653748977 82.13446652556055,58.07943012487956 83.03043299781167,58.31200026006685 C 83.92639947006279,58.54457039525413 84.89724189173933,58.81008017410791 85.18786060153732,58.90202199085301 C 85.47847931133533,58.99396380759812 86.76178086367486,59.416318152646085 88.03964182895852,59.8405872020707 C 89.31750279424219,60.26485625149532 91.07248717188824,60.894794382448104 91.93960711261644,61.24044971529911 C 92.80672705334464,61.58610504815011 94.5243713378493,62.35590685720982 95.75659441151568,62.95112040209845 C 96.98881748518205,63.546333946987076 98.40721180488956,64.34129672098817 98.90858178864343,64.71770434432308 C 99.4099517723973,65.094111967658 99.93005087960157,65.58318562741142 100.06435758243065,65.8045346993307 C 100.29181685331564,66.17940726674003 100.27700949354318,66.23991040936706 99.84828791364968,66.68739931453017 C 99.59514289299105,66.95162578097062 99.00036359950398,67.36153503255159 98.52655615034509,67.59830876248792 C 98.0527487011862,67.83508249242422 97.14232675698563,68.20797269328365 96.50339627434379,68.42695365328663 C 95.86446579170196,68.64593461328961 94.85628327688401,68.95616483902039 94.26299068585945,69.11635415491058 C 93.66969809483489,69.27654347080079 93.08540729487311,69.43616895834815 92.96456668594436,69.4710774605714 C 92.84372607701559,69.50598596279464 92.7696901441014,69.66546363731945 92.80004239057946,69.82547229284874 C 92.84061396643013,70.03935442869862 93.04638038223841,70.13014328676672 93.57704741626388,70.1683047162934 C 93.97404793391225,70.19685389365866 95.13094656792718,70.10069329937083 96.14793326963046,69.9546145067649 C 97.16491997133372,69.80853571415896 98.57070230116659,69.50068187565314 99.2718940025924,69.27049486564083 C 99.97308570401822,69.04030785562851 100.84854944298031,68.63337816842031 101.21736897806376,68.36620667184478 C 101.5861885131472,68.09903517526926 102.04797980479081,67.5667558868256 102.24357184838294,67.18336380863666 C 102.53327653720585,66.61549570588024 102.57957352111471,66.3193498087833 102.49334306304445,65.58566317698192 C 102.419744317195,64.95945270384382 102.21399368482993,64.42365221066332 101.81807059907455,63.82716885272475 C 101.50488861941938,63.35534024360447 100.77840848584941,62.5943966076145 100.20367030225243,62.136182994969275 C 99.62893211865543,61.67796938232405 98.74795076206605,61.038643292036234 98.24593395427605,60.71545834988524 C 97.74391714648604,60.39227340773424 96.92243509737511,59.879742657931445 96.42041828958511,59.576501128101256 C 95.9184014817951,59.27325959827106 94.64883831498732,58.58254729729573 93.59916680779003,58.04158490371164 C 92.54949530059272,57.50062251012754 90.71983073666385,56.66222013822477 89.53324555461475,56.178468521705476 C 88.34666037256564,55.69471690518619 86.55433590177816,55.028341208813174 85.55030228619815,54.69763364087656 C 84.54626867061813,54.36692607293995 83.50074606265878,54.0282586786205 83.22691871295514,53.945039431277806 C 82.9530913632515,53.8618201839351 82.09426922099917,53.635399803721455 81.31842506350552,53.441883030803034 C 80.54258090601186,53.24836625788461 79.63806528366808,53.01901941284679 79.308390347186,52.93222337516344 C 78.97871541070394,52.84542733748008 78.0452130821688,52.6575165494314 77.23394072821904,52.51464384616637 C 76.42266837426928,52.371771142901345 75.54821953349824,52.22708376708618 75.29072108206117,52.193116344354884 C 75.03322263062411,52.1591489216236 74.02504011580616,52.01879266439475 73.05031549357683,51.88121355051302 C 72.07559087134752,51.743634436631275 70.15788611346318,51.55142227736015 68.78874936494498,51.454075418799405 C 67.41961261642676,51.35672856023866 64.17102451312448,51.27772341175011 61.56966469093989,51.278508422158176 C 58.9683048687553,51.27929343256625 55.6450365791702,51.35724921153781 54.18462404741745,51.451743486539435 C 52.7242115156647,51.54623776154105 50.48380592718036,51.73783232008678 49.205944961896705,51.87750917219661 C 47.92808399661305,52.01718602430645 46.62118073666385,52.15520969378554 46.30171549534293,52.184228437705706 C 45.98225025402202,52.21324718162589 45.12342811176969,52.32414322090848 44.393221845893315,52.43066408055593 C 43.663015580016946,52.537184940203375 42.64112007228475,52.698134815822165 42.12234293982177,52.78833047081991 C 41.6035658073588,52.87852612581764 40.89410403767209,52.98689927714587 40.54576122940687,53.029159695993734 C 40.19741842114165,53.07142011484161 39.35230927180356,53.22313964557312 38.66774089754446,53.36631420873045 C 37.983172523285354,53.509488771887774 36.900309822184596,53.73438036898282 36.26137933954276,53.86607331338611 C 35.62244885690094,53.99776625778941 33.83012438611347,54.40726211626266 32.278436071126166,54.77606410999334 C 30.72674775613887,55.14486610372402 28.449002074513132,55.74681973058082 27.216779000846742,56.11373883634177 C 25.984555927180356,56.48065794210272 24.528292294665544,56.92701874786071 23.98063759525826,57.1056517380262 C 23.432982895850976,57.28428472819168 22.835541405588486,57.49504321625352 22.652989839119392,57.574003933719176 C 22.4704382726503,57.65296465118483 21.9761718875797,57.83991304933147 21.55462009451806,57.98944481848949 C 20.788162288951444,58.26132076241315 20.788162288951444,58.26132076241315 19.064032069793438,57.595360675156456 C 18.115760449256534,57.22908262716527 16.668341990974042,56.584587210481004 15.847546606943457,56.16314863808031 C 15.026751222912873,55.74171006567961 14.019130524978832,55.132128572315956 13.608389500423371,54.8085230972722 C 13.197648475867911,54.484917622228444 12.687207290800053,54.02545581233164 12.474075755828133,53.78749685305711 C 12.260944220856215,53.54953789378256 11.976658935591386,53.10439742720833 11.842330677461847,52.7982958162255 C 11.690365584958792,52.45200412543708 11.640281669112328,52.0496840815698 11.709758810019501,51.733356731021445 C 11.77117254105575,51.453741845142055 12.159820738889236,50.863188416939096 12.573421471871695,50.42101577945929 C 12.987022204854155,49.97884314197949 13.855841475402311,49.32594249335793 14.504130961978712,48.970125449189155 C 15.152420448555112,48.61430840502038 16.466981075359865,47.992042477004176 17.42537679932261,47.58731227581982 C 18.383772523285355,47.18258207463546 19.84003615580017,46.61999159455881 20.661518204911093,46.337111208982826 C 21.483000254022016,46.05423082340684 22.90192379339543,45.60090235563711 23.8146816257409,45.329714613938975 C 24.72743945808637,45.05852687224084 26.445083742591027,44.60411155810755 27.631668924640138,44.31990280475387 C 28.818254106689253,44.035694051400206 30.05047718035563,43.73412552252234 30.369942421676548,43.64975051835863 C 30.689407662997464,43.565375514194905 31.548229805249793,43.3801069508162 32.278436071126166,43.238042599739266 C 33.00864233700255,43.09597824866235 34.20352531752752,42.87033993010241 34.9337315834039,42.73662411405053 C 35.66393784928027,42.602908297998646 37.12020148179509,42.34877526172944 38.16987298899238,42.17188403345231 C 39.21954449618967,41.99499280517517 40.82516850127011,41.76840666306644 41.73792633361558,41.66835927321069 C 42.65068416596105,41.568311883354944 44.44300863674852,41.37848257510014 45.72086960203218,41.24651636597781 C 46.99873056731584,41.11455015685547 49.92008000827695,40.919766423881754 52.21275724861241,40.81366362603621 C 55.35246473070489,40.668361120124885 57.37990171295419,40.66733568299328 60.42757773972165,40.80950873390648 C 62.65305176949626,40.91332634108068 64.84729508890771,41.037601441962885 65.30367400508045,41.08567562475583 C 65.76005292125318,41.133749807548774 66.65621515664691,41.24030087775113 67.29514563928875,41.32245578076108 C 67.93407612193057,41.404610683771025 69.12895910245555,41.555087954732116 69.95044115156648,41.65684971623016 C 70.7719232006774,41.75861147772821 72.11616655376801,41.952967796434756 72.93764860287892,42.088752646689144 C 73.75913065198985,42.22453749694353 75.62613530906013,42.56018641277406 77.08654784081288,42.83463912631253 C 78.54696037256564,43.109091839851004 80.07790419136326,43.434914040444816 80.48864521591872,43.558688460965456 C 80.89938624047419,43.682462881486096 81.42214754445386,43.81795467959478 81.65033700254023,43.85978134565141 C 81.8785264606266,43.90160801170805 82.81202878916174,44.137508497572355 83.7247866215072,44.38400464757209 C 84.63754445385268,44.63050079757183 86.35518873835734,45.1586641256488 87.54177392040644,45.557700932187586 C 88.72835910245556,45.956737738726375 90.07260245554616,46.425290759263504 90.5289813717189,46.598929866714535 C 90.98536028789162,46.77256897416556 92.1055630821338,47.23288604909523 93.01832091447926,47.62185669989157 C 93.93107874682474,48.010827350687926 95.49055277165846,48.74317435034849 96.48381874744311,49.24929447691505 C 97.47708472322772,49.75541460348161 98.72797784346481,50.53420410261161 99.26358123685885,50.97993780831504 C 99.79918463025287,51.425671514018475 100.23740558848435,51.89192416917223 100.23740558848435,52.016054819767845 C 100.23740558848435,52.14018547036345 99.99219628549439,52.45485370843437 99.69249602628445,52.71531757103658 C 99.39279576707449,52.97578143363878 98.66466395081709,53.40456381973071 98.0744253234902,53.66816731790755 C 97.4841866961633,53.931770816084374 96.85190381033024,54.20648894824346 96.66935224386114,54.278652056038844 C 96.48680067739205,54.350815163834234 95.96403937341238,54.519022174711345 95.50766045723964,54.65244541354356 C 95.0512815410669,54.78586865237578 94.24456854937998,55.023419435562275 93.71496492015756,55.18033604284689 C 92.99389245126437,55.393983078444414 92.76562502237833,55.534016610127665 92.80610219443014,55.737889338645466 C 92.85304954187617,55.974350616331705 93.09961911849452,56.003231801322535 94.68177571627089,55.95759070938894 C 95.7774974344315,55.92598199521835 97.06551750443751,55.76889328451398 97.91402201524133,55.56338147646767 C 98.68986617273498,55.37546834985669 99.73538878069435,55.04032646675451 100.23740558848435,54.81862173624061 C 100.73942239627435,54.59691700572672 101.36220111189903,54.21420976342021 101.6213582898725,53.96816119778168 C 101.880515467846,53.722112632143165 102.18488879782245,53.33409970364099 102.297743467598,53.105910245554625 C 102.41059813737353,52.877720787468256 102.52113957417684,52.38086441945445 102.54339110493869,52.001784983301704 C 102.56778226528074,51.58625459087473 102.44434273934658,50.988259908990734 102.23254950463235,50.495933251574854 C 102.0118718744106,49.98295425958712 101.4676540797044,49.27647370103984 100.76890513542085,48.59589194176554 C 100.15711514328486,48.00000823766745 99.32049885690095,47.28944184386865 98.90975783234548,47.01685551110157 C 98.49901680779001,46.744269178334484 97.86423522438614,46.33162020023416 97.49913209144793,46.09985778198974 C 97.13402895850975,45.868095363745326 96.08796008186211,45.26098333606787 95.1745345877865,44.7507199427065 C 94.26110909371087,44.24045654934515 92.58080490234762,43.402986521058644 91.44052527364593,42.889675435403184 C 90.30024564494424,42.37636434974772 88.88186837425913,41.77252317061002 88.28857578323456,41.547806148430524 C 87.69528319221,41.323089126251034 86.20167946655377,40.81359607588756 84.9694563928874,40.41559936984502 C 83.737233319221,40.017602663802485 82.3183097798476,39.575551008839305 81.8162929720576,39.43326235881572 C 81.31427616426758,39.290973708792144 80.41811392887385,39.06653341120685 79.82482133784929,38.9345061419595 C 79.23152874682474,38.802478872712165 78.11132595258258,38.57773091842269 77.33548179508892,38.43506624353845 C 76.55963763759527,38.292401568654206 75.21539428450467,38.06681683724926 74.34827434377647,37.93376684041636 C 73.48115440304827,37.80071684358345 71.87553039796784,37.596943994367216 70.78022099915327,37.480938286602516 C 69.49555604114497,37.34487767408923 66.25602544189499,37.26936491848958 61.652642675698566,37.26817641569588 C 57.35943426042412,37.26706799381254 53.52482728622939,37.34906449963815 52.02719644369179,37.47400010593277 C 50.65805969517359,37.588216456797 48.60435457239628,37.79391563499592 47.46340728196444,37.93110939081925 C 46.322459991532604,38.068303146642585 44.604815707027946,38.293882448557596 43.64641998306521,38.432396728408165 C 42.68802425910246,38.57091100825873 41.49314127857748,38.76057935590024 40.991124470787476,38.85388194538928 C 40.48910766299746,38.947184534878325 39.89166617273498,39.043931275147926 39.66347671464861,39.06887470154395 C 39.43528725656224,39.09381812793997 38.651145300592724,39.24392077166231 37.92093903471635,39.40243613203805 C 37.19073276883997,39.560951492413786 36.145210160880616,39.79349900286059 35.597555461473334,39.9192083774754 C 35.049900762066045,40.0449177520902 34.15373852667232,40.230330155292286 33.60608382726503,40.3312359401467 C 33.05842912785775,40.4321417250011 32.27428717188823,40.61298506741298 31.863546147332773,40.733110034395295 C 31.452805122777313,40.85323500137761 30.631323073666387,41.078384297880234 30.038030482641833,41.233441804401124 C 29.44473789161728,41.38849931092201 28.66059593564776,41.59277211366767 28.29549280270957,41.68738136605814 C 27.930389669771387,41.78199061844862 27.44496845893311,41.920594813413835 27.216779000846742,41.99539068820308 C 26.988589542760376,42.07018656299233 26.017747121083833,42.36860472232236 25.059351397121088,42.65854215338092 C 24.100955673158342,42.9484795844395 22.968161573382215,43.333284372084044 22.542031175396357,43.51366390370215 C 21.76724863360389,43.841626688462334 21.76724863360389,43.841626688462334 20.63353752594674,43.46103664161154 C 20.009996416735305,43.25171211584361 19.31312595258256,42.9842101336093 19.08493649449619,42.86658779220197 C 18.856747036409825,42.74896545079465 18.60854599661745,42.65226890431471 18.533378628290915,42.65170657780211 C 18.458211259964383,42.65114425128952 17.625349409640652,42.285016611847745 16.682574516460402,41.838089601264834 C 15.739799623280152,41.39116259068192 14.52617663794974,40.725160843973924 13.985634549059482,40.3580857196915 C 13.445092460169223,39.99101059540907 12.77358609667603,39.429581165777876 12.49339818574128,39.1104647649555 C 12.213210274806526,38.79134836413313 11.895588271717047,38.26246713031616 11.787571512209107,37.93517313425112 C 11.637301283603323,37.47984986928706 11.636712552126143,37.20212028742159 11.78506471108018,36.75260883058715 C 11.89170272996721,36.429492459637 12.24048953756101,35.911122517559576 12.560146505733064,35.600675625970666 C 12.879803473905119,35.29022873438175 13.638497885401947,34.74204641373622 14.246134086837126,34.382492691202835 C 14.853770288272305,34.02293896866944 16.209749322607962,33.35717448594198 17.25942082980525,32.90301606291959 C 18.309092337002543,32.448857639897206 20.083795998092405,31.76787116973879 21.203206743338278,31.389712795900895 C 22.322617488584154,31.011554422063 24.11494195937162,30.471539444052524 25.186150011754876,30.189679511433173 C 26.25735806413813,29.907819578813818 28.216663717188826,29.430155653643084 29.54016257408976,29.128204122164878 C 30.86366143099069,28.82625259068667 32.69332599491956,28.425183402750697 33.60608382726503,28.23693926008494 C 34.5188416596105,28.048695117419182 35.8257449195597,27.810950244990217 36.510313293818804,27.708617321353895 C 37.194881668077905,27.606284397717577 38.427104741744294,27.419927955961004 39.248586790855214,27.29449189522818 C 40.07006883996613,27.169055834495357 41.71303293818798,26.95058622830593 42.89961812023709,26.80900388147391 C 44.0862033022862,26.66742153464189 46.289268797629134,26.439628057917435 47.79531922099916,26.30279615541957 C 49.58815072013001,26.139908817069212 52.510425986383545,26.053540867833796 56.259073666384424,26.05264959232142 C 59.408088187976304,26.0519008851153 62.918056943268425,26.129444346061636 64.05900423370026,26.224968394424383 C 65.1999515241321,26.32049244278713 66.69355524978832,26.47004343306792 67.37812362404743,26.557303928381693 C 68.06269199830653,26.644564423695467 69.63097591024557,26.86900507430399 70.86319898391194,27.056060929733963 C 72.09542205757833,27.243116785163945 73.39585056755455,27.434771161169174 73.75304011719243,27.481959543078922 C 74.11022966683029,27.529147924988667 75.49931850526944,27.78342025954699 76.83990420261274,28.04700917543075 C 78.18048989995603,28.310598091314507 79.94194902757508,28.68743007714032 80.75425781954395,28.884413588377004 C 81.56656661151283,29.08139709961369 83.38872578323456,29.575073885557373 84.80350042337004,29.981473112696314 C 86.21827506350552,30.387872339835248 87.89857925486876,30.906996321723174 88.53750973751059,31.135081961336148 C 89.17644022015243,31.363167600949126 90.10994254868757,31.687741451350764 90.61195935647757,31.856357184450903 C 91.11397616426758,32.02497291755105 92.38353933107537,32.55227253315253 93.43321083827266,33.02813410800978 C 94.48288234546996,33.50399568286702 95.93914597798478,34.19240767803563 96.66935224386114,34.557938541717796 C 97.39955850973752,34.92346940539996 98.42147347469627,35.53095912451792 98.9402743882139,35.90791569531325 C 99.45907530173152,36.28487226610858 99.96658467874585,36.77233758144838 100.06807300380126,36.991171951623926 C 100.2273514060163,37.33461627206434 100.18911816792085,37.45696105237029 99.78862249365682,37.885402024019584 C 99.53343638802195,38.15839419366166 98.80188645215921,38.62552436597081 98.16295596951737,38.92346907359549 C 97.52402548687554,39.22141378122017 96.36648259949196,39.65346476123451 95.59063844199832,39.88358236251625 C 94.81479428450467,40.113699963798 93.94246235178618,40.34981602912909 93.6521230359572,40.40828472991867 C 93.36178372012822,40.46675343070826 93.03796371888687,40.61854003002601 92.9325230331986,40.74558828395811 C 92.82708234751036,40.87263653789021 92.78898939839819,41.054536651909125 92.84787203517159,41.14981075955569 C 92.90675467194498,41.245084867202266 93.37993504575196,41.32282237825335 93.89938397696488,41.32256078411366 C 94.41883290817782,41.322299189973975 95.70265872142252,41.17796205082745 96.75233022861983,41.00181158601029 C 97.80200173581713,40.82566112119313 98.99443772045701,40.56208340610566 99.40218797226407,40.41608333026036 C 99.80993822407112,40.27008325441508 100.46085926696867,39.96467424208442 100.84867917870307,39.737396636192244 C 101.23649909043748,39.51011903030007 101.73722288386627,39.08311905384037 101.96139871965593,38.788507799615125 C 102.18557455544558,38.493896545389894 102.42048172208796,38.0465238712966 102.48341464552786,37.794346301630036 C 102.54634756896779,37.54216873196348 102.54954976926042,37.013831684273946 102.49053064617819,36.620263973431086 C 102.42998666938848,36.21652780952291 102.11140447682291,35.49131080187272 101.75948521332684,34.95612017116987 C 101.33130299622809,34.304950614413315 100.66972917193782,33.65773499164275 99.64935162325301,32.89178301712081 C 98.83183401369841,32.27810896279464 97.44958467377658,31.351090674133857 96.57768642342674,30.831742375652397 C 95.70578817307693,30.31239407717094 94.1739362023248,29.479433030837072 93.17357093286651,28.980717828243797 C 92.1732056634082,28.482002625650523 90.34381053381873,27.665484513003307 89.10824842266767,27.16623313347221 C 87.87268631151662,26.666981753941112 86.0486306261584,25.98918713742936 85.05479134409386,25.660022874557207 C 84.06095206202932,25.33085861168505 82.04822712410808,24.771598775539456 80.58206925982445,24.417223238678105 C 79.11591139554082,24.062847701816757 77.39356638442,23.689872315517196 76.75463590177816,23.5883890469013 C 76.11570541913633,23.486905778285404 74.88348234546996,23.29446471080391 74.01636240474176,23.16074223027576 C 73.14924246401355,23.02701974974761 71.84233920406436,22.876019303326274 71.11213293818798,22.825185682672803 C 70.38192667231161,22.774352062019336 68.9630031329382,22.65787325715309 67.95896951735818,22.56634389408115 C 66.95493590177816,22.474814531009216 64.11708882303134,22.39889039130676 61.652642675698566,22.39762358363125 C 59.18819652836579,22.39635677595575 56.23832917019476,22.47302133838132 55.09738187976292,22.567989277910296 C 53.95643458933108,22.662957217439278 52.0520898391194,22.810502641794795 50.86550465707029,22.89586799870034 C 49.67891947502118,22.981233355605887 48.18531574936495,23.12301370746607 47.54638526672312,23.210935447278537 C 46.90745478408129,23.298857187091 45.6378916172735,23.455302115210856 44.72513378492803,23.558590843100447 C 43.81237595258256,23.661879570990035 42.430792506350556,23.858969363314326 41.654948348856905,23.996568159376647 C 40.879104191363254,24.134166955438968 39.64688111769687,24.35944967484941 38.916674851820495,24.49719642473319 C 38.18646858594412,24.634943174616964 37.17828607112617,24.82356992332841 36.67626926333616,24.916366977425287 C 36.17425245554615,25.009164031522168 35.20341003386961,25.22165114429682 34.5188416596105,25.388560561368962 C 33.8342732853514,25.5554699784411 32.86343086367486,25.779121694961862 32.36141405588485,25.885564375859545 C 31.859397248094837,25.99200705675723 31.075255292125323,26.185315974681416 30.618876375952585,26.31513974902441 C 30.16249745977985,26.444963523367406 29.116974851820494,26.74591521268658 28.29549280270957,26.983921280844793 C 27.47401075359865,27.221927349003007 26.54050842506351,27.481625451864375 26.221043183742594,27.561028176092268 C 25.901577942421678,27.640430900320162 24.461280700305302,28.116415084992227 23.020382645706203,28.618770808696855 C 20.400568000980563,29.53214485179618 20.400568000980563,29.53214485179618 19.62813513403246,29.26989706397173 C 19.203297057211,29.12566078066828 18.186506230137788,28.717403082425726 17.368599962758648,28.362657734543824 C 16.55069369537951,28.007912386661925 15.346944904329455,27.384494092420564 14.69360264931408,26.977283747340795 C 14.040260394298704,26.570073402261027 13.12583688896019,25.857030550506146 12.661550415228493,25.39274407677439 C 12.104217016783931,24.835410678329758 11.781337055673184,24.35639113087275 11.711275623648179,23.982931590868915 C 11.64664445027803,23.638417818040093 11.696245990257893,23.199272219794743 11.838150830467505,22.859646131913507 C 11.96629685585561,22.552949523004294 12.469135894394505,21.953861953384713 12.955570916109492,21.528340421647762 C 13.442005937824478,21.102818889910818 14.403997801375333,20.47912951597168 15.09333061288917,20.142364035116355 C 15.782663424403006,19.805598554261028 16.74359782769299,19.35402016325544 17.228740397978026,19.138856499548385 C 17.713882968263057,18.923692835841337 18.6473852967982,18.55659457345837 19.303190016945003,18.323082583141797 C 19.958994737091807,18.089570592825222 21.018323539373416,17.72289004869321 21.657254022015245,17.5082369295151 C 22.296184504657074,17.293583810336994 23.565747671464862,16.899390862358718 24.478505503810332,16.632252600674494 C 25.391263336155802,16.365114338990267 26.735506689246403,15.984835420267657 27.465712955122783,15.787188336846473 C 28.19591922099916,15.589541253425287 29.502822480948353,15.276467023614279 30.369942421676548,15.091467826155345 C 31.237062362404746,14.90646862869641 32.170564690939884,14.715085890521506 32.44439204064353,14.666172852433334 C 32.718219390347166,14.617259814345164 33.614381625740904,14.439235222944479 34.435863674851824,14.270562649320706 C 35.25734572396274,14.101890075696929 36.45222870448773,13.887785279983127 37.091159187129556,13.794774214401151 C 37.73008966977138,13.701763148819174 39.074333022861985,13.51057475422331 40.078366638442006,13.369911115299235 C 41.08240025402202,13.22924747637516 42.83738463166809,13.0047884565394 43.97833192209992,12.871113293441988 C 45.11927921253176,12.737438130344577 46.65022303132939,12.586623822236243 47.380429297205765,12.53597038653458 C 48.110635563082134,12.485316950832916 49.75359966130399,12.370484175246208 51.031460626587645,12.28078644078634 C 52.3093215918713,12.191088706326473 54.736427646062666,12.119183387049297 56.42502963590179,12.120996842392618 C 58.11363162574091,12.122810297735938 61.026158890770546,12.229126407995848 62.897312447078754,12.35725486519242 C 64.76846600338696,12.48538332238899 67.12089187129551,12.707971231042736 68.12492548687554,12.851894662200747 C 69.12895910245555,12.995818093358757 70.54788264182898,13.189802078181936 71.27808890770534,13.282970184030034 C 72.00829517358171,13.376138289878135 73.2405182472481,13.564936910068823 74.01636240474176,13.702522673342678 C 74.7922065622354,13.840108436616532 76.0244296359018,14.070570491553282 76.75463590177816,14.214660573202124 C 77.48484216765453,14.358750654850965 78.86642561388655,14.656595927895765 79.82482133784929,14.876538957746117 C 80.78321706181202,15.096481987596473 82.27682078746825,15.468322305753485 83.14394072819645,15.70285077587281 C 84.01106066892466,15.937379245992133 85.40207836450928,16.342966337716696 86.23509116282897,16.60415542414961 C 87.06810396114865,16.865344510582528 88.52436759366347,17.374855274922773 89.47123256841745,17.73640156712794 C 90.41809754317143,18.097947859333104 91.97694720575785,18.72450362942277 92.93534292972059,19.12874772288276 C 93.89373865368333,19.532991816342747 95.46202256562238,20.24856149511639 96.42041828958511,20.718902564601965 C 97.37881401354785,21.18924363408754 98.52895411355587,21.854165619694008 98.9762851784918,22.19650697706079 C 99.42361624342777,22.53884833442757 99.89999126074652,22.987751794240587 100.03489632808902,23.194070221089724 C 100.26505038279134,23.546058648467138 100.24412320488237,23.60319893556301 99.69558528117386,24.12053678623623 C 99.37405913802803,24.423774970217675 98.68519574608709,24.873484106572125 98.16477774352732,25.11989042257946 C 97.64435974096754,25.36629673858679 96.2735086806573,25.84262755278093 95.11844205394897,26.178403343010885 C 93.96337542724062,26.514179133240834 92.96922019802695,26.85973415141588 92.90920821125187,26.946303383399865 C 92.84919622447681,27.03287261538385 92.83128111488683,27.18515445483314 92.86939685660748,27.284707471064948 C 92.91727220954768,27.409751234434175 93.5667128305671,27.43343945949639 94.96998119404316,27.361325891497664 C 96.21056359961025,27.297572709290755 97.51806654915295,27.118313500599605 98.32891193903473,26.900815062358685 C 99.0591182049111,26.704946991326057 100.05996350477659,26.341180145401893 100.55301260540249,26.092444293638327 C 101.04606170602838,25.84370844187476 101.67463822772598,25.36088126217657 101.94984932028602,25.019495005420126 C 102.33058274375159,24.547213321386593 102.46816404641947,24.182569380166406 102.52522112432145,23.49453603045733 C 102.58336194452565,22.79343417332006 102.51835688845033,22.421195185237 102.23587897074036,21.837673672950864 C 102.03549738661134,21.423740555795405 101.4105163583338,20.63725801543447 100.84703224123473,20.089934694371003 C 100.28354812413565,19.54261137330754 99.38978838139803,18.793861038223955 98.86089947959559,18.426045060851926 C 98.33201057779313,18.0582290834799 97.86004488947206,17.757288738357328 97.8120868388821,17.757288738357328 C 97.76412878829211,17.757288738357328 97.41271411561551,17.542563372299373 97.03116534404519,17.280121258228544 C 96.64961657247488,17.01767914415771 95.14255732430145,16.19064590419576 93.6821447925487,15.442269613868655 C 92.22173226079596,14.693893323541547 90.20536723116004,13.75622531182344 89.20133361558003,13.358562921161756 C 88.19730000000001,12.96090053050007 86.36763543607113,12.299337372345269 85.13541236240475,11.888422569706643 C 83.90318928873836,11.477507767068019 82.0735247248095,10.946510205437034 81.06949110922947,10.708427988304452 C 80.06545749364946,10.470345771171873 78.79589432684168,10.172828403906932 78.24823962743439,10.04727828327125 C 77.7005849280271,9.921728162635569 76.72974250635056,9.737378390787546 76.09081202370874,9.637612123608976 C 75.4518815410669,9.537845856430406 74.63039949195598,9.421887325831344 74.2652963590178,9.3799265000555 C 73.90019322607961,9.337965674279657 72.96669089754447,9.227022147099312 72.19084674005082,9.133385328543621 C 71.41500258255716,9.03974850998793 69.68628629222025,8.888115683191378 68.34925498374656,8.796423491217949 C 67.01222367527286,8.704731299244521 63.763635571970575,8.640471147341737 61.13017030974147,8.653623153656204" stroke="none" stroke-width="1" style="fill: rgb(28, 32, 38);" /></svg>