<svg height="715.4936511430991" width="660.8311075359865" xmlns="http://www.w3.org/2000/svg" xmlns:xlink="http://www.w3.org/1999/xlink"><path d=" M 359.5543412147725 50.89872572525664 C 344.0648723866138,50.97608296051528 326.12063962743446,51.39494877464207 319.67826841659615,51.82953864553839 C 313.23589720575785,52.26412851643471 302.47420893310755,53.151787509620064 295.7634055884844,53.80211418595028 C 289.05260224386114,54.452440862280504 281.58530834038953,55.102177409038255 279.1694191363252,55.24597317874529 C 276.7535299322608,55.38976894845233 271.26287265029634,55.98776670017609 266.9679585097375,56.574857071464756 C 262.6730443691787,57.16194744275342 254.9861241744285,58.31250910515632 249.88591363251484,59.13166076569342 C 244.7857030906012,59.95081242623051 237.098782895851,61.25955282385358 232.80386875529214,62.039972760411345 C 228.50895461473328,62.820392696969115 221.48091329381882,64.14084567483496 217.18599915325996,64.97431271122436 C 212.89108501270113,65.80777974761374 204.76491223539375,67.5744314060235 199.12783742591026,68.90020528546827 C 193.49076261642676,70.22597916491307 187.16050865709047,71.77664268012623 185.06060640516293,72.34612420816423 C 182.9607041532354,72.91560573620221 180.32518865789245,73.55712125930434 179.20390530440088,73.77171425950228 C 178.0826219509093,73.98630725970023 174.96894538526675,74.81482521144838 172.28462404741745,75.61286526338708 C 169.60030270956818,76.41090531532578 163.450766553768,78.20972930375535 158.6189881456393,79.61025190434171 C 153.7872097375106,81.01077450492807 144.12365292125318,84.07294128289462 137.14441744284505,86.4150669664896 C 130.16518196443693,88.75719265008459 121.81938289585098,91.73510683184854 118.59819729043186,93.03265403707613 C 115.37701168501272,94.33020124230374 108.12934407281966,97.42917862333756 102.49226926333617,99.9192704393735 C 96.85519445385268,102.40936225540948 88.43393789390957,106.75228955652527 83.77836579679592,109.57021999740861 C 79.12279369968228,112.38815043829197 72.86035293721487,117.02759742590007 69.86183076909055,119.88010219209328 C 66.86330860096623,122.73260695828648 63.717346649000866,126.40586477508118 62.8708042091675,128.04289734052594 C 62.024261769334146,129.67992990597068 61.0891210762034,133.3690650242988 60.79271377998806,136.24097538125508 C 60.33994888609913,140.62784508597784 60.68195946211942,142.3377745256723 62.932019413328845,146.93673141757287 C 64.79550537402503,150.7455595322625 67.28566910977263,153.74363263004156 71.11771006919757,156.79202670992584 C 74.14681453537261,159.20168365770147 81.1517029738386,163.40432231829672 86.68412882134422,166.13122373347088 C 92.21655466884984,168.85812514864503 100.54440867790912,172.274197966764 105.19047106369815,173.7224966626242 C 113.63785721967825,176.35576701873364 113.63785721967825,176.35576701873364 109.28520930416597,178.1887372645264 C 106.89125295063423,179.19687089971242 99.22227781541068,182.9074313557838 92.24304233700255,186.43442716690726 C 85.26380685859442,189.96142297803067 78.48336439351861,193.71123648084222 77.17539241461188,194.767346062044 C 75.86742043570513,195.8234556432458 72.50819532774877,198.79516934613795 69.71044773026439,201.37115429069328 C 66.5672254823445,204.26522993758624 63.798842083422485,207.97204362673074 62.46496922356271,211.0727147477824 C 60.8813912414097,214.75384108669854 60.42638175024263,217.34033367023008 60.7570303946543,220.781459729709 C 61.03027715283201,223.62519296777054 62.32682321376717,227.28230154596088 64.04973823456197,230.06905116176 C 65.61282832120926,232.5972900161722 69.30137331961726,236.54104761798115 72.24650489769085,238.8329569435577 C 75.19163647576445,241.12486626913423 81.55456282811177,244.92687264414982 86.38634123624048,247.2818599991479 C 91.2181196443692,249.63684735414603 97.80690838272652,252.47676345192707 101.02809398814566,253.59278466088355 C 104.24927959356478,254.70880586984003 110.13922961635903,256.6107841521147 114.11687181657732,257.8194030659384 C 119.66582257451459,259.50546895631715 120.91527031268774,260.1930184529759 119.48551449227587,260.7736743464756 C 118.46062576369181,261.18990463694746 113.22955461473329,263.36346368349757 107.86091193903472,265.6038055610314 C 102.49226926333617,267.8441474385652 94.80534906858595,271.43451895811467 90.77886706181204,273.582408937808 C 86.75238505503812,275.73029891750133 81.70098035563083,278.6213181681098 79.5535232853514,280.00689616138226 C 77.40606621507197,281.3924741546548 73.59749071039614,284.1984538241407 71.09002216384957,286.24240653801763 C 68.58255361730298,288.2863592518945 65.3767251040795,291.9282856674052 63.96595880113072,294.33557635026364 C 62.55519249818194,296.742867033122 61.15518746254735,300.79425798660054 60.85483649972053,303.3386673579937 C 60.554485536893694,305.88307672938674 60.79690027343215,309.7745377182677 61.39353591425043,311.98635844439576 C 62.16722513562608,314.85454421531887 64.21734637791276,317.7095896908974 68.54215333937131,321.94168567834464 C 72.63579319510033,325.94757009396767 77.62976451126296,329.44938231814433 83.91256893870336,332.7195427842152 C 89.03119357533777,335.38375493990026 98.23289407105084,339.2337528380627 104.36079226251016,341.2750936690208 C 115.50242533789076,344.98662245258095 115.50242533789076,344.98662245258095 110.70555178833573,347.19356892830444 C 108.06727133608047,348.4073894899524 103.0535364521592,350.7155673993668 99.56391871295513,352.32285317144766 C 96.07430097375106,353.9301389435285 90.09667259761237,356.95670618805224 86.28030009931359,359.0485581592781 C 82.4639276010148,361.140410130504 77.076743377062,364.6420658429154 74.3087796016407,366.8300152979701 C 71.54081582621939,369.0179647530247 68.18283074648738,372.1074035222226 66.84659053556956,373.6954347850765 C 65.51035032465175,375.28346604793035 63.54970065620548,378.49421428367265 62.48959127235563,380.83043086450374 C 61.429481888505784,383.1666474453349 60.562119665355915,386.8351077053345 60.562119665355915,388.9825647756139 C 60.562119665355915,391.13002184589334 61.3802230808596,394.6884590150605 62.38012725536411,396.8902029293187 C 63.38003142986862,399.091946843577 65.75376815533974,402.44900699248285 67.65509775641105,404.35033659355395 C 69.55642735748235,406.25166619462516 72.57213717392048,408.903624920176 74.35667512627359,410.2435782058892 C 76.14121307862668,411.5835314916024 80.18105200864629,414.0424202384266 83.33409497076161,415.70777542105407 C 86.48713793287693,417.3731306036815 94.39368441890574,420.6675511116866 100.90419827304781,423.02870988328743 C 107.41471212718989,425.38986865488835 114.88027391485983,427.88164233395736 117.494335578981,428.5659847256629 C 122.24717496829221,429.81024361967303 122.24717496829221,429.81024361967303 114.07792660353645,433.119303403832 C 109.5848400029208,434.9392862851195 101.4339111696363,438.5700614186786 95.96475141845981,441.1876925895189 C 90.49559166728332,443.8053237603592 83.53628669976439,447.53636167691354 80.49962926841772,449.4788879596395 C 77.46297183707104,451.4214142423655 72.75865522187809,455.07638321478646 70.04559234576668,457.60104123168594 C 67.33252946965528,460.12569924858553 64.08350291417214,464.38759144792556 62.82553333358192,467.0719127857748 C 61.56756375299171,469.7562341236241 60.534024892875216,473.43891918426675 60.52878031110083,475.2556573649808 C 60.523535729326454,477.0723955456947 61.02549941767092,480.2485453170176 61.64425517408853,482.31376796792057 C 62.28776959042267,484.46162766055653 64.89883645197662,488.28663878080175 67.74498548738235,491.2508662987072 C 70.48163140327634,494.10104772973693 74.92989028977915,497.82674142423247 77.63000523516638,499.53018561980844 C 80.33012018055359,501.23362981538435 85.38152487996088,503.9101286059599 88.855349011627,505.4779607099764 C 92.32917314329312,507.04579281399293 98.79522669348012,509.52508225621943 103.22435690093144,510.98749280381304 C 107.65348710838276,512.4499033514068 111.27732091447929,514.038658126017 111.27732091447928,514.5180589696135 C 111.27732091447926,514.9974598132101 110.76418529342232,515.3896968670618 110.1370195343527,515.3896968670618 C 109.5098537752831,515.3896968670618 102.81125189128649,518.4433317728382 95.25123756991579,522.1755522132316 C 87.69122324854509,525.9077726536251 78.8702414902625,530.953865759134 75.64905588484336,533.3890924476962 C 72.42787027942423,535.8243191362583 68.1496357268533,539.8449704435445 66.14186799024132,542.3238731305543 C 64.13410025362934,544.802775817564 62.002385223664604,548.646961328209 61.40472347920858,550.866507598654 C 60.807061734752544,553.0860538690991 60.53192689961543,556.7994166710558 60.79331273445942,559.1184249363355 C 61.08392669551763,561.6967443701406 62.5351673516101,565.1909231409311 64.5288187684012,568.1124713938705 C 66.32196125222518,570.7401886802352 69.77719918354032,574.3627482035138 72.20712528243486,576.1626036678231 C 74.63705138132939,577.9624591321324 79.04106193903472,580.7884225687847 81.99381541066893,582.4425224159394 C 84.94656888230314,584.0966222630941 91.53535762066048,587.1055661722792 96.6355681625741,589.1290644363507 C 101.73577870448773,591.1525627004222 107.22643598645216,593.151668291388 108.83702878916174,593.5715213051636 C 110.44762159187131,593.9913743189393 113.96164225232855,594.9651189603813 116.64596359017783,595.7353982861459 C 120.63524655387803,596.8801428248252 121.17002732603893,597.2734333626844 119.57431414055885,597.8889771411715 C 118.50058560541915,598.303166185671 112.57067574089756,600.8070091928425 106.39673666384421,603.4530727126637 C 100.22279758679086,606.099136232485 92.52251104062067,609.7368003535983 89.284988783466,611.5367707595822 C 86.04746652631133,613.3367411655661 80.99606182690405,616.4335783829538 78.05964500700537,618.4186312426659 C 75.1232281871067,620.403684102378 70.84968120087512,623.826095550027 68.56287392649078,626.0239900152195 C 66.01104457908883,628.4766022933051 63.65457927476104,632.0259545233573 62.46214361319696,635.2130244146095 C 61.39354921526971,638.0690988690817 60.522829320054505,642.0366067341421 60.52721051271874,644.0297085591882 C 60.53200984320342,646.213030563292 61.59905013040588,649.4596508575173 63.211531850568015,652.1971341345916 C 64.6835273937209,654.6961163760176 68.18671600390091,658.6816913916348 70.99639542874581,661.0539675026299 C 73.80607485359073,663.4262436136252 79.73598471811232,667.1828041357115 84.17397290546046,669.4018797739332 C 88.61196109280861,671.6209554121548 93.7804263759526,674.0714043603017 95.65945131244709,674.8473218809265 C 97.53847624894158,675.6232394015514 104.6865978039658,678.1678561141568 111.54416587916755,680.5020256867167 C 122.26287563070764,684.1504453428948 124.14414456057294,684.5405122165284 124.95082551118564,683.2817950889078 C 125.46692023359384,682.476498687553 125.89590572768057,681.5884870325062 125.90412660915615,681.3084358554705 C 125.9123474906317,681.0283846784348 121.26986876884033,679.331104617364 115.58750722739748,677.5367023864239 C 109.90514568595465,675.7423001554841 100.5710283066151,671.9430104394386 94.84502416219848,669.0938363507672 C 89.11902001778186,666.2446622620959 82.25741934888143,662.2280231793491 79.59702267575305,660.1679717224413 C 76.93662600262468,658.1079202655333 73.31279219652814,654.525088512224 71.54405866220516,652.2061233817539 C 69.22045705175994,649.1596774320595 68.32817950889068,646.9681797880125 68.32817950889073,644.3076935217288 C 68.32817950889077,641.7645188089865 69.23507403367503,639.3736323819451 71.26008064471388,636.5781919760727 C 72.8726262694166,634.3521374185055 76.05720749295598,631.1692602387999 78.33692780813472,629.5051315767269 C 80.61664812331345,627.8410029146537 86.2731909280263,624.5667903855915 90.90702292971879,622.2291037343664 C 95.54085493141129,619.8914170831414 103.2277751261615,616.4432487971529 107.98906780694148,614.5665075432809 C 112.75036048772147,612.6897662894089 120.59923683319222,609.839585847845 125.43101524132092,608.2327732286943 C 130.26279364944963,606.6259606095435 137.73008755292125,604.3639141302209 142.0250016934801,603.2060032746441 C 146.31991583403897,602.0480924190671 152.24982569856056,600.44910211932 155.20257917019475,599.6526914974282 C 158.15533264182898,598.8562808755364 161.23010071972908,598.0594278024843 162.03539712108383,597.8819068906456 C 162.8406935224386,597.704385978807 166.57434047417445,596.8378386119687 170.33239034716343,595.9562460754494 C 174.09044022015243,595.0746535389301 178.85183462144713,593.9075599637741 180.913266794485,593.362704797325 C 182.97469896752287,592.8178496308761 186.9279722105373,591.9874144864739 189.6983184456281,591.5172933653201 C 192.46866468071892,591.0471722441663 198.46895855207453,589.9583342156701 203.0323048264183,589.0976533019953 C 207.5956511007621,588.2369723883203 213.96481354784083,587.1513691189685 217.18599915325996,586.6852015923246 C 220.4071847586791,586.2190340656806 226.99597349703643,585.1819080215383 231.82775190516514,584.3804770497865 C 236.65953031329383,583.5790460780344 245.0053293818798,582.4387462241043 250.37397205757836,581.8464773743864 C 255.74261473327692,581.2542085246682 266.9435555884844,580.0417098191073 275.26495173581714,579.1520358064729 C 286.8147046507901,577.9172051555979 299.9800801949033,577.5321979491015 330.90361219305674,577.524943197981 C 362.6867906856014,577.5174867712768 374.5663183845541,577.8728779863344 386.0542142252329,579.1748437633967 C 394.10717823878076,580.0875159964113 404.4296139288739,581.2908432203077 408.99296020321765,581.8489042609442 C 413.55630647756146,582.4069653015806 421.24322667231166,583.5268008217125 426.07500508044035,584.3374276390151 C 430.90678348856903,585.1480544563178 441.00959288738363,586.9311620016003 448.5256926333616,588.2998888507541 C 456.0417923793396,589.6686156999077 470.5371276037257,592.9015166813658 480.737548687553,595.4841132539943 C 490.9379697713802,598.0667098266227 504.78034820721933,601.9267402385473 511.4983896560843,604.0619586138266 C 518.2164311049494,606.1971769891059 526.7818564648138,609.1197682270572 530.532668233561,610.556605809274 C 534.2834800023082,611.9934433914906 539.1093363251482,613.8678996748147 541.2567933954276,614.7220642166608 C 543.4042504657072,615.5762287585068 547.1378974174429,617.1189465458983 549.5537866215072,618.1503259664197 C 551.9696758255716,619.1817053869412 559.8295863156621,622.8898019331208 567.020254377264,626.3905405134858 C 576.949352453436,631.224469211863 581.3982731551712,634.0186177871415 585.5155862940642,638.0065500558612 C 590.936976280679,643.2575803612095 590.936976280679,643.2575803612095 587.5714555408475,646.7406592850668 C 585.7204191339403,648.6563526931884 581.131166723116,651.6780435032078 577.3731168501271,653.4555277517765 C 573.6150669771381,655.2330120003452 566.8066519475021,657.8208665411721 562.2433056731584,659.2063156202807 C 557.6799593988146,660.5917646993893 552.4388060635171,662.0933634113658 550.596298261386,662.543201646895 C 548.753790459255,662.9930398824241 547.0699888927859,663.889974896579 546.8545170025659,664.5363905672393 C 546.5665616243475,665.4002567018944 549.0061865545445,665.7076392843732 556.0612322890207,665.6963983560879 C 561.7580960240127,665.6873214430378 569.2944195982137,664.9138012475983 574.6015551250767,663.793439439521 C 579.5195673871374,662.7552234222026 586.3279824167731,660.6254380115348 589.7313663020453,659.0605829713704 C 593.1347501873176,657.4957279312061 597.0742965774518,654.9478519288434 598.4859138356769,653.3986362994532 C 599.897531093902,651.8494206700631 601.5817989430062,648.9255760287616 602.2287312781308,646.901203763228 C 602.9169218545378,644.7477267446275 603.1296129952054,641.5906917001987 602.7413343721281,639.292490365235 C 602.3763337387022,637.1320702618727 600.991749736929,633.4214830841643 599.6644810348545,631.0467410814384 C 598.3372123327798,628.6719990787127 594.9749447440622,624.6679678084652 592.1927752821489,622.1488938142217 C 589.4106058202354,619.6298198199781 582.9613858171042,614.8310515822897 577.8611752751906,611.4849643971361 C 572.7609647332769,608.1388772119823 566.8310548687554,604.3969802519174 564.683597798476,603.1696378192139 C 562.5361407281964,601.9422953865105 556.1669782811177,598.5788021850233 550.5299034716343,595.6952084825756 C 544.8928286621508,592.8116147801279 536.1077770110077,588.6852748145203 531.0075664690941,586.5255641145586 C 525.9073559271803,584.365853414597 517.1223042760373,580.9215208244098 511.48522946655385,578.8714916919204 C 505.8481546570703,576.821462559431 497.5023555884844,574.0387713267642 492.9390093141406,572.6877333971053 C 488.37566303979685,571.3366954674464 481.34762171888235,569.3396176941704 477.32113971210845,568.2497827898255 C 473.2946577053345,567.1599478854806 467.3647478408129,565.764595874438 464.1435622353938,565.1490005430644 C 460.9223766299746,564.5334052116909 455.4317193480102,563.4447531035282 451.9421016088061,562.7297736360364 C 448.4524838696021,562.0147941685444 440.32631109229476,560.7435475989711 433.88393988145646,559.9047812592066 C 427.44156867061815,559.0660149194422 417.09339376747573,557.9312934804608 410.88799565225105,557.3831780614703 C 404.6825975370264,556.8350626424797 382.93959470044723,556.3853185020052 362.57021157096403,556.3837466381938 C 342.20082844148084,556.3821747743823 319.60505965283664,556.8215433355056 312.35739204064356,557.3601212184677 C 305.1097244284505,557.89869910143 292.5910258255716,559.0235615906952 284.5380618120237,559.8598156390569 C 276.4850977984759,560.6960696874187 265.94303581710415,561.979126384122 261.11125740897546,562.7110527428418 C 256.2794790008468,563.4429791015616 249.15921525745196,564.5524135204693 245.28844909032034,565.1764625626364 C 241.41768292318872,565.8005116048034 237.24478338889574,566.4420991611014 236.01533901411375,566.6022126877428 C 234.78589463933173,566.7623262143843 229.16783348856904,567.8660642123417 223.53075867908555,569.0549637943149 C 217.89368386960206,570.243863376288 208.44975334462322,572.2337949611006 202.5442464013548,573.477033982787 C 196.63873945808638,574.7202730044735 188.51256668077903,576.619494050654 184.4860846740051,577.6975251965214 C 180.45960266723117,578.7755563423887 172.99230876375952,580.8045376452626 167.8920982218459,582.2063725362412 C 162.79188767993227,583.6082074272198 157.08160410668927,585.1738827557796 155.20257917019475,585.6856510441518 C 153.32355423370026,586.1974193325241 146.07784104618014,588.5638146514949 139.10099430903892,590.9443073085315 C 132.1241475718977,593.324799965568 125.97461141609755,594.9225778181598 125.43535840726076,594.4949247587352 C 124.896105398424,594.0672716993108 120.94087773073669,592.5192857554372 116.64596359017783,591.0549559945715 C 112.35104944961897,589.5906262337057 104.44450296359018,586.3246547512825 99.07586028789163,583.7972415891865 C 93.70721761219306,581.2698284270905 86.08037580607026,577.0708011790144 82.12732294095208,574.4660699267952 C 78.17427007583389,571.861338674576 73.70124483090956,568.0202064664912 72.18726684112023,565.9302205754957 C 70.67328885133091,563.8402346844999 69.14940184124688,560.831840456804 68.8008512631557,559.2449000695046 C 68.36046393095641,557.2398296795791 68.82179580318478,555.0071802362185 70.31299347200674,551.9267769045781 C 71.65278341605647,549.1591401964217 74.34139921385999,546.0745901347616 77.47036892019617,543.7153831836627 C 80.22669662374112,541.6371439905694 85.11738933107537,538.5507647866222 88.33857493649451,536.8567627304468 C 91.55976054191363,535.1627606742715 98.14854928027097,532.0997426242367 102.98032768839967,530.0500559525917 C 107.81210609652838,528.0003692809468 117.69528920406437,524.3485492345611 124.94295681625742,521.934900293957 C 132.1906244284505,519.5212513533528 139.8775446232007,517.0634172058632 142.0250016934801,516.473046632869 C 144.17245876375952,515.8826760598747 150.0350155227,514.2806487074639 155.05290560223673,512.9129858497338 C 160.0707956817734,511.5453229920038 169.29509991547366,509.3394064308989 175.55135945490395,508.0109490472787 C 181.80761899433423,506.6824916636585 192.1974077900085,504.5515104756336 198.63977900084677,503.2754352961125 C 205.08215021168502,501.9993601165914 213.42794928027098,500.4736160977415 217.18599915325996,499.8848930320016 C 220.94404902624896,499.2961699662618 228.4113429297206,498.1800019830207 233.77998560541917,497.4045197359101 C 239.1486282811177,496.6290374887996 249.25143767993228,495.31952026447703 256.23067315834044,494.4944814596377 C 263.20990863674854,493.6694426547984 275.948233530906,492.43287981915813 284.5380618120237,491.74656404710373 C 293.12789009314145,491.0602482750494 314.65126663844205,490.50572637441337 332.3677874682473,490.51429315680144 C 350.0843082980525,490.5228599391895 371.16843226079595,491.0542240442408 379.2213962743438,491.6951022791375 C 387.2743602878917,492.33598051403425 397.8164222692634,493.49331442133456 402.6482006773921,494.2669554064715 C 407.47997908552077,495.04059639160846 416.4846570279425,496.4255610919391 422.6585961049958,497.3446547405396 C 428.8325351820491,498.2637483891401 437.4598598968733,499.60671842206347 441.8304288046051,500.3290325914805 C 446.20099771233686,501.0513467608974 451.6916549943013,502.07343495110433 454.0318894311927,502.6003396808292 C 456.37212386808415,503.1272444105541 461.80088179508897,504.3102539248755 466.0957959356478,505.2292497126545 C 470.39071007620663,506.1482455004335 476.97949881456395,507.66758304684146 480.737548687553,508.60555537133865 C 484.49559856054196,509.5435276958359 493.72443306599536,512.101319054507 501.2460698107827,514.2895361683857 C 508.76770655557016,516.4777532822642 519.7824855239196,520.0020260086696 525.7233564071148,522.1212533381756 C 531.6642272903101,524.2404806676817 541.237112876024,527.9870849799316 546.9964354864788,530.4470406987311 C 552.7557580969336,532.9069964175308 561.6580630808736,536.9580673045073 566.7793354507897,539.449420447568 C 571.900607820706,541.9407735906285 578.7254747317955,545.9597193520353 581.9457063643221,548.3804110284718 C 585.1659379968487,550.8011027049084 588.2694950720893,553.8106210554919 588.8424998648567,555.0682295853242 C 589.6799761018493,556.9062897071026 589.5315896979039,557.7445606158486 588.0859916773223,559.3419284484049 C 587.0969073814111,560.4348542932672 584.0622588602319,562.5755996142398 581.3423282969237,564.0991402727886 C 578.6223977336157,565.6226809313374 573.3222319221,567.9687462420178 569.564182049111,569.3126187409672 C 565.806132176122,570.6564912399167 560.7547274767147,572.3045039885737 558.3388382726504,572.9748692935386 C 555.9229490685859,573.6452345985034 552.1893021168502,574.7260587413681 550.0418450465708,575.3767007221268 C 547.256181886292,576.2207080000438 546.1373776460628,577.0957798401312 546.1373776460628,578.430576771098 C 546.1373776460628,580.1342835583062 546.8351884656882,580.2844838170614 553.9463124470788,580.1114105941455 C 558.2412265876376,580.006879350646 564.6103890347164,579.4427998684824 568.1000067739204,578.8579006337818 C 571.5896245131246,578.2730013990812 577.7391606689247,576.851726937511 581.7656426756986,575.6995129414037 C 585.7921246824725,574.5472989452963 591.4236758011185,572.1319974432665 594.2802007171339,570.3321762702266 C 598.214536525911,567.8532548189256 599.9588503045487,565.9634237105588 601.4739437566024,562.5383036607924 C 603.0128525615376,559.0593450556971 603.3386423793827,556.8739065648549 602.8869243501001,553.0598546525724 C 602.4722452948118,549.5585389173625 601.2196731646841,546.5375776212269 598.6215318610126,542.7725543746664 C 596.598460421283,539.8408774141903 592.5273309483489,535.5538536233487 589.5745774767147,533.2458348394628 C 586.6218240050805,530.9378160555767 580.4722878492803,526.5646509723001 575.9089415749365,523.527690209959 C 571.3455953005928,520.4907294476179 560.1446544453853,514.1668109801317 551.0179618966978,509.4745380599896 C 541.8912693480102,504.7822651398475 529.2835897563622,498.9361758772889 523.0008961374798,496.48322858763737 C 516.7182025185973,494.0302812979857 510.3490400715186,491.72953351474285 508.8472018106381,491.3704557359864 C 507.3453635497575,491.01137795723 505.6773342082981,490.4017307225712 505.1404699407282,490.0156841034113 C 504.6036056731584,489.62963748425136 500.650332430144,488.2122508155307 496.35541828958515,486.86593595069866 C 492.0605041490263,485.5196210858667 483.9343313717189,483.2874814494728 478.2972565622354,481.90562564760125 C 472.66018175275195,480.52376984572965 465.1928878492803,478.7486996323685 461.70327011007623,477.96102517346554 C 458.2136523708722,477.1733507145625 452.2837425063506,476.06155189959793 448.5256926333616,475.49036114021095 C 444.7676427603726,474.919170380824 436.8610962743438,473.7953834252929 430.95558933107543,472.9930567945865 C 425.050082387807,472.19073016387995 412.5313837849281,470.97340318756875 403.1362591024556,470.2878857361172 C 393.7411344199831,469.6023682846656 375.5121522438612,469.03758799598376 362.62740982218463,469.0328184279352 C 349.7426674005081,469.0280488598867 330.6351800592719,469.59013539982817 320.16632684165967,470.28189962780516 C 309.6974736240474,470.9736638557822 295.20213839966135,472.1912412240686 287.95447078746827,472.9876271128862 C 280.7068031752752,473.7840130017037 270.8236200677392,474.8888270898181 265.99184165961054,475.44276953091816 C 261.16006325148186,475.99671197201815 253.253516765453,477.1199357794698 248.42173835732433,477.93882243636625 C 243.58995994919565,478.75770909326275 236.122666045724,480.0592353102406 231.82775190516514,480.83110291853916 C 227.53283776460628,481.60297052683785 221.38330160880614,482.7111582764702 218.16211600338698,483.2937423621667 C 214.94093039796783,483.87632644786316 206.8147576206605,485.6647025333676 200.10395427603729,487.2679114410654 C 193.39315093141408,488.87112034876316 187.02398848433532,490.3586737909601 185.9502599491956,490.5735857570586 C 184.8765314140559,490.7884977231571 179.8251267146486,492.1059592616165 174.724916172735,493.50127806474615 C 169.62470563082135,494.89659686787576 163.47516947502118,496.6463223550711 161.05928027095683,497.3895569251802 C 158.6433910668925,498.1327914952893 152.4938549110923,500.0426554907256 147.39364436917867,501.63369913726075 C 142.29343382726506,503.22474278379593 133.77750338156085,506.07531891302216 128.46935448983598,507.96831275776356 C 118.81817468669988,511.41011974820225 118.81817468669988,511.41011974820225 109.96403750196237,507.9906486994187 C 105.09426205035673,506.1099396225877 97.22316871014593,502.5218732518099 92.4727189681606,500.0171678754679 C 87.72226922617527,497.5124624991259 81.36003283507885,493.4676537301039 78.33441587683527,491.02870394430784 C 75.1031621205719,488.4239903386351 71.86514223069013,484.7116322854772 70.4869367599945,482.0316460857608 C 68.73889627191025,478.63249807465417 68.31279011657877,476.6849720600212 68.81592037639881,474.39423499180725 C 69.18735792144001,472.70309092653764 70.85544832367202,469.76570449334065 72.5227879369144,467.8667095847028 C 74.19012755015677,465.967714676065 78.549573033968,462.44070613193986 82.21044456760602,460.02891281998035 C 85.87131610124402,457.6171195080208 91.16366390206929,454.772052083532 93.97121745832882,453.7065407655609 C 96.77877101458836,452.64102944758974 99.51511287044879,451.4282151312378 100.05197713801864,451.01139784033427 C 100.5888414055885,450.5945805494307 104.69990590179054,448.85249549551844 109.18767601846763,447.14009772052924 C 113.67544613514471,445.42769994554 122.01968786481879,442.49607271700137 127.73043541774335,440.62537054599903 C 133.4411829706679,438.7546683749966 142.28806965990194,436.101694943885 147.39018361604118,434.7298740324175 C 152.49229757218043,433.35805312095016 161.71815914479257,430.9526459261239 167.8920982218459,429.3845247105815 C 174.06603729889923,427.816403495039 181.31370491109232,426.1516172129484 183.99802624894158,425.68499963926894 C 186.68234758679088,425.2183820655895 195.46739923793396,423.5249486838162 203.52036325148183,421.9218143464394 C 211.57332726502966,420.31868000906275 222.11538924640138,418.4951291926533 226.9471676545301,417.8694791988629 C 231.77894606265878,417.2438292050726 240.3443714225233,416.1013554398802 245.9814462320068,415.3306486095464 C 251.61852104149025,414.5599417792127 262.81946189669776,413.18102696797985 270.87242591024557,412.2663934734735 C 281.49415160832086,411.0600070949208 296.47510787689794,410.49510543510524 325.4361029040701,410.2089072124592 C 358.365699195137,409.88349049517745 367.93984770592846,410.1028261908772 380.09864651118266,411.4611801448528 C 388.20598716203904,412.3669142067207 396.5962762066046,413.25054158606497 398.74373327688403,413.42479654339564 C 400.89119034716344,413.5990515007263 406.16222133784936,414.2408637677758 410.4571354784082,414.85104602572784 C 414.752049618967,415.4612282836799 422.4389698137172,416.61460754759946 427.5391803556309,417.4141110566602 C 432.6393908975445,418.213614565721 440.1066848010161,419.5124523128831 444.1331668077901,420.3004171614649 C 448.159648814564,421.0883820100467 454.7484375529213,422.4062056927131 458.7749195596952,423.22891423405684 C 462.80140156646917,424.0516227754006 468.29205884843356,425.1934663611154 470.9763801862829,425.76634442453417 C 473.66070152413215,426.33922248795295 478.93173251481795,427.65389695937074 482.689782387807,428.68784324990685 C 486.447832260796,429.721789540443 491.93848954276046,431.2287697570233 494.8912430143946,432.0366881756409 C 497.8439964860288,432.84460659425844 505.75054297205764,435.29821014317463 512.4613463166809,437.48914050656583 C 519.172149661304,439.68007086995704 531.480561712157,444.2171930463868 539.8133730963543,447.57163423196516 C 548.1461844805515,450.9260754175436 559.9525193207161,456.12688339173883 566.0496727411645,459.12898528573237 C 572.1468261616128,462.1310871797259 579.5173369958934,466.4249985487327 582.4285857062322,468.6710105501919 C 585.3398344165711,470.91702255165103 588.1780172270383,473.60718348352543 588.7356586183813,474.6491459543572 C 589.5594247303145,476.1883670141676 589.2297769556923,477.0914283926011 586.9777434291016,479.46490822006405 C 585.4532486836547,481.07161499537114 581.7442574892298,483.63644880494905 578.7355407748242,485.164538908015 C 575.7268240604187,486.692629011081 567.3997164585577,489.7438044108882 560.230857215133,491.94492868536435 C 553.0619979717086,494.14605295984046 547.0137984213782,496.1297420810233 546.7904137699546,496.3531267324374 C 546.5670291185309,496.57651138385154 546.6443649446011,497.4371036338087 546.9622711612218,498.26555395456455 C 547.3594598441653,499.3006110707258 548.8476644566679,499.7692907347817 551.7194143057505,499.76371908059144 C 554.0179368186208,499.7592595791504 560.6421195614932,499.12925692047514 566.4398204010226,498.36371317242396 C 572.237521240552,497.5981694243729 580.5347424280467,495.78834217344894 584.8780897065661,494.34187483703744 C 590.1015473913192,492.6023038472872 594.0722711140911,490.5400042834024 596.6066654791993,488.2503312319824 C 598.7140348756278,486.34644958561364 601.115696673086,483.47868348031915 601.9436916957728,481.87751766466135 C 602.9909229142714,479.8523957953194 603.3075208834263,477.28587496005986 602.9838622235321,473.44531154898647 C 602.6825779845032,469.87024507269723 601.6617844147146,466.56995019216714 600.087663771143,464.0817054210604 C 598.7506558547483,461.96826959866434 595.8016979162048,458.38739239511887 593.5344239077131,456.1242005242927 C 591.2671498992213,453.86100865346657 584.287445421908,448.5955700347726 578.0239695136836,444.42322581608397 C 571.7604936054591,440.2508815973954 559.1685375952584,433.0671256673134 550.0418450465708,428.45932374923524 C 540.9151524978831,423.85152183115696 527.7375750211685,417.8536343481236 520.7583395427604,415.1306848980499 C 513.7791040643523,412.4077354479762 502.3585369178662,408.3977393551648 495.3793014394581,406.2195824695801 C 488.40006596105,404.0414255839955 478.07763027095683,401.1916815168023 472.44055546147337,399.88681787581754 C 466.8034806519899,398.5819542348328 459.8876810864471,397.030556094474 457.07211198248945,396.43926645279794 C 454.2565428785317,395.84797681112195 447.44812784889587,394.70496763150396 441.94230080552074,393.89924605364695 C 436.4364737621457,393.09352447579 429.51581697713806,392.2401241752144 426.56306350550386,392.00280094125696 C 423.61031003386967,391.76547770729945 417.2411475867909,391.0488992716666 412.4093691786622,390.41040441762834 C 406.8563268834581,389.6765982224229 388.72116327513373,389.2417562307315 363.11546824724815,389.22844331034526 C 339.27590459027175,389.21604863749354 317.98741933642566,389.6740001135515 311.38127519051653,390.3413336729281 C 305.2073361134632,390.9650071273162 297.08116333615584,391.66099083421597 293.32311346316686,391.8879641327054 C 289.56506359017783,392.1149374311949 282.53702226926333,392.78009219656605 277.70524386113465,393.3660858335302 C 272.87346545300596,393.9520794704943 264.3080400931414,395.0949122968128 258.67096528365795,395.90571433646016 C 253.03389047417448,396.71651637610745 244.68809140558852,398.0373924873093 240.12474513124474,398.8409945835754 C 235.56139885690095,399.6445966798415 229.19223640982221,400.7519812929195 225.97105080440306,401.3018492793042 C 222.7498651989839,401.8517172656889 217.2592079170195,402.9198184590416 213.76959017781545,403.6754074867547 C 210.27997243861137,404.43099651446784 202.59305224386117,406.1934206849749 196.68754530059275,407.5919056434372 C 190.7820383573243,408.99039060189943 185.29138107535988,410.2792534491855 184.4860846740051,410.4560453040728 C 183.68078827265032,410.63283715896017 179.50788873835734,411.71959165684456 175.2129745977985,412.87105529937145 C 170.91806045723965,414.0225189418984 166.30590834038952,415.3270683585651 164.9637476714649,415.77005400307524 C 163.62158700254022,416.21303964758545 160.54681892464015,417.1342305910578 158.1309297205758,417.8171449885695 C 155.71504051651146,418.5000593860812 147.83116864881362,420.9943086110539 140.61121445902504,423.35992104406444 C 127.97583202705515,427.4998943723143 127.3541423042543,427.6062567166631 124.01722800686584,426.1989181135216 C 122.11048964796686,425.3947540687125 118.79342066045726,424.20425718672817 116.64596359017783,423.5533694868898 C 114.4985065198984,422.90248178705133 107.90971778154108,420.174908578064 102.00421083827266,417.49209568914006 C 96.09870389500425,414.80928280021624 87.66183350278712,410.2841478350381 83.25560996667905,407.4362402109665 C 78.7087155879477,404.4974117423421 73.98811505032138,400.52412107651753 72.3394370167184,398.248187177694 C 70.74176543034815,396.0426656334657 69.14940184124411,392.9397422349464 68.80085126315393,391.3528018476511 C 68.3612659554997,389.35138305156016 68.81944026695838,387.11994790290714 70.29643964007778,384.06887433639474 C 71.78969328257382,380.9842239298778 74.21930555376997,378.39300868096564 78.42993193839423,375.3943917779363 C 81.73222851706996,373.0426461146798 87.94812819644369,369.41106505691283 92.24304233700255,367.3242116495652 C 96.53795647756141,365.2373582422175 103.56599779847588,362.13604193504176 107.86091193903472,360.432397633619 C 112.15582607959358,358.7287533321963 117.64648336155801,356.6241877049236 120.06237256562237,355.75558512856867 C 122.47826176968671,354.8869825522137 128.84742421676546,352.90110562524336 134.21606689246403,351.3425252908569 C 139.5847095681626,349.78394495647035 146.17349830651992,347.8625101796946 148.8578196443692,347.07267023135523 C 151.54214098221848,346.28283028301587 158.57018230313295,344.5030421908151 164.47568924640137,343.1175855820203 C 170.3811961896698,341.73212897322543 178.72699525825573,339.75614245315086 183.02190939881459,338.7265044262991 C 187.31682353937344,337.6968663994473 197.20000664690943,335.7660880078181 204.98453852667234,334.4358857782343 C 212.76907040643525,333.1056835486505 223.53075867908555,331.32341335407773 228.89940135478412,330.47528534585024 C 234.26804403048266,329.62715733762286 240.19795389500425,328.76362997780245 242.07697883149876,328.55633565736053 C 243.95600376799325,328.34904133691856 249.66628734123628,327.69143072037986 254.7664978831499,327.09497873171887 C 259.86670842506356,326.4985267430579 271.067649280271,325.35140892463255 279.6574775613887,324.54582802410704 C 290.25960629442835,323.5515273078721 306.79428457835706,323.0833099974922 331.14268305642884,323.08790643486884 C 355.9542082028761,323.09259030028437 371.4495269652408,323.5465448554838 381.4127008379699,324.5606288687765 C 389.3341758766631,325.36690218098124 399.7686559695174,326.4789287887266 404.6004343776461,327.0317991082107 C 409.4322127857748,327.5846694276947 417.7780118543607,328.7209667343886 423.1466545300593,329.556904234197 C 428.51529720575786,330.39284173400546 440.59474322607963,332.59953991191793 449.9898679085521,334.4606779628912 C 459.3849925910246,336.3218160138645 469.70742828111776,338.44008947975453 472.9286138865369,339.1679523315356 C 476.149799491956,339.89581518331676 483.09703462283056,341.61055221782505 488.3669141773692,342.9784790748875 C 493.63679373190797,344.3464059319499 499.34707730515095,345.9080765953578 501.0564332290204,346.44885832690494 C 502.7657891528899,346.98964005845215 510.31388924640135,349.4738362830571 517.8299889923794,351.96929438158253 C 525.3460887383574,354.464752480108 535.6685244284505,358.1699112999371 540.7687349703641,360.2029806478694 C 545.8689455122778,362.2360499958017 555.9717549110924,366.7638564933127 563.2194225232854,370.26477286456054 C 570.4670901354784,373.76568923580834 578.8097764493089,378.4414870464138 581.7587254429085,380.65543466590594 C 584.7076744365081,382.86938228539816 587.7667840530803,385.74600698065314 588.5567468130686,387.0479339886947 C 589.8946126799858,389.2528527437284 589.8075190163964,389.6087190447457 587.28587210388,392.24075127501095 C 585.796928253838,393.79487377444326 582.2985660547088,396.2058706711189 579.5117338835929,397.5985221565124 C 576.7249017124772,398.9911736419058 571.369998221846,401.1844325488598 567.6119483488569,402.4724308386323 C 563.8538984758679,403.76042912840484 557.9239886113464,405.58513571555085 554.4343708721423,406.5273343656234 C 550.9447531329382,407.46953301569596 547.5080819672334,408.4084153503168 546.7973238372426,408.6137395536697 C 546.0865657072518,408.81906375702255 545.6511024826231,409.7570766876538 545.829627782512,410.6982127328504 C 546.0682609509314,411.9562208500117 547.2785341712611,412.49022112985585 550.3998020305953,412.71467834277956 C 552.7348725671521,412.88259838304407 559.5394982388596,412.31700272128177 565.5211924121676,411.4577990944189 C 571.5028865854755,410.59859546755604 579.7713919230744,408.7878662722414 583.8956487179429,407.43395643816416 C 588.0199055128114,406.080046604087 593.1691924577847,403.68657485579104 595.3385085956612,402.11513033083986 C 597.5078247335379,400.5436858058887 600.2239804845251,397.4129350173844 601.3744102645221,395.15790635638587 C 603.0783901161856,391.8178299170612 603.3506988872103,390.07596428189913 602.8435101228571,385.76057938735727 C 602.4106183372782,382.0773458385203 601.2004379517222,378.92588409104064 598.8717046347824,375.4174989561312 C 597.029636474254,372.64230589092404 592.75663863198,368.1666012371723 589.3761538741736,365.47148861446067 C 585.9956691163671,362.7763759917491 580.8139287468248,359.01599924079113 577.8611752751906,357.1150958345541 C 574.9084218035564,355.21419242831706 570.0766433954276,352.19959824080036 567.1238899237934,350.4159976400724 C 564.1711364521593,348.6323970393445 556.7038425486877,344.5697777944158 550.5299034716343,341.38795487356424 C 544.3559643945808,338.20613195271267 533.5942761219306,333.27483189293895 526.6150406435224,330.4295102962894 C 519.6358051651143,327.5841886996398 509.0937431837426,323.6647120599231 503.1882362404742,321.7195622080301 C 497.2827292972058,319.7744123561371 491.1331931414056,317.78244453994324 489.52260033869607,317.2929670609328 C 487.9120075359865,316.8034895819223 482.86060283657923,315.47173424355475 478.2972565622354,314.3335107534494 C 473.73391028789166,313.1952872633439 468.41374649540734,311.84631909657077 466.47467035671474,311.3358037161758 C 464.5355942180222,310.8252883357807 459.04493693605775,309.7200380271091 454.27320973012706,308.8796919191277 C 449.5014825241965,308.03934581114635 444.35816498923214,307.18832619465053 442.84361520798404,306.9885372158038 C 441.32906542673595,306.788748236957 435.3991555622144,305.9632033162152 429.6660377312694,305.1539929474887 C 423.93291990032446,304.3447825787622 412.65339839119395,303.21423254184884 404.6004343776461,302.6416595321257 C 396.5474703640983,302.06908652240253 377.439983022862,301.6043954545805 362.1393513971211,301.60901271474336 C 346.8387197713802,301.61362997490625 327.29197984758684,302.07214887989187 318.7021515664691,302.62794361471134 C 310.1123232853514,303.18373834953087 296.93474580863676,304.3106557935555 289.4186460626588,305.1322046014328 C 281.9025463166808,305.9537534093101 274.2156261219306,306.7655785571895 272.3366011854361,306.9362604856093 C 270.45757624894156,307.10694241402916 265.4061715495343,307.75920875232896 261.11125740897546,308.3857412373868 C 256.81634326841663,309.0122737224446 250.8057765676981,309.95894581911125 247.75444251848984,310.4894570077572 C 244.7031084692816,311.01996819640306 240.53020893498862,311.65739545750426 238.48133244228325,311.9059620324265 C 236.43245594957784,312.15452860734877 231.4617080863675,313.0469098267234 227.43522607959358,313.88903140881456 C 223.40874407281967,314.7311529909058 217.0395816257409,316.0539163600987 213.28153175275193,316.82850556257654 C 209.52348187976293,317.60309476505444 198.9814198983912,320.0116601735507 189.85472734970367,322.18087313701267 C 180.72803480101612,324.35008610047464 167.3308310330229,327.8906461651641 160.08316342082983,330.0487843918782 C 152.83549580863675,332.2069226185922 144.27007044877226,334.83231961397456 141.0488848433531,335.88299993717237 C 137.82769923793396,336.9336802603702 134.31367857747674,338.17331576189963 133.23995004233703,338.63774549612674 C 132.16622150719732,339.1021752303538 129.25905433314566,340.2017649713309 126.77957854444448,341.08127825385355 C 122.27144074680596,342.6803933129856 122.27144074680596,342.6803933129856 112.1304824936756,338.763361195528 C 106.5529554544539,336.6089935309262 98.0395554820195,332.81821192852453 93.21181588826585,330.3394020790797 C 88.38407629451218,327.8605922296349 82.45747091447926,324.2751667162995 80.04158171041492,322.3717898272233 C 77.62569250635056,320.4684129381472 74.62338868327886,317.7659586911897 73.36979543692225,316.36633594509584 C 72.11620219056563,314.9667131990019 70.44409808971773,312.34849397278083 69.65400854614913,310.54807099793794 C 68.76018298594337,308.51125873128314 68.4656003064516,306.144899900656 68.87424970987693,304.2843313539248 C 69.23547189349583,302.6396975245604 71.52141590491075,299.16619094419667 73.954125290799,296.5654278420053 C 76.38683467668724,293.96466473981394 81.49704030631004,290.12444539469607 85.3101378010719,288.0316070750766 C 89.12323529583375,285.9387687554571 96.85519445385268,282.2787361614925 102.49226926333617,279.8982013107107 C 108.12934407281966,277.51766645992893 116.69476943268417,274.2086318471883 121.52654784081288,272.54479106017607 C 126.35832624894158,270.88095027316376 134.70412531752754,268.21457100811415 140.07276799322608,266.61950380451015 C 145.44141066892465,265.02443660090614 155.54422006773922,262.3516647423749 162.52345554614735,260.68001078555176 C 169.50269102455547,259.00835682872867 176.75035863674853,257.23459645504767 178.62938357324302,256.73832106626077 C 180.50840850973754,256.2420456774738 185.5598132091448,255.15233635855796 189.85472734970367,254.31674480200326 C 194.14964149026252,253.48115324544864 201.177682811177,252.15399782331335 205.47259695173582,251.36751053059157 C 209.76751109229468,250.5810232378698 218.33293645215923,249.08626809529952 224.50687552921255,248.04583243599097 C 230.6808146062659,247.0053967766825 240.12474513124474,245.67266646296835 245.4933878069433,245.08420951662626 C 250.86203048264184,244.49575257028417 261.40409246401356,243.37921794381458 268.92019220999157,242.60302145780494 C 276.4362919559695,241.82682497179528 293.6190327921345,240.68114949872108 307.1040607348026,240.05707596208447 C 325.57113598767415,239.2024382844028 337.4960785293596,239.19640688664222 355.4218448160896,240.03263779194768 C 368.5115981181294,240.64327033500905 381.4176591871296,241.37422939827832 384.10198052497884,241.6569912658794 C 386.78630186282817,241.9397531334805 392.05733285351397,242.5664633104393 395.815382726503,243.0496805480101 C 399.57343259949204,243.53289778558087 406.6014739204065,244.41797230367996 411.43325232853516,245.01651281045253 C 416.2650307366639,245.6150533172251 424.1715772226927,246.7582148327153 429.0033556308214,247.5568717337641 C 433.83513403895006,248.3555286348129 444.81644860287895,250.32974241827534 453.40627688399667,251.9440134747917 C 461.9961051651144,253.5582845313081 471.000783107536,255.4746997170349 473.4166723116004,256.20271388751803 C 475.83256151566474,256.93072805800114 478.90732959356484,257.7276612901863 480.2494902624895,257.97367662570724 C 481.5916509314141,258.21969196122825 487.08230821337855,259.60720721527406 492.4509508890771,261.0570438569202 C 497.8195935647757,262.5068804985664 507.92240296359023,265.61342210508064 514.9016384419983,267.96046964917423 C 521.8808739204064,270.3075171932678 529.7874204064353,273.0634439601947 532.4717417442846,274.0847513534563 C 535.1560630821339,275.1060587467178 541.7448518204911,277.8135434762323 547.1134944961897,280.10138408571083 C 552.4821371718883,282.3892246951893 561.6546235693503,286.69673016539093 567.4967976016609,289.6736184639367 C 573.3389716339714,292.6505067624824 580.6964523918037,297.2311768945276 583.8467548412883,299.85288542403714 C 586.9970572907728,302.4745939535466 589.5745774767147,305.2169904725488 589.5745774767147,305.94709991070874 C 589.5745774767147,306.67720934886864 588.1323097887702,308.5280193575359 586.3695381701713,310.06001104108054 C 584.6067665515723,311.59200272462516 580.3240538716401,314.11400728595083 576.8523988814329,315.6644656218043 C 573.3807438912256,317.21492395765773 569.6617937341236,318.8307561486646 568.5880651989839,319.25520382404176 C 567.5143366638442,319.6796514994189 564.4395685859441,320.6690084843117 561.7552472480949,321.45377490158137 C 559.0709259102456,322.238541318851 554.3260158796388,323.6357632621385 551.2110027356354,324.5587125533314 C 546.9698115986349,325.8153378620379 545.6271923224568,326.6389845814439 545.8652702283024,327.83811954577413 C 546.1414042959356,329.22893325511745 547.5916728169524,329.3988060918896 556.8975731658254,329.1303551345414 C 563.3423695492108,328.9444395654752 570.9182229354496,328.0204779994694 575.9089415749365,326.81170232651544 C 580.4722878492803,325.7064382629299 586.6218240050805,323.73520673549086 589.5745774767147,322.4311878210953 C 592.5273309483489,321.12716890669986 596.1903796472878,318.87616830113285 597.714685696579,317.42896425316866 C 599.2389917458701,315.98176020520447 601.0292493484338,313.6995527095682 601.6930359244984,312.35739204064356 C 602.3568225005631,311.0152313717189 603.0070031443494,308.0928304823646 603.1378817995791,305.8631678420784 C 603.2813452897642,303.4191086198192 602.5553008962637,299.90183420678727 601.3095792404009,297.00607608812504 C 600.011601506114,293.9888454377505 596.8106310252291,289.83348073775994 592.7007419955833,285.83044713162474 C 589.102326573711,282.3255890299377 584.181531879763,278.1461923373201 581.7656426756986,276.542898925808 C 579.3497534716342,274.9396055142959 575.6161065198985,272.51249414323263 573.4686494496191,271.1493181012229 C 571.3211923793395,269.78614205921315 565.1684431901493,266.21524140493597 559.7958734736407,263.2139833139402 C 554.423303757132,260.2127252229445 544.540120649596,255.28690900515974 537.833244345783,252.26772505219637 C 531.1263680419698,249.24854109923297 522.783782006774,245.69687886333364 519.29416426757,244.37514230575334 C 515.8045465283658,243.05340574817308 507.0194948772227,240.0566786468296 499.7718272650297,237.71574874721227 C 492.5241596528366,235.37481884759495 484.17836058425064,232.7747673382037 481.2256071126165,231.9378565041206 C 478.2728536409823,231.1009456700375 473.0018226502964,229.78083674622073 469.51220491109234,229.00428111786107 C 466.0225871718883,228.22772548950144 459.43379843353097,226.9058069959905 454.87045215918715,226.06668446561457 C 450.3071058848434,225.22756193523864 442.4005593988146,223.90072170107211 437.300348856901,223.11815061191126 C 432.2001383149873,222.33557952275038 422.75620779000855,221.13703202670777 416.31383657917024,220.4547117318166 C 408.75771723060745,219.65443285725084 389.70350415453476,219.21028328339273 362.62740982218463,219.20329276894049 C 337.37569343353044,219.1967732729529 314.82137078992986,219.67905885280092 306.012632514818,220.41390286497884 C 297.95966850127013,221.08569855249058 285.88022248094836,222.29557629585335 279.1694191363252,223.10252007245165 C 272.45861579170196,223.90946384904993 262.35580639288736,225.2362721481398 256.7187315834039,226.05098295931796 C 251.08165677392046,226.86569377049614 244.05361545300596,227.9812816617124 241.10086198137174,228.53006716202074 C 238.14810850973754,229.07885266232907 234.6340878492803,229.64789590703225 233.29192718035566,229.79460770580556 C 231.94976651143102,229.94131950457884 227.3376143945809,230.82419054689268 223.04270025402204,231.75654335539187 C 218.74778611346318,232.68889616389103 212.59824995766303,234.05668994715998 209.37706435224388,234.79608509598953 C 206.15587874682473,235.53548024481904 200.8848477561389,236.62603559823268 197.66366215071974,237.21954143690863 C 194.4424765453006,237.81304727558458 189.83032442845047,238.87672840904963 187.41443522438612,239.58327728905317 C 184.99854602032178,240.2898261690567 180.16676761219307,241.61410527001107 176.67714987298902,242.52611973561835 C 173.18753213378497,243.43813420122567 168.57538001693482,244.63962231498618 166.4279229466554,245.19609332175284 C 164.28046587637598,245.7525643285195 161.42532408975447,246.56780400080916 160.08316342082983,247.0077370379521 C 158.74100275190517,247.44767007509506 153.03071917866217,249.20290066157577 147.39364436917867,250.9082494523537 C 141.75656955969518,252.61359824313163 135.09372150589087,254.8769361533121 132.58731536072466,255.93788925275476 C 128.03021327860426,257.866894888105 128.03021327860426,257.866894888105 121.36197158426403,255.62834716486185 C 117.6944386523769,254.39714591707818 113.59559843353092,252.82375754749634 112.25343776460628,252.13192856579116 C 110.91127709568164,251.44009958408606 109.45141266377857,250.87135156831621 109.00929458259945,250.86804408630266 C 108.56717650142035,250.86473660428916 103.66846458226928,248.71125361000037 98.12326809559707,246.08252632121645 C 92.57807160892487,243.4537990324325 85.43980566327863,239.53652188316008 82.26045488304986,237.3774659894999 C 79.08110410282109,235.21841009583972 75.13144999709965,231.91620452882097 73.48344575922442,230.03923139612493 C 71.8354415213492,228.1622582634289 69.96725811048186,225.0514940917869 69.33192706840813,223.1264221258094 C 68.44807032832743,220.44830989833827 68.444607538066,218.81476501636726 69.31718261041136,216.17083657789465 C 69.94440420058686,214.27033649251902 71.9958922005934,211.22139744842994 73.87604483264815,209.3954164799189 C 75.75619746470288,207.56943551140785 80.2186726701024,204.34514655283647 83.79265640020265,202.23032990531587 C 87.36664013030287,200.11551325779524 95.34221333615581,196.19963164355542 101.51615241320916,193.52837076256074 C 107.6900914902625,190.85710988156603 118.12851170864892,186.85169585419888 124.71264178740118,184.62745070174483 C 131.29677186615345,182.40320554929076 141.83883384752517,179.22695512039698 148.13944619044946,177.5691164153142 C 154.44005853337373,175.91127771023142 165.96426744284506,173.10176258755791 173.74879932260797,171.32574947603976 C 181.53333120237087,169.5497363645216 192.29501947502118,167.19073479591512 197.66366215071974,166.08352376802534 C 203.0323048264183,164.97631274013557 210.7192250211685,163.57794920621677 214.74570702794244,162.97604924820578 C 218.77218903471638,162.37414929019477 226.01985664690943,161.27804130771406 230.85163505503812,160.54025373158197 C 235.68341346316683,159.80246615544985 245.34697027942423,158.5174755373823 252.32620575783238,157.6847190247652 C 259.3054412362405,156.85196251214813 272.2633924216766,155.5121309193081 281.1216528365792,154.7073154851207 C 291.66669704818287,153.74924765484906 308.8548833869763,153.24125019742232 330.90361219305674,153.2360079090716 C 349.4254294242168,153.23160417643197 370.0703008044031,153.68769791663917 376.7811041490263,154.24954955397646 C 383.4919074936495,154.81140119131376 392.2769591447926,155.6910275282922 396.3034411515665,156.20427474726188 C 400.3299231583404,156.71752196623157 409.5542273920407,158.03763296645403 416.80189500423376,159.13785474775622 C 424.0495626164268,160.23807652905845 431.69839974271395,161.36534580634537 433.7993108404274,161.6428975861716 C 435.90022193814076,161.92044936599785 444.0705397969508,163.416023830751 451.9555727488941,164.96639639673415 C 459.84060570083733,166.5167689627173 470.20112445939355,168.7332125899104 474.9789477679079,169.89182667938547 C 479.7567710764223,171.05044076886057 490.4743142675699,173.95414004932408 498.79571041490266,176.34449174708223 C 507.11710656223545,178.73484344484032 517.0002896697714,181.78821758678603 520.7583395427604,183.12976761807272 C 524.5163894157495,184.4713176493594 530.0070466977139,186.38039031127715 532.9598001693481,187.3721513112233 C 535.9125536409822,188.3639123111694 543.3798475444538,191.4653737491099 549.5537866215072,194.26428783997991 C 555.7277256985607,197.06320193084994 564.2931510584251,201.11229127827076 568.5880651989839,203.26226416758178 C 572.8829793395428,205.4122370568928 578.8936604834281,208.98535920992228 581.9451344076177,211.20253561875842 C 584.9966083318075,213.41971202759456 587.9816678987629,216.28687679147424 588.5786001119629,217.5740128718244 C 589.5154409662905,219.5940775265474 589.2905613910127,220.31368286481296 586.9349331048533,222.83367930078285 C 585.4339840377429,224.43935975635986 581.131166723116,227.1869176400551 577.3731168501271,228.93936348677224 C 573.6150669771381,230.6918093334894 566.8066519475021,233.23303905202494 562.2433056731584,234.58654063907343 C 557.6799593988146,235.94004222612196 552.5490930557312,237.32882547161563 550.8413804663064,237.67272562905939 C 549.1336678768814,238.01662578650314 547.2290291914572,238.90940148868742 546.6088500542525,239.6566716339133 C 545.9886709170477,240.4039417791392 545.7646164909999,241.47383861292147 546.110951329702,242.0342201534294 C 546.4572861684038,242.5946016939374 549.2404300189423,243.05183679457633 552.2957154420097,243.05029815484923 C 555.3510008650771,243.04875951512216 562.9021845469941,242.1997999143932 569.0761236240475,241.16372126434047 C 575.2500627011009,240.1276426142877 582.263711325431,238.57733592894763 584.6620094558924,237.7185952969181 C 587.0603075863538,236.8598546648886 590.8888833219684,235.0635054043974 593.1699555350359,233.7267080513822 C 595.4510277481033,232.38991069836695 598.3961759910187,229.87838988210277 599.714729408181,228.14555068190617 C 601.0332828253432,226.4127114817096 602.4149555921746,223.7813628972698 602.7851133344727,222.298109383151 C 603.155271076771,220.81485586903221 603.1741057211179,217.70729248161118 602.8269680996884,215.39241296665978 C 602.4708616210243,213.01772482653115 600.5970305848882,208.75215641567632 598.5271181618411,205.60428174639836 C 596.0086436637538,201.77424430641747 592.1174105892776,197.9674630445616 586.1157721929055,193.46230043490496 C 581.3073117543773,189.85280336977604 573.1772223354878,184.40028379745024 568.0489068175955,181.34559027418098 C 562.9205912997032,178.29089675091174 553.9105718053758,173.39160138244432 548.0266412746457,170.45826723314224 C 542.1427107439156,167.52493308384015 531.3826072253387,162.72235146832625 524.1153001222525,159.78586364311133 C 516.8479930191663,156.84937581789643 506.119294948068,152.86273557815923 500.27374885314515,150.92666311036203 C 494.42820275822226,148.99059064256485 482.589793255452,145.70114615166398 473.9661721803222,143.61678646391567 C 465.3425511051924,141.53242677616737 455.21209305673165,139.3386668270168 451.4540431837426,138.74176435469215 C 447.69599331075364,138.14486188236754 440.4483256985606,137.01296545724094 435.34811515664694,136.22643896552196 C 430.2479046147333,135.439912473803 422.5609844199831,134.55176075164908 418.26607027942424,134.25276847184665 C 413.9711561388654,133.95377619204422 405.62535707027945,133.26867324309183 399.71985012701106,132.73031747417463 C 393.8143431837426,132.19196170525748 377.12274504657074,131.7453924597492 362.62740982218463,131.73794137304512 C 348.13207459779846,131.73049028634105 330.7815975867909,132.18141453696518 324.07079424216766,132.73999526332094 C 317.3599908975445,133.2985759896767 306.159050042337,134.16640602490477 299.1798145639289,134.6685064527167 C 292.2005790855208,135.17060688052865 283.4155274343777,136.00452801557518 279.6574775613887,136.52166453059795 C 275.89942768839967,137.0388010456207 268.43213378492806,137.95897602274755 263.0634911092295,138.5664978131021 C 257.6948484335309,139.17401960345666 249.56867565622358,140.3332588151299 245.0053293818798,141.14258495015378 C 240.441983107536,141.95191108517764 233.19431549534295,143.27697495060232 228.89940135478412,144.08717131776416 C 224.60448721422526,144.89736768492602 218.67457734970367,146.00682911820488 215.72182387806944,146.55264116949502 C 212.76907040643525,147.09845322078516 207.05878683319224,148.34825611620002 203.0323048264183,149.32998093708363 C 199.00582281964438,150.31170575796722 193.29553924640138,151.62717641979788 190.34278577476718,152.25324907448507 C 187.39003230313295,152.8793217291723 182.77788018628283,154.01632266149417 180.09355884843356,154.77991781297817 C 177.40923751058426,155.5435129644622 171.25970135478408,157.31364522227113 166.4279229466554,158.7135450525536 C 161.5961445385267,160.11344488283606 156.10548725656227,161.64093253444767 154.22646232006775,162.10796205613494 C 152.34743738357324,162.57499157782217 143.87592285288198,165.37462683290576 135.40087447408715,168.3293737340984 C 119.99169560355105,173.70164082717596 119.99169560355105,173.70164082717596 115.44841379686017,172.15915648419966 C 112.94960880318018,171.31079009556268 106.96906672176424,168.90950727574253 102.1583202826025,166.82297244015487 C 97.34757384344076,164.73643760456721 90.26738575691893,161.0696270435721 86.42456897922067,158.67450452683238 C 82.58175220152239,156.27938201009263 77.2033124002366,152.085419331409 74.47248053191892,149.354587463091 C 71.19436692779583,146.0764738589675 69.29525735358078,143.2589852614025 68.88317127712011,141.06237762566272 C 68.50302479878879,139.0360226850297 68.79477024854515,136.45306396800953 69.62942359693642,134.45545732518903 C 70.38315059465704,132.65153470219605 73.34074024838831,129.12783216164868 76.20184504967257,126.62500723508379 C 79.06294985095681,124.12218230851889 84.72117636988212,120.453777315811 88.77568175839545,118.47299614017736 C 92.83018714690878,116.49221496454373 98.48219391500513,113.83612926967096 101.33569679860955,112.57058348490455 C 104.18919968221397,111.30503770013814 109.6798569641784,109.14584571321247 113.53715742519718,107.77237906951419 C 117.39445788621596,106.39891242581588 123.62519906858596,104.24217736661957 127.38324894157495,102.9796344935224 C 131.14129881456392,101.71709162042522 138.60859271803557,99.3985345968854 143.97723539373413,97.82728555232278 C 149.3458780694327,96.25603650776017 157.2524245554615,94.01931877237075 161.54733869602035,92.85680169590186 C 165.8422528365792,91.69428461943299 173.5291730313294,89.85285022000876 178.62938357324302,88.76472525273694 C 183.72959411515666,87.67660028546511 189.2202513971211,86.55092872270502 190.83084419983066,86.26323289104785 C 192.44143700254025,85.97553705939069 197.7124679932261,84.92843520515453 202.5442464013548,83.9363398816342 C 207.3760248094835,82.94424455811384 214.404066130398,81.6849268041515 218.16211600338698,81.13785598394013 C 221.92016587637596,80.59078516372873 229.82671236240475,79.4662566875522 235.73221930567317,78.63890381465895 C 241.63772624894162,77.8115509417657 251.96016193903475,76.49133189775135 258.67096528365795,75.7050837168493 C 265.3817686282811,74.91883553594725 274.38644657070284,74.03177863878999 278.6813607112617,73.73384616761096 C 282.9762748518205,73.43591369643192 292.63983166807793,72.76049233302436 300.15593141405594,72.23290980448304 C 307.6720311600339,71.70532727594171 321.9477400931414,71.28239585645534 331.8797290431838,71.29306220562444 C 341.8117179932261,71.30372855479354 358.94256871295516,71.92905674856968 369.9482861981372,72.68268041401589 C 380.95400368331923,73.43630407946209 394.79046003386964,74.7455176552276 400.6959669771381,75.59204391571706 C 406.6014739204065,76.4385701762065 414.94727298899244,77.57954170492805 419.24218712955127,78.12753620176495 C 423.5371012701101,78.67553069860188 430.7847688823032,79.78600304247007 435.34811515664694,80.59525252147208 C 439.91146143099076,81.40450200047408 447.1591290431838,82.7600295888633 451.4540431837426,83.6075360512259 C 455.74895732430144,84.4550425135885 463.8751301016089,86.20690350777406 469.51220491109234,87.50056048274935 C 475.1492797205758,88.79421745772467 483.9343313717189,90.98130118339736 489.03454191363255,92.36074653979979 C 494.1347524555462,93.7401918962022 502.31641543177903,96.12576679042103 507.2160151941501,97.66202408250827 C 512.1156149565211,99.19828137459551 520.6810403163856,102.19511266569039 526.2502937716268,104.32164917383024 C 531.8195472268679,106.44818568197007 540.9883612616428,110.13345019223442 546.6254360711263,112.51112586330657 C 552.2625108806097,114.8888015343787 561.4868151143099,119.09762645897938 567.1238899237934,121.86407014019693 C 572.7609647332769,124.63051382141448 579.5258381806715,128.54144005117266 582.1569420291146,130.55501731743735 C 584.7880458775578,132.56859458370204 587.5899799251049,135.20894691618 588.3834621347748,136.4224669451662 C 589.7371781328998,138.49278617509222 589.6140890325681,138.82887289265705 586.3877084942678,141.8717414000041 C 584.4965617823192,143.65532232117877 580.4448174174449,146.3004134675128 577.3838321278806,147.74972172519088 C 574.3228468383161,149.19902998286895 566.259799616364,152.00070403726917 559.4659494124312,153.97566406830254 C 552.6720992084984,155.95062409933587 546.8246947812906,157.9831034182032 546.4717173519693,158.49228477689655 C 546.1187399226483,159.0014661355899 546.0133671518254,159.89715473231277 546.2375556390296,160.48270388072515 C 546.5191480327627,161.21818404924798 550.3390162494809,161.35751302729003 558.592734984774,160.93335673420185 C 565.8895703656699,160.55837440857437 573.5800178039339,159.5040108044645 578.3492337002541,158.2247323846481 C 582.6441478408129,157.07267907139365 588.5309018057972,154.9330817501476 591.430909177997,153.470071670768 C 594.3309165501968,152.00706159138838 598.0280666810878,149.16717733068143 599.6467983577548,147.1592177580859 C 601.8861893910037,144.38135980496614 602.6954126336933,142.236603600312 603.0310099329113,138.18974136297552 C 603.3729815681985,134.0660130126347 602.9906359932661,131.876584397329 601.3291624345421,128.44443801410102 C 600.1505616207702,126.00977361693525 596.4745593987012,121.38385469271897 593.1602686077224,118.16461818250929 C 589.8459778167435,114.94538167229962 584.5890777643467,110.54139535750251 581.478268491285,108.37798192740459 C 578.3674592182233,106.21456849730669 575.5914598830273,104.4445029635902 575.3093810797384,104.44450296359018 C 575.0273022764494,104.44450296359018 572.9603577466497,103.18153515008868 570.7161710135169,101.63790782247577 C 568.471984280384,100.09428049486283 559.6077901778154,95.22985119177856 551.0179618966978,90.82806492673296 C 542.4281336155801,86.42627866168736 530.5683138865369,80.91111973896237 524.6628069432685,78.57215620956633 C 518.7573000000001,76.23319268017029 507.9956117273497,72.34202234157878 500.7479441151567,69.9251110126963 C 493.50027650296363,67.50819968381384 482.7385882303133,64.38498773312745 476.83308128704493,62.98464001117097 C 470.9275743437765,61.58429228921451 463.46028044030487,59.83435996537388 460.23909483488575,59.09590151374735 C 457.01790922946657,58.357443062120815 451.3076256562236,57.27313787477952 447.5495757832346,56.686334430766685 C 443.7915259102456,56.09953098675385 438.9597475021169,55.41748817767083 436.8122904318375,55.170683743915525 C 434.66483336155807,54.923879310160224 429.1741760795936,54.27133365839364 424.6108298052498,53.72058229554534 C 420.04748353090605,53.169830932697046 409.8795510064275,52.277959686974704 402.01542419529744,51.73864619394014 C 394.1512973841674,51.199332700905586 375.04381004293117,50.821368489998 359.5543412147725,50.89872572525664" stroke="none" stroke-width="1" style="fill: rgb(28, 32, 38);" /></svg>